<svg width="129" height="49" viewBox="0 0 129 49" fill="none" xmlns="http://www.w3.org/2000/svg">
<path d="M72.0128 13.6213V15.9156C72.0128 16.2333 72.2963 16.4804 72.6152 16.4804L77.9661 16.4804L71.8002 25.2696C71.4104 25.8343 71.4104 26.4697 71.4104 26.8227V29.1523C71.4104 29.5053 71.8002 29.8583 72.1546 29.6818C75.6273 27.811 79.8442 27.9875 82.998 29.6465C83.3878 29.8583 83.7422 29.47 83.7422 29.117V26.6815C83.7068 26.3638 83.6005 26.0108 83.2107 25.799C81.4388 24.8107 79.3481 24.5283 77.3637 24.5636L82.6791 17.0099C83.1752 16.3039 83.4587 15.8804 83.4587 15.5627V13.6213C83.4587 13.3036 83.1752 13.0565 82.8563 13.0565L72.5798 13.0565C72.2609 13.0565 72.0128 13.2683 72.0128 13.6213Z" fill="#7C7A7A"/>
<path d="M31.4384 30.1406H34.5568C34.9111 30.1406 35.1592 29.8936 35.1946 29.6112L35.1946 21.1397C35.1946 21.0844 35.1946 21.0284 35.1945 20.972C35.1924 19.1208 35.1898 16.7275 37.3562 16.7275C39.3344 16.7275 39.3016 18.8736 39.2755 20.5894C39.2726 20.7793 39.2698 20.9639 39.2698 21.1397V29.6112C39.2698 29.8936 39.5178 30.1406 39.8368 30.1759H42.9551C43.2741 30.1759 43.5576 29.9289 43.5576 29.6112V21.1397C43.5576 21.0589 43.5573 20.9748 43.557 20.888C43.5541 19.9898 43.5502 18.8092 43.841 18.0688C44.16 17.257 44.975 16.7628 45.7192 16.7628C46.6405 16.7628 47.3138 17.0805 47.5619 18.1394C47.6731 18.638 47.6534 19.7887 47.6397 20.5851C47.636 20.8035 47.6327 20.9953 47.6327 21.1397V29.6112C47.6327 29.8936 47.8808 30.1406 48.1997 30.1759H51.2827C51.6016 30.1759 51.8851 29.9289 51.8851 29.6112L51.8851 19.516C51.8851 19.2586 51.8898 18.9964 51.8945 18.7323C51.9217 17.2218 51.95 15.6454 51.1055 14.5037C50.2196 13.2683 48.8021 12.7388 47.491 12.7388C45.6483 12.7388 43.9119 13.6919 43.1678 15.7039C42.3173 13.6919 41.077 12.7388 39.128 12.7388C37.2145 12.7388 35.7616 13.6919 35.0174 15.7039H34.9466V13.6213C34.9111 13.3389 34.6985 13.0918 34.3796 13.0918L31.4738 13.0918C31.1549 13.0918 30.8714 13.3389 30.8714 13.6566L30.8714 29.6112C30.9068 29.8936 31.1549 30.1053 31.4384 30.1406Z" fill="#7C7A7A"/>
<path fill-rule="evenodd" clip-rule="evenodd" d="M99.4759 21.7398C99.4759 16.6922 96.9599 12.7389 92.3178 12.7389C87.7819 12.7389 85.266 16.6216 85.3014 21.5986C85.3014 26.5403 87.7819 30.4936 92.3178 30.4936C96.7118 30.4936 99.4759 26.6109 99.4759 21.7398ZM89.8727 21.1044C89.8727 19.163 90.0144 16.0215 92.3178 16.0215C93.31 16.0215 94.0187 16.4451 94.3731 17.5747C94.7629 18.8454 94.8337 20.4691 94.8337 21.8104C94.8337 23.8577 94.692 27.2109 92.2823 27.2109C89.8712 27.2109 89.8722 23.1606 89.8727 21.1865L89.8727 21.1044Z" fill="#7C7A7A"/>
<path d="M102.346 30.1406H105.465C105.784 30.1406 106.067 29.8936 106.102 29.5759V20.9632C106.102 19.869 106.173 18.916 106.599 17.9276C106.953 17.1511 107.662 16.6569 108.406 16.6569C110.394 16.6569 110.374 18.8063 110.358 20.5245C110.356 20.6746 110.355 20.8214 110.355 20.9632V29.6465C110.39 29.8936 110.638 30.1054 110.922 30.1406L114.04 30.1407C114.359 30.1407 114.607 29.9289 114.643 29.6465V19.5866C114.643 18.0335 114.643 15.8804 113.828 14.6096C112.942 13.233 111.56 12.7389 110.178 12.7389C108.016 12.7389 106.811 13.7625 105.925 15.951L105.854 15.951V13.5154C105.784 13.2683 105.571 13.0565 105.287 13.0565L102.382 13.0565C102.063 13.0565 101.815 13.3036 101.779 13.586V29.5759C101.779 29.8583 102.027 30.1054 102.346 30.1406Z" fill="#7C7A7A"/>
<path fill-rule="evenodd" clip-rule="evenodd" d="M66.2367 30.1759C66.4848 30.3171 66.7683 30.2818 66.9809 30.1054C67.2073 29.9174 67.4962 29.6717 67.8048 29.4092C68.3657 28.9321 68.9917 28.3996 69.426 28.0581C69.674 27.8816 69.6386 27.5286 69.426 27.2462C69.3576 27.1484 69.2888 27.0531 69.2205 26.9586C68.7225 26.2694 68.2566 25.6246 68.2566 24.3518V19.516C68.2566 19.3544 68.2575 19.1937 68.2584 19.034C68.2686 17.1709 68.278 15.4512 66.8746 14.1508C65.6697 12.9859 63.6853 12.5977 62.1616 12.5977C59.1849 12.5977 55.8894 13.6919 55.1806 17.3629C55.1098 17.7511 55.3932 17.9276 55.6413 17.9982L58.6534 18.3159C58.9369 18.3159 59.114 18.0335 59.1849 17.7511C59.433 16.4804 60.4961 15.8803 61.7009 15.8803C62.3387 15.8803 63.0475 16.1274 63.4373 16.6922C63.8445 17.2539 63.8364 18.0088 63.829 18.6884C63.828 18.7775 63.8271 18.8653 63.8271 18.9513V19.3395C63.533 19.374 63.224 19.4066 62.9053 19.4402C61.2651 19.6131 59.3689 19.8131 57.9447 20.4338C55.9957 21.2809 54.6137 22.9752 54.6137 25.5166C54.6137 28.7287 56.6689 30.3524 59.2912 30.3524C61.4883 30.3524 62.7285 29.823 64.4295 28.0934C64.5118 28.2113 64.5867 28.3211 64.6577 28.4251C65.0754 29.0372 65.3584 29.4519 66.2367 30.1759ZM63.8273 22.7057C63.8272 22.6431 63.8271 22.58 63.8271 22.5163V21.8457C61.5591 21.8457 59.1849 22.3398 59.1849 24.9872C59.1849 26.3285 59.8936 27.2462 61.0985 27.2462C61.9844 27.2462 62.764 26.7168 63.2601 25.8343C63.8306 24.7981 63.829 23.8252 63.8273 22.7057Z" fill="#7C7A7A"/>
<path fill-rule="evenodd" clip-rule="evenodd" d="M25.2725 30.1759C25.5205 30.3171 25.804 30.2818 26.0166 30.1054C26.243 29.9174 26.532 29.6717 26.8406 29.4091C27.4015 28.9321 28.0274 28.3996 28.4617 28.0581C28.7098 27.8816 28.6744 27.5286 28.4617 27.2462C28.3934 27.1484 28.3246 27.0531 28.2563 26.9586C27.7583 26.2694 27.2923 25.6246 27.2923 24.3518V19.516C27.2923 19.3544 27.2932 19.1937 27.2941 19.034C27.3043 17.1709 27.3138 15.4512 25.9103 14.1508C24.7055 12.9859 22.7211 12.5977 21.1973 12.5977C18.2207 12.5977 14.9251 13.6919 14.2164 17.3629C14.1455 17.7511 14.429 17.9276 14.6771 17.9982L17.6891 18.3159C17.9726 18.3159 18.1498 18.0335 18.2207 17.7511C18.4687 16.4804 19.5318 15.8803 20.7367 15.8803C21.3745 15.8803 22.0832 16.1274 22.473 16.6922C22.8803 17.2539 22.8721 18.0088 22.8647 18.6884C22.8638 18.7775 22.8628 18.8653 22.8628 18.9513V19.3395C22.5688 19.374 22.2598 19.4066 21.9411 19.4402C20.3009 19.6131 18.4046 19.8131 16.9804 20.4338C15.0314 21.2809 13.6494 22.9752 13.6494 25.5166C13.6494 28.7287 15.7047 30.3524 18.327 30.3524C20.524 30.3524 21.7643 29.823 23.4652 28.0934C23.5476 28.2113 23.6225 28.3211 23.6935 28.4251C24.1112 29.0372 24.3941 29.4519 25.2725 30.1759ZM22.8985 22.7057C22.8984 22.6431 22.8983 22.58 22.8983 22.5163V21.8457C20.6303 21.8457 18.2561 22.3398 18.2561 24.9872C18.2561 26.3285 18.9648 27.2462 20.1697 27.2462C21.0556 27.2462 21.8352 26.7168 22.3313 25.8343C22.9018 24.7981 22.9002 23.8252 22.8985 22.7057Z" fill="#7C7A7A"/>
<path d="M78.7457 33.494C78.0016 32.5409 73.7846 33.0351 71.9065 33.2822C71.3395 33.3528 71.2332 32.8586 71.7648 32.5056C75.1312 30.1407 80.6238 30.8466 81.2617 31.6232C81.8995 32.3997 81.0845 37.9062 77.9307 40.5182C77.4346 40.9065 76.9739 40.6947 77.1865 40.1653L77.2248 40.07C77.9507 38.2633 79.4768 34.4649 78.7457 33.494Z" fill="#7C7A7A"/>
<path d="M76.3006 36.2825C70.4537 40.5888 61.949 42.8832 54.6137 42.8832C44.3372 42.8832 35.1238 39.1063 28.1074 32.8233C27.5759 32.3291 28.0365 31.6585 28.7098 32.0467C36.2577 36.4237 45.5775 39.0357 55.2161 39.0357C61.7009 39.0357 68.859 37.6944 75.4502 34.9059C76.4424 34.5176 77.2574 35.5765 76.3006 36.2825Z" fill="#7C7A7A"/>
</svg>
