<svg width="291" height="49" viewBox="0 0 291 49" fill="none" xmlns="http://www.w3.org/2000/svg">
<path d="M25.8751 34.7764H30.4742C28.4683 27.838 26.0628 20.9291 23.0995 13.9907H18.4388C15.572 20.6869 13.07 27.6226 10.8174 34.7764H15.4487C15.8509 33.3822 16.2532 31.9908 16.6823 30.5913H21.2492L22.3621 26.5326H18.0097C18.8759 23.9973 19.8011 21.4863 20.7584 18.9779C22.6973 24.1857 24.3921 29.4205 25.8751 34.7764ZM49.2729 19.535C47.1141 19.535 45.6607 20.4635 44.6738 21.9842C43.6279 20.3747 41.8312 19.535 39.828 19.535C38.0366 19.535 36.6153 20.5254 35.7867 21.9842L35.6338 19.9118H31.7453V34.7818H36.0682V26.4115C36.0682 24.4333 37.1811 23.3164 38.7231 23.3164C40.2651 23.3164 41.319 24.401 41.319 26.2554V34.7737H45.6365V26.5999C45.6365 24.4333 46.8433 23.3164 48.3853 23.3164C49.7744 23.3164 50.9463 24.218 50.9463 26.2285V34.7791H55.2638V25.6122C55.2611 21.6747 52.4856 19.535 49.2729 19.535ZM72.3301 27.1866C72.3301 23.0688 69.0585 19.5377 64.6471 19.5377C60.3885 19.5377 56.8085 22.8212 56.8085 27.402C56.8085 31.8643 60.2008 35.1747 64.7382 35.1747C67.6693 35.1747 70.6326 33.7214 71.8045 30.6882H67.4199C66.7415 31.4014 65.819 31.6517 64.6712 31.6517C63.2231 31.6517 61.3647 30.7501 60.9356 28.893H72.1719C72.2684 28.3359 72.3301 27.7438 72.3301 27.1866ZM64.639 22.8535C66.6154 22.8535 68.0662 24.1857 68.4953 25.9217H60.8793C61.2789 24.1857 62.668 22.8535 64.639 22.8535ZM82.1237 19.6642C80.4557 19.6642 78.8198 20.7192 78.1762 22.7593L78.0207 19.9064H74.0732V34.7764H78.3908V27.6226C78.3908 25.4561 79.812 23.6878 82.4321 23.6878C82.7753 23.6878 83.0837 23.7201 83.4189 23.7201V19.8176C82.9282 19.7234 82.4937 19.6642 82.1237 19.6642ZM85.3015 18.1166H89.6861V13.7754H85.3015V18.1166ZM85.3283 34.7764H89.678V19.9118H85.3283V34.7764ZM98.2407 35.1451C101.974 35.1451 104.69 33.288 104.69 30.2198C104.69 27.7707 102.993 26.1962 99.7505 25.6391L98.3613 25.3888C96.7255 25.1385 96.0765 24.7698 96.0765 23.9004C96.0765 23.1872 96.7872 22.7216 97.9001 22.7216C99.2597 22.7216 99.965 23.3083 100.212 24.3311H104.35C103.979 21.3571 101.756 19.5269 97.9591 19.5269C93.7301 19.5269 91.759 21.5132 91.759 24.2638C91.759 27.2997 94.2262 28.4435 96.5727 28.8472L98.1146 29.0975C99.3831 29.3128 100.027 29.7785 100.027 30.489C100.027 31.2964 99.3509 31.727 98.0824 31.727C96.755 31.727 96.0444 31.2964 95.7708 30.2737H91.6356C92.0406 33.6595 94.6338 35.1451 98.2407 35.1451ZM114.165 35.1451C118.764 35.1451 122.403 31.8024 122.403 27.34C122.403 22.8777 118.764 19.535 114.165 19.535C109.624 19.535 105.953 22.8777 105.953 27.34C105.959 31.8024 109.598 35.1451 114.165 35.1451ZM114.197 31.3099C112.038 31.3099 110.273 29.512 110.273 27.3481C110.273 25.1842 112.03 23.3864 114.197 23.3864C116.356 23.3864 118.117 25.1492 118.117 27.3481C118.117 29.5147 116.356 31.3099 114.197 31.3099ZM134.009 19.9118V28.274C134.009 30.2602 132.682 31.3691 131.105 31.3691C129.563 31.3691 128.485 30.2844 128.485 28.4274V19.9118H124.162V29.0814C124.162 33.1992 126.817 35.1505 130.029 35.1505C131.912 35.1505 133.489 34.1627 134.288 32.6125L134.441 34.7791H138.329V19.9118H134.009ZM148.965 19.6642C147.294 19.6642 145.658 20.7192 145.015 22.7593L144.862 19.9064H140.912V34.7764H145.229V27.6226C145.229 25.4561 146.651 23.6878 149.271 23.6878C149.614 23.6878 149.922 23.7201 150.258 23.7201V19.8176C149.769 19.7234 149.335 19.6642 148.965 19.6642ZM158.7 35.1451C162.03 35.1451 165.425 33.315 166.356 29.1029H162.097C161.574 30.4701 160.309 31.3045 158.732 31.3045C156.541 31.3045 155.058 29.5416 155.058 27.34C155.058 25.1735 156.541 23.3783 158.732 23.3783C160.274 23.3783 161.48 24.1534 162.065 25.6122H166.356C165.551 21.7419 162.314 19.5431 158.7 19.5431C154.194 19.5431 150.735 22.8616 150.735 27.3481C150.735 31.8616 154.194 35.1451 158.7 35.1451ZM183.124 27.1866C183.124 23.0688 179.853 19.5377 175.441 19.5377C171.183 19.5377 167.605 22.8212 167.605 27.402C167.605 31.8643 170.998 35.1747 175.535 35.1747C178.466 35.1747 181.43 33.7214 182.601 30.6882H178.217C177.541 31.4014 176.616 31.6517 175.468 31.6517C174.02 31.6517 172.162 30.7501 171.733 28.893H182.969C183.063 28.3359 183.124 27.7438 183.124 27.1866ZM175.441 22.8535C177.42 22.8535 178.869 24.1857 179.298 25.9217H171.676C172.076 24.1857 173.462 22.8535 175.441 22.8535ZM196.919 23.8762C198.922 23.0096 199.917 21.3678 199.917 19.3897C199.917 16.4157 197.227 13.9988 192.663 13.9988H185.007V34.7818H192.784C198.308 34.7818 200.775 31.9612 200.775 28.7396C200.775 26.8771 199.721 24.7428 196.919 23.8762ZM192.964 30.9331H189.598V17.8932H192.593C194.417 17.8932 195.369 18.7868 195.369 20.1217C195.369 21.6424 194.291 22.3825 192.561 22.3825H192.159L191.14 26.2527H192.964C194.787 26.2527 195.959 27.0601 195.959 28.5754C195.959 30.0907 194.79 30.9331 192.964 30.9331ZM217.812 27.1866C217.812 23.0688 214.54 19.5377 210.129 19.5377C205.871 19.535 202.29 22.8185 202.29 27.402C202.29 31.8643 205.683 35.1747 210.22 35.1747C213.151 35.1747 216.115 33.7214 217.287 30.6882H212.902C212.223 31.4014 211.301 31.6517 210.153 31.6517C208.705 31.6517 206.849 30.7501 206.42 28.893H217.657C217.75 28.3359 217.812 27.7438 217.812 27.1866ZM210.129 22.8535C212.108 22.8535 213.554 24.1857 213.985 25.9217H206.364C206.761 24.1857 208.15 22.8535 210.129 22.8535ZM227.78 19.6642C226.112 19.6642 224.481 20.7192 223.83 22.7593L223.674 19.9064H219.724V34.7764H224.042V27.6226C224.042 25.4561 225.463 23.6878 228.086 23.6878C228.429 23.6878 228.735 23.7201 229.07 23.7201V19.8176C228.584 19.7234 228.15 19.6642 227.78 19.6642ZM241.73 19.9118L241.609 21.3974C240.556 20.2805 239.048 19.5404 237.136 19.5404C233.127 19.5404 229.453 22.7297 229.453 27.157C229.453 31.5575 233.127 34.7737 237.136 34.7737C238.928 34.7737 240.373 34.1197 241.395 33.0996V33.6245C241.395 36.3832 240.129 37.4947 237.815 37.4947C236.273 37.4947 235.039 36.9349 234.449 35.6646H230.373C231.239 39.4729 234.2 41.1146 237.721 41.1146C242.999 41.1146 245.747 37.71 245.747 33.463V19.9118H241.73ZM237.622 30.9681C235.431 30.9681 233.698 29.2644 233.698 27.1597C233.698 25.055 235.428 23.3191 237.622 23.3191C239.781 23.3191 241.51 25.0201 241.51 27.1597C241.51 29.2644 239.789 30.9681 237.622 30.9681ZM262.91 27.1866C262.91 23.0688 259.639 19.5377 255.227 19.5377C250.969 19.5377 247.389 22.8212 247.389 27.402C247.389 31.8643 250.781 35.1747 255.318 35.1747C258.247 35.1747 261.213 33.7214 262.385 30.6882H258C257.322 31.4014 256.396 31.6517 255.251 31.6517C253.803 31.6517 251.945 30.7501 251.518 28.893H262.755C262.849 28.3359 262.91 27.7438 262.91 27.1866ZM255.227 22.8535C257.206 22.8535 258.652 24.1857 259.083 25.9217H251.459C251.862 24.1857 253.248 22.8535 255.227 22.8535ZM273.119 19.535C271.21 19.535 269.66 20.5254 268.861 22.0111L268.705 19.9064H264.817V34.7764H269.142V26.4115C269.142 24.4333 270.47 23.3164 272.012 23.3164C273.554 23.3164 274.667 24.401 274.667 26.2554V34.7737H278.984V25.6122C278.987 21.4863 276.305 19.535 273.119 19.535Z" fill="#7C7A7A"/>
</svg>
