<svg width="45" height="49" viewBox="0 0 45 49" fill="none" xmlns="http://www.w3.org/2000/svg">
<path d="M22.3891 8.94453C24.4936 6.16589 27.4194 6.15234 27.4194 6.15234C27.4194 6.15234 27.8546 8.76473 25.7639 11.2813C23.5315 13.9684 20.994 13.5287 20.994 13.5287C20.994 13.5287 20.5176 11.4154 22.3891 8.94453V8.94453ZM21.2617 15.3587C22.3444 15.3587 24.3538 13.8679 26.9693 13.8679C31.4715 13.8679 33.2427 17.077 33.2427 17.077C33.2427 17.077 29.7786 18.8511 29.7786 23.156C29.7786 28.0123 34.0939 29.6859 34.0939 29.6859C34.0939 29.6859 31.0773 38.191 27.0028 38.191C25.1315 38.191 23.6765 36.9277 21.7047 36.9277C19.6953 36.9277 17.7013 38.2381 16.4025 38.2381C12.6819 38.2382 7.98145 30.1703 7.98145 23.685C7.98145 17.3044 11.9601 13.9573 15.6919 13.9573C18.1179 13.9573 20.0005 15.3587 21.2617 15.3587V15.3587Z" fill="#7C7A7A"/>
</svg>
