<svg width="133" height="49" viewBox="0 0 133 49" fill="none" xmlns="http://www.w3.org/2000/svg">
<path d="M75.7731 29.7402C72.7136 29.7402 70.2266 32.2477 70.2266 35.3324C70.2266 38.4172 72.7136 40.9247 75.7731 40.9247C78.8327 40.9247 81.2839 38.4172 81.2839 35.3324C81.2839 32.2477 78.8148 29.7402 75.7731 29.7402ZM75.7731 38.3631C74.0913 38.3631 72.7494 36.974 72.7494 35.3144C72.7494 33.6548 74.0913 32.3018 75.7731 32.3018C77.4192 32.3018 78.7611 33.6548 78.7611 35.3144C78.7611 36.9921 77.4192 38.3631 75.7731 38.3631Z" fill="#7C7A7A"/>
<path d="M55.4654 29.6133C54.2487 29.6133 52.9963 29.8658 52.0122 30.2807C51.2071 29.8117 50.4198 29.6133 49.3105 29.6133C47.9149 29.6133 46.4835 29.7937 44.9269 30.3349L44.6406 30.4251V40.6895H47.4139V32.2651C47.9686 32.0847 48.4159 32.0125 48.9705 32.0125C50.3482 32.0125 50.7419 32.4455 50.7419 33.8886V40.6714H53.5509V33.7082C53.5509 33.0768 53.5151 32.68 53.4257 32.3012C53.9803 32.1208 54.4276 32.0125 54.9286 32.0125C56.2348 32.0125 56.8252 32.6078 56.8252 33.8886V40.6714H59.5985V33.6721C59.5985 32.2831 59.3838 31.4713 58.7575 30.7858C58.0598 30.0462 56.8968 29.6133 55.4654 29.6133Z" fill="#7C7A7A"/>
<path d="M66.5761 38.4702C64.7332 38.4702 63.6776 37.3156 63.6776 35.2952C63.6776 33.2207 64.7511 32.0481 66.6119 32.0481C67.0055 32.0481 67.3276 32.0842 67.6318 32.1744C67.6318 32.1744 68.2043 32.3368 68.7053 32.7336L69.8862 30.7132C69.242 30.172 68.4906 29.9375 68.2401 29.8834C67.5244 29.6669 66.4688 29.6309 66.4688 29.6309C63.1408 29.6309 60.9043 31.9579 60.9043 35.4215C60.9043 38.7588 63.0335 40.9055 66.3077 40.9055C66.3077 40.9055 68.5085 40.9957 69.9935 39.6247L68.6158 37.8388C67.8465 38.3258 67.3276 38.4702 66.5761 38.4702Z" fill="#7C7A7A"/>
<path d="M30.4348 29.7031C26.4806 29.7031 24.6377 31.4529 24.6377 35.2051V40.7072H27.4647V35.4397V35.1871C27.4647 33.311 28.5203 32.1384 30.1664 32.1384C30.8463 32.1384 31.383 32.2647 31.7588 32.3549L32.4208 29.8655C31.3473 29.7031 30.4348 29.7031 30.4348 29.7031Z" fill="#7C7A7A"/>
<path d="M43.0133 34.8814V40.69H39.2201C36.6079 40.69 35.4449 40.5096 34.0851 39.5896C32.9042 38.7779 32.2422 37.2265 32.2422 35.2241C32.2422 32.4641 34.0493 29.668 38.0393 29.668C41.2598 29.668 43.0133 31.49 43.0133 34.8814ZM40.24 35.2061C40.24 33.0955 39.4348 32.0672 37.8067 32.0672C36.1606 32.0672 35.1049 33.2939 35.1049 35.1519C35.1049 37.3888 36.1606 38.363 38.5223 38.363H40.24V35.2061Z" fill="#7C7A7A"/>
<path d="M23.1165 34.8814V40.69H19.3412C16.729 40.69 15.566 40.5096 14.2062 39.5896C13.0253 38.7779 12.3633 37.2265 12.3633 35.2241C12.3633 32.4641 14.1704 29.668 18.1603 29.668C21.3988 29.668 23.1165 31.49 23.1165 34.8814ZM20.2358 35.2061C20.2358 33.0774 19.4844 32.0672 17.8383 32.0672C16.1922 32.0672 15.1366 33.2939 15.1366 35.1519C15.1366 37.3888 16.1922 38.363 18.554 38.363H20.2358V35.2061Z" fill="#7C7A7A"/>
<mask id="mask0" mask-type="alpha" maskUnits="userSpaceOnUse" x="87" y="7" width="33" height="34">
<rect x="87.8896" y="7.9668" width="31.2367" height="32.958" fill="#C4C4C4"/>
</mask>
<g mask="url(#mask0)">
<path d="M71.5146 22.3439L105.689 -7.9082L135.694 26.547L101.52 56.7991L71.5146 22.3439Z" fill="#7C7A7A"/>
<path d="M105.277 21.8384C105.653 22.0368 105.903 22.4157 105.868 22.7404C105.814 23.0651 105.456 23.1733 105.063 22.9749C104.669 22.7765 104.418 22.3796 104.472 22.0549C104.544 21.7482 104.884 21.658 105.277 21.8384Z" fill="white"/>
<path d="M106.405 15.5787C106.709 15.7411 106.941 16.0297 106.906 16.2281C106.87 16.4265 106.601 16.4626 106.279 16.3003C105.957 16.1379 105.743 15.8493 105.778 15.6509C105.814 15.4344 106.082 15.4163 106.405 15.5787Z" fill="white"/>
<path d="M106.511 14.9649C106.78 15.1092 106.959 15.3437 106.941 15.488C106.905 15.6504 106.69 15.6684 106.422 15.5241C106.153 15.3798 105.975 15.1453 105.992 14.9829C106.028 14.8386 106.243 14.8206 106.511 14.9649Z" fill="white"/>
<path d="M106.601 14.3516C106.833 14.4779 107.012 14.6943 106.994 14.8387C106.976 14.983 106.762 15.001 106.511 14.8567C106.261 14.7304 106.1 14.5139 106.118 14.3696C106.153 14.2253 106.368 14.2073 106.601 14.3516Z" fill="white"/>
<path d="M106.69 13.7392C106.922 13.8655 107.066 14.0459 107.066 14.1902C107.048 14.3165 106.851 14.3165 106.618 14.2082C106.386 14.082 106.225 13.8835 106.243 13.7572C106.278 13.631 106.475 13.631 106.69 13.7392Z" fill="white"/>
<path d="M106.798 13.1793C107.012 13.2875 107.156 13.4679 107.138 13.5762C107.12 13.6844 106.941 13.6844 106.726 13.5762C106.512 13.4679 106.368 13.2875 106.386 13.1612C106.404 13.0711 106.583 13.0711 106.798 13.1793Z" fill="white"/>
<path d="M106.869 12.6923C107.066 12.8006 107.191 12.9629 107.191 13.0531C107.174 13.1613 107.013 13.1613 106.816 13.0531C106.619 12.9449 106.476 12.7825 106.494 12.6743C106.512 12.566 106.673 12.5841 106.869 12.6923Z" fill="white"/>
<path d="M106.941 12.206C107.12 12.2962 107.245 12.4405 107.228 12.5487C107.21 12.657 107.067 12.6389 106.888 12.5307C106.709 12.4225 106.583 12.2962 106.601 12.188C106.619 12.0797 106.762 12.0978 106.941 12.206Z" fill="white"/>
<path d="M107.031 11.7005C107.174 11.7906 107.299 11.8989 107.281 11.9891C107.263 12.0793 107.138 12.0612 106.977 11.971C106.816 11.8808 106.709 11.7726 106.727 11.6824C106.744 11.5922 106.87 11.6283 107.031 11.7005Z" fill="white"/>
<path d="M107.101 11.2486C107.245 11.3207 107.334 11.429 107.334 11.5011C107.316 11.5913 107.209 11.5552 107.066 11.4831C106.922 11.3929 106.815 11.3027 106.833 11.2125C106.833 11.1403 106.958 11.1584 107.101 11.2486Z" fill="white"/>
<path d="M107.156 10.7792C107.281 10.8513 107.37 10.9415 107.353 10.9956C107.335 11.0678 107.245 11.0497 107.12 10.9776C106.995 10.9054 106.905 10.8152 106.923 10.7611C106.941 10.689 107.048 10.725 107.156 10.7792Z" fill="white"/>
<path d="M107.227 10.3648C107.334 10.4189 107.406 10.491 107.406 10.5632C107.388 10.6173 107.317 10.5993 107.209 10.5452C107.102 10.491 107.03 10.4189 107.03 10.3467C107.048 10.2746 107.12 10.2926 107.227 10.3648Z" fill="white"/>
<path d="M104.865 24.0203C104.543 23.8579 104.329 23.5152 104.382 23.2266C104.436 22.956 104.74 22.8658 105.062 23.0281C105.384 23.1905 105.581 23.5152 105.545 23.8038C105.492 24.0744 105.205 24.1826 104.865 24.0203Z" fill="white"/>
<path d="M104.616 25.3557C104.294 25.1934 104.097 24.8506 104.15 24.562C104.222 24.2733 104.49 24.1831 104.812 24.3275C105.117 24.4898 105.331 24.8145 105.278 25.1032C105.224 25.3918 104.938 25.5 104.616 25.3557Z" fill="white"/>
<path d="M104.347 26.7447C104.043 26.5823 103.846 26.2576 103.899 25.951C103.971 25.6623 104.239 25.5541 104.544 25.6984C104.848 25.8427 105.045 26.1855 104.991 26.4741C104.937 26.7808 104.669 26.889 104.347 26.7447Z" fill="white"/>
<path d="M104.042 28.2785C103.738 28.1342 103.559 27.7915 103.613 27.4848C103.685 27.1962 103.953 27.0879 104.257 27.2142C104.561 27.3585 104.74 27.6832 104.687 27.9899C104.633 28.2785 104.347 28.4048 104.042 28.2785Z" fill="white"/>
<path d="M103.738 29.7937C103.469 29.6675 103.308 29.3608 103.362 29.0902C103.416 28.8196 103.666 28.7114 103.917 28.8377C104.167 28.9639 104.328 29.2526 104.292 29.5232C104.256 29.7937 104.006 29.92 103.738 29.7937Z" fill="white"/>
<path d="M103.362 31.6519C103.112 31.5256 102.951 31.237 103.004 30.9484C103.076 30.6778 103.309 30.5515 103.559 30.6597C103.81 30.768 103.953 31.0747 103.917 31.3452C103.863 31.6339 103.631 31.7602 103.362 31.6519Z" fill="white"/>
<path d="M102.951 33.6351C102.719 33.5268 102.593 33.2563 102.647 32.9857C102.701 32.7331 102.915 32.6068 103.148 32.697C103.363 32.8053 103.506 33.0759 103.452 33.3284C103.399 33.599 103.184 33.7253 102.951 33.6351Z" fill="white"/>
<path d="M102.54 35.6384C102.343 35.5482 102.235 35.3137 102.289 35.0791C102.343 34.8446 102.54 34.7184 102.719 34.8085C102.915 34.8987 103.023 35.1333 102.969 35.3678C102.915 35.5842 102.736 35.7105 102.54 35.6384Z" fill="white"/>
<path d="M106.619 22.5956C106.923 22.758 107.12 23.0646 107.102 23.3172C107.066 23.5698 106.798 23.66 106.494 23.5156C106.19 23.3533 105.975 23.0286 106.011 22.776C106.047 22.5054 106.315 22.4333 106.619 22.5956Z" fill="white"/>
<path d="M107.961 23.1543C108.337 23.3527 108.588 23.7496 108.57 24.0743C108.534 24.399 108.212 24.5072 107.836 24.3268C107.46 24.1284 107.192 23.7135 107.228 23.3888C107.264 23.0641 107.586 22.9558 107.961 23.1543Z" fill="white"/>
<path d="M117.211 22.6489C117.068 22.5587 116.961 22.5767 116.979 22.721C116.996 22.8654 117.14 23.0458 117.283 23.154C117.444 23.2442 117.533 23.2261 117.515 23.0818C117.497 22.9375 117.372 22.7571 117.211 22.6489Z" fill="white"/>
<path d="M116.137 21.9107C115.94 21.7844 115.797 21.8205 115.815 22.0009C115.833 22.1813 116.012 22.4158 116.209 22.5421C116.405 22.6683 116.549 22.6323 116.531 22.4519C116.513 22.2715 116.334 22.037 116.137 21.9107Z" fill="white"/>
<path d="M113.131 32.0492C112.863 31.8868 112.666 31.9951 112.666 32.3198C112.666 32.6445 112.863 33.0053 113.131 33.1857C113.4 33.348 113.596 33.2398 113.596 32.9151C113.579 32.5904 113.382 32.2116 113.131 32.0492Z" fill="white"/>
<path d="M111.844 29.4869C111.54 29.3065 111.307 29.4328 111.289 29.7575C111.289 30.1002 111.504 30.4971 111.808 30.6775C112.112 30.8579 112.345 30.7316 112.363 30.3888C112.363 30.0461 112.148 29.6673 111.844 29.4869Z" fill="white"/>
<path d="M110.502 27.2671C110.198 27.1048 109.965 27.213 109.947 27.5016C109.929 27.8083 110.162 28.1691 110.448 28.3495C110.752 28.5118 110.985 28.4036 111.003 28.0969C111.003 27.7902 110.788 27.4295 110.502 27.2671Z" fill="white"/>
<path d="M109.661 18.1574C109.393 18.0131 109.178 18.0492 109.16 18.2296C109.16 18.428 109.357 18.6805 109.625 18.8429C109.894 18.9872 110.108 18.9511 110.126 18.7527C110.126 18.5723 109.93 18.3198 109.661 18.1574Z" fill="white"/>
<path d="M115.172 22.1978C114.957 22.0715 114.814 22.1076 114.832 22.288C114.849 22.4684 115.028 22.7209 115.243 22.8472C115.458 22.9735 115.601 22.9374 115.583 22.739C115.565 22.5586 115.386 22.3241 115.172 22.1978Z" fill="white"/>
<path d="M114.08 21.5318C113.865 21.4055 113.686 21.4416 113.704 21.622C113.722 21.8024 113.901 22.0549 114.134 22.1992C114.366 22.3255 114.527 22.2894 114.51 22.091C114.492 21.9106 114.313 21.6761 114.08 21.5318Z" fill="white"/>
<path d="M111.915 21.1714C111.647 21.0271 111.45 21.0812 111.45 21.2796C111.45 21.4961 111.665 21.7847 111.915 21.929C112.184 22.0733 112.381 22.0192 112.381 21.8028C112.381 21.5863 112.184 21.3157 111.915 21.1714Z" fill="white"/>
<path d="M113.007 20.8647C112.756 20.7204 112.577 20.7745 112.577 20.973C112.577 21.1714 112.792 21.442 113.042 21.6044C113.293 21.7487 113.472 21.6945 113.472 21.4961C113.454 21.2796 113.257 21.0091 113.007 20.8647Z" fill="white"/>
<path d="M111.861 20.196C111.575 20.0516 111.36 20.0877 111.36 20.3042C111.36 20.5207 111.593 20.8273 111.861 20.9897C112.148 21.1521 112.362 21.0979 112.362 20.8634C112.362 20.647 112.148 20.3583 111.861 20.196Z" fill="white"/>
<path d="M110.753 20.4859C110.466 20.3235 110.234 20.3777 110.216 20.6122C110.216 20.8467 110.431 21.1534 110.735 21.3157C111.039 21.4781 111.254 21.4239 111.271 21.1894C111.271 20.9549 111.057 20.6483 110.753 20.4859Z" fill="white"/>
<path d="M109.214 25.1388C108.909 24.9764 108.659 25.0666 108.623 25.3552C108.605 25.6439 108.82 26.0047 109.142 26.167C109.464 26.3294 109.715 26.2211 109.732 25.9325C109.732 25.6439 109.518 25.3011 109.214 25.1388Z" fill="white"/>
<path d="M109.303 23.9126C108.981 23.7322 108.695 23.8224 108.677 24.1291C108.659 24.4358 108.891 24.7966 109.231 24.995C109.571 25.1754 109.84 25.0671 109.858 24.7605C109.858 24.4538 109.625 24.093 109.303 23.9126Z" fill="white"/>
<path d="M109.374 22.7576C109.016 22.5772 108.73 22.6494 108.694 22.9561C108.676 23.2627 108.927 23.6596 109.303 23.858C109.66 24.0565 109.965 23.9482 109.982 23.6416C110 23.3349 109.732 22.9561 109.374 22.7576Z" fill="white"/>
<path d="M109.446 21.6941C109.106 21.5137 108.82 21.5858 108.784 21.8744C108.766 22.1631 109.017 22.5419 109.375 22.7403C109.732 22.9207 110.019 22.8486 110.037 22.5419C110.054 22.2352 109.804 21.8744 109.446 21.6941Z" fill="white"/>
<path d="M109.5 20.7564C109.196 20.594 108.946 20.6481 108.928 20.9007C108.91 21.1532 109.142 21.4599 109.447 21.6403C109.751 21.8026 110.001 21.7305 110.019 21.496C110.037 21.2254 109.804 20.9187 109.5 20.7564Z" fill="white"/>
<path d="M109.57 19.7996C109.248 19.6192 108.98 19.6733 108.944 19.9259C108.926 20.1784 109.177 20.5212 109.517 20.7016C109.857 20.8819 110.125 20.8098 110.125 20.5572C110.143 20.3047 109.893 19.98 109.57 19.7996Z" fill="white"/>
<path d="M109.625 18.9336C109.303 18.7713 109.052 18.8073 109.017 19.0418C108.999 19.2764 109.249 19.6011 109.571 19.7815C109.893 19.9619 110.162 19.9077 110.162 19.6552C110.18 19.4207 109.947 19.114 109.625 18.9336Z" fill="white"/>
<path d="M107.55 16.282C107.317 16.1738 107.138 16.1918 107.12 16.3181C107.103 16.4624 107.264 16.6789 107.496 16.7871C107.729 16.9134 107.908 16.8773 107.926 16.733C107.926 16.6067 107.765 16.4083 107.55 16.282Z" fill="white"/>
<path d="M107.586 15.614C107.371 15.5058 107.21 15.5238 107.192 15.6501C107.174 15.7764 107.317 15.9568 107.532 16.0831C107.747 16.1913 107.908 16.1733 107.926 16.047C107.943 15.9027 107.8 15.7223 107.586 15.614Z" fill="white"/>
<path d="M107.621 14.9659C107.442 14.8757 107.299 14.8757 107.281 14.984C107.263 15.0922 107.406 15.2546 107.585 15.3448C107.764 15.435 107.907 15.435 107.925 15.3267C107.925 15.2365 107.8 15.0742 107.621 14.9659Z" fill="white"/>
<path d="M107.657 14.3507C107.496 14.2605 107.371 14.2605 107.353 14.3687C107.335 14.477 107.461 14.6033 107.622 14.6934C107.783 14.7836 107.908 14.7837 107.926 14.6754C107.926 14.5672 107.818 14.4409 107.657 14.3507Z" fill="white"/>
<path d="M107.692 13.774C107.549 13.7018 107.424 13.6838 107.406 13.774C107.388 13.8642 107.513 13.9904 107.657 14.0626C107.8 14.1347 107.925 14.1528 107.943 14.0626C107.943 13.9724 107.835 13.8642 107.692 13.774Z" fill="white"/>
<path d="M107.71 13.1978C107.585 13.1256 107.478 13.1076 107.46 13.1978C107.46 13.288 107.549 13.3782 107.675 13.4503C107.818 13.5225 107.925 13.5405 107.925 13.4503C107.943 13.3782 107.836 13.288 107.71 13.1978Z" fill="white"/>
<path d="M107.729 12.6919C107.603 12.6198 107.514 12.6017 107.496 12.6919C107.496 12.7641 107.586 12.8543 107.711 12.9264C107.836 12.9986 107.926 13.0166 107.943 12.9264C107.943 12.8543 107.854 12.7641 107.729 12.6919Z" fill="white"/>
<path d="M107.764 12.1679C107.657 12.1138 107.567 12.0957 107.567 12.1499C107.567 12.222 107.639 12.2942 107.746 12.3483C107.854 12.4024 107.943 12.4205 107.943 12.3663C107.943 12.3122 107.872 12.222 107.764 12.1679Z" fill="white"/>
<path d="M106.333 24.5984C106.566 24.7067 106.78 24.6345 106.816 24.4361C106.834 24.2196 106.691 23.9851 106.44 23.8588C106.208 23.7506 105.993 23.8047 105.957 24.0212C105.94 24.2196 106.101 24.4721 106.333 24.5984Z" fill="white"/>
<path d="M106.136 25.9329C106.369 26.0412 106.566 25.969 106.602 25.7525C106.62 25.5361 106.476 25.3016 106.262 25.1753C106.029 25.067 105.832 25.1392 105.796 25.3376C105.761 25.5541 105.904 25.8067 106.136 25.9329Z" fill="white"/>
<path d="M105.814 27.3044C106.047 27.4127 106.244 27.3225 106.279 27.106C106.315 26.8895 106.154 26.637 105.939 26.5287C105.725 26.4205 105.528 26.5107 105.474 26.7091C105.438 26.9436 105.582 27.1962 105.814 27.3044Z" fill="white"/>
<path d="M105.527 28.8015C105.742 28.8917 105.921 28.8195 105.957 28.6031C105.993 28.3866 105.849 28.1521 105.653 28.0438C105.438 27.9536 105.259 28.0258 105.223 28.2423C105.17 28.4587 105.313 28.6933 105.527 28.8015Z" fill="white"/>
<path d="M105.17 30.2976C105.367 30.3878 105.546 30.2976 105.582 30.0992C105.618 29.9008 105.492 29.6663 105.296 29.5761C105.099 29.4859 104.92 29.5761 104.884 29.7745C104.848 29.9729 104.973 30.1894 105.17 30.2976Z" fill="white"/>
<path d="M104.759 32.0672C104.938 32.1574 105.116 32.0491 105.152 31.8507C105.188 31.6523 105.063 31.4177 104.884 31.3456C104.705 31.2554 104.544 31.3456 104.49 31.544C104.472 31.7605 104.58 31.977 104.759 32.0672Z" fill="white"/>
<path d="M110.734 19.6015C110.466 19.4571 110.251 19.4932 110.233 19.6916C110.233 19.8901 110.43 20.1787 110.716 20.323C110.985 20.4673 111.2 20.4313 111.217 20.2148C111.217 20.0164 111.003 19.7458 110.734 19.6015Z" fill="white"/>
<path d="M110.681 21.478C110.43 21.3517 110.251 21.3878 110.233 21.5862C110.233 21.7846 110.412 22.0552 110.663 22.1815C110.913 22.3078 111.11 22.2537 111.11 22.0552C111.11 21.8568 110.913 21.6042 110.681 21.478Z" fill="white"/>
<path d="M110.662 22.4331C110.394 22.2888 110.161 22.3429 110.144 22.5774C110.144 22.8119 110.34 23.1186 110.627 23.281C110.913 23.4253 111.128 23.3712 111.146 23.1186C111.146 22.8841 110.931 22.5955 110.662 22.4331Z" fill="white"/>
<path d="M110.52 25.897C110.251 25.7527 110.037 25.8429 110.019 26.0954C110.001 26.366 110.215 26.6907 110.484 26.835C110.752 26.9794 110.985 26.8892 110.985 26.6186C110.985 26.366 110.788 26.0594 110.52 25.897Z" fill="white"/>
<path d="M115.082 21.2427C114.85 21.1165 114.689 21.1525 114.706 21.3329C114.724 21.5314 114.921 21.7839 115.154 21.9282C115.386 22.0545 115.547 22.0184 115.529 21.82C115.494 21.6396 115.315 21.387 115.082 21.2427Z" fill="white"/>
<path d="M111.754 31.1457C111.504 31.0014 111.307 31.1096 111.289 31.3982C111.289 31.6869 111.468 32.0296 111.718 32.192C111.969 32.3363 112.166 32.228 112.184 31.9394C112.184 31.6327 112.005 31.29 111.754 31.1457Z" fill="white"/>
<path d="M113.15 33.7624C112.918 33.6181 112.721 33.7263 112.721 34.033C112.721 34.3397 112.9 34.7004 113.15 34.8628C113.401 35.0252 113.58 34.8989 113.58 34.5922C113.562 34.2855 113.383 33.9247 113.15 33.7624Z" fill="white"/>
<path d="M110.376 28.7117C110.108 28.5674 109.875 28.6576 109.857 28.9642C109.84 29.2529 110.054 29.6136 110.323 29.776C110.609 29.9203 110.824 29.8121 110.842 29.5234C110.859 29.2168 110.663 28.856 110.376 28.7117Z" fill="white"/>
<path d="M109.089 26.5468C108.82 26.4025 108.588 26.4927 108.552 26.7633C108.534 27.0339 108.731 27.3586 108.999 27.5029C109.285 27.6472 109.5 27.557 109.536 27.2684C109.554 27.0158 109.375 26.6911 109.089 26.5468Z" fill="white"/>
<path d="M107.836 24.4537C107.531 24.3094 107.281 24.3815 107.245 24.6521C107.209 24.9227 107.424 25.2655 107.728 25.4278C108.032 25.5721 108.283 25.4819 108.319 25.2114C108.354 24.9227 108.14 24.598 107.836 24.4537Z" fill="white"/>
<path d="M110.574 24.7245C110.323 24.5982 110.109 24.6523 110.109 24.8869C110.091 25.1214 110.287 25.428 110.538 25.5724C110.788 25.7167 111.003 25.6265 111.003 25.392C111.003 25.1574 110.824 24.8688 110.574 24.7245Z" fill="white"/>
<path d="M109.696 17.4188C109.464 17.2925 109.267 17.3106 109.249 17.4729C109.249 17.6353 109.428 17.8698 109.661 17.9961C109.893 18.1223 110.09 18.1043 110.09 17.9419C110.108 17.7796 109.929 17.5631 109.696 17.4188Z" fill="white"/>
<path d="M114.026 20.684C113.829 20.5758 113.704 20.6119 113.704 20.7562C113.722 20.9005 113.865 21.117 114.062 21.2252C114.259 21.3334 114.384 21.2974 114.384 21.1531C114.366 21.0087 114.205 20.7923 114.026 20.684Z" fill="white"/>
<path d="M111.932 23.2281C111.718 23.1018 111.557 23.1559 111.557 23.3544C111.557 23.5528 111.718 23.7873 111.932 23.9136C112.147 24.0399 112.308 23.9857 112.308 23.7873C112.29 23.5889 112.129 23.3544 111.932 23.2281Z" fill="white"/>
<path d="M111.826 28.0624C111.557 27.9181 111.361 28.0083 111.343 28.2789C111.343 28.5675 111.54 28.8922 111.808 29.0546C112.076 29.1989 112.273 29.1087 112.291 28.8201C112.273 28.5495 112.076 28.2067 111.826 28.0624Z" fill="white"/>
<path d="M110.609 23.6062C110.358 23.4799 110.161 23.534 110.144 23.7505C110.144 23.9669 110.322 24.2556 110.573 24.3999C110.823 24.5442 111.02 24.472 111.038 24.2375C111.038 24.003 110.859 23.7324 110.609 23.6062Z" fill="white"/>
<path d="M113.15 25.0313C112.917 24.887 112.738 24.9592 112.738 25.1937C112.738 25.4282 112.935 25.7168 113.168 25.8611C113.418 26.0055 113.597 25.9333 113.579 25.6988C113.579 25.4643 113.382 25.1756 113.15 25.0313Z" fill="white"/>
<path d="M114.188 36.7204C113.991 36.5761 113.848 36.6843 113.848 36.9549C113.848 37.2255 114.009 37.5682 114.205 37.7125C114.402 37.8569 114.545 37.7486 114.545 37.478C114.528 37.1894 114.367 36.8647 114.188 36.7204Z" fill="white"/>
<path d="M113.06 21.8384C112.845 21.7121 112.666 21.7662 112.666 21.9466C112.666 22.127 112.845 22.3795 113.078 22.5058C113.31 22.6321 113.471 22.578 113.453 22.3976C113.453 22.2172 113.274 21.9646 113.06 21.8384Z" fill="white"/>
<path d="M108.588 16.8586C108.373 16.7504 108.194 16.7684 108.176 16.9128C108.158 17.0571 108.319 17.2555 108.534 17.3818C108.749 17.49 108.928 17.472 108.946 17.3277C108.963 17.1653 108.802 16.9669 108.588 16.8586Z" fill="white"/>
<path d="M110.77 17.3094C110.556 17.2011 110.412 17.2192 110.395 17.3454C110.395 17.4897 110.556 17.6882 110.752 17.7964C110.967 17.9047 111.128 17.8866 111.128 17.7423C111.128 17.616 110.985 17.4356 110.77 17.3094Z" fill="white"/>
<path d="M112.989 20.1052C112.81 20.015 112.685 20.033 112.685 20.1593C112.685 20.2856 112.828 20.466 113.007 20.5742C113.186 20.6644 113.311 20.6464 113.311 20.5021C113.293 20.3758 113.15 20.1954 112.989 20.1052Z" fill="white"/>
<path d="M111.879 24.346C111.664 24.2197 111.485 24.2919 111.485 24.4903C111.485 24.6888 111.646 24.9413 111.879 25.0856C112.094 25.2119 112.273 25.1398 112.273 24.9413C112.255 24.7249 112.094 24.4723 111.879 24.346Z" fill="white"/>
<path d="M113.078 23.9313C112.881 23.8231 112.738 23.8772 112.738 24.0395C112.738 24.2199 112.899 24.4364 113.078 24.5446C113.275 24.6529 113.418 24.5988 113.4 24.4364C113.418 24.256 113.275 24.0395 113.078 23.9313Z" fill="white"/>
<path d="M114.33 25.7878C114.116 25.6615 113.973 25.7156 113.973 25.9321C113.991 26.1486 114.152 26.4192 114.366 26.5454C114.581 26.6717 114.724 26.6176 114.724 26.4011C114.706 26.1847 114.527 25.9141 114.33 25.7878Z" fill="white"/>
<path d="M116.209 22.9028C116.048 22.8126 115.941 22.8306 115.959 22.9749C115.977 23.1193 116.12 23.3177 116.263 23.4079C116.424 23.4981 116.532 23.4801 116.514 23.3177C116.514 23.1914 116.37 23.011 116.209 22.9028Z" fill="white"/>
<path d="M110.77 16.6614C110.591 16.5712 110.448 16.5712 110.448 16.6974C110.448 16.8237 110.591 16.9861 110.77 17.0943C110.949 17.1845 111.092 17.1845 111.092 17.0582C111.092 16.9319 110.949 16.7696 110.77 16.6614Z" fill="white"/>
<path d="M110.771 18.068C110.574 17.9598 110.431 17.9958 110.431 18.1221C110.431 18.2484 110.574 18.4468 110.771 18.5551C110.967 18.6633 111.111 18.6272 111.111 18.5009C111.093 18.3566 110.95 18.1582 110.771 18.068Z" fill="white"/>
<path d="M114.385 34.9172C114.17 34.7728 113.991 34.8811 113.991 35.1697C113.991 35.4583 114.17 35.8191 114.385 35.9815C114.6 36.1438 114.761 36.0356 114.761 35.7289C114.778 35.4403 114.6 35.0795 114.385 34.9172Z" fill="white"/>
<path d="M109.733 16.7688C109.536 16.6786 109.393 16.6786 109.393 16.8049C109.393 16.9311 109.536 17.1115 109.715 17.2017C109.911 17.31 110.055 17.2919 110.055 17.1657C110.055 17.0574 109.911 16.877 109.733 16.7688Z" fill="white"/>
<path d="M111.861 22.2162C111.683 22.1079 111.539 22.144 111.521 22.3064C111.521 22.4687 111.665 22.6672 111.861 22.7754C112.058 22.8836 112.201 22.8295 112.201 22.6852C112.201 22.5228 112.058 22.3064 111.861 22.2162Z" fill="white"/>
<path d="M111.861 19.5101C111.7 19.4199 111.593 19.456 111.593 19.5642C111.593 19.6905 111.718 19.8348 111.879 19.925C112.04 20.0152 112.147 19.9972 112.147 19.8709C112.13 19.7446 112.004 19.6003 111.861 19.5101Z" fill="white"/>
<path d="M111.844 26.7989C111.665 26.6907 111.504 26.7448 111.504 26.9433C111.504 27.1237 111.647 27.3582 111.826 27.4664C112.023 27.5746 112.166 27.5025 112.166 27.3221C112.166 27.1237 112.023 26.9072 111.844 26.7989Z" fill="white"/>
<path d="M113.168 30.4788C112.953 30.3526 112.792 30.4247 112.792 30.6773C112.792 30.9298 112.971 31.2185 113.186 31.3628C113.4 31.489 113.561 31.3988 113.561 31.1643C113.543 30.9118 113.382 30.6051 113.168 30.4788Z" fill="white"/>
<path d="M110.751 18.9156C110.608 18.8435 110.501 18.8615 110.501 18.9517C110.501 19.0599 110.608 19.2042 110.751 19.2764C110.895 19.3486 111.002 19.3305 111.002 19.2223C111.002 19.1321 110.895 19.0058 110.751 18.9156Z" fill="white"/>
<path d="M113.06 35.5302C112.881 35.422 112.756 35.5122 112.756 35.7287C112.756 35.9632 112.881 36.2338 113.06 36.342C113.239 36.4502 113.364 36.3601 113.364 36.1255C113.346 35.9091 113.221 35.6565 113.06 35.5302Z" fill="white"/>
<path d="M114.152 22.5599C113.973 22.4517 113.848 22.4878 113.848 22.6501C113.866 22.8125 114.009 23.0109 114.188 23.1191C114.367 23.2274 114.492 23.1913 114.492 23.0289C114.474 22.8666 114.331 22.6682 114.152 22.5599Z" fill="white"/>
<path d="M111.843 17.2745C111.682 17.1844 111.557 17.2024 111.557 17.3106C111.557 17.4189 111.682 17.5812 111.861 17.6714C112.022 17.7616 112.147 17.7436 112.147 17.6353C112.129 17.5271 112.004 17.3647 111.843 17.2745Z" fill="white"/>
<path d="M118.266 23.3704C118.141 23.2802 118.052 23.3163 118.07 23.4426C118.088 23.5688 118.213 23.7312 118.338 23.8214C118.463 23.9116 118.553 23.8755 118.535 23.7492C118.517 23.623 118.392 23.4606 118.266 23.3704Z" fill="white"/>
<path d="M115.512 26.5831C115.333 26.4568 115.19 26.529 115.208 26.7093C115.225 26.9078 115.369 27.1603 115.565 27.2866C115.762 27.4129 115.887 27.3588 115.87 27.1423C115.852 26.9439 115.691 26.6913 115.512 26.5831Z" fill="white"/>
<path d="M114.938 38.6328C114.777 38.5066 114.67 38.5968 114.67 38.8493C114.67 39.1019 114.795 39.4085 114.956 39.5528C115.117 39.6972 115.225 39.5889 115.225 39.3364C115.207 39.0658 115.099 38.7591 114.938 38.6328Z" fill="white"/>
<path d="M111.701 32.8955C111.504 32.7872 111.361 32.8774 111.343 33.0939C111.343 33.3284 111.486 33.581 111.665 33.7072C111.862 33.8155 112.005 33.7253 112.005 33.4908C112.023 33.2743 111.88 33.0037 111.701 32.8955Z" fill="white"/>
<path d="M114.277 24.7243C114.151 24.6521 114.044 24.6882 114.044 24.8145C114.044 24.9407 114.151 25.1031 114.294 25.1933C114.438 25.2835 114.527 25.2294 114.527 25.1031C114.509 24.9588 114.402 24.7964 114.277 24.7243Z" fill="white"/>
<path d="M111.789 16.6067C111.646 16.5346 111.539 16.5346 111.557 16.6248C111.557 16.733 111.664 16.8413 111.807 16.9315C111.95 17.0036 112.058 17.0036 112.058 16.9134C112.022 16.8052 111.914 16.6789 111.789 16.6067Z" fill="white"/>
<path d="M112.774 17.2026C112.667 17.1485 112.577 17.1485 112.577 17.2207C112.577 17.3109 112.667 17.4011 112.792 17.4732C112.899 17.5273 112.989 17.5273 112.989 17.4552C112.971 17.365 112.881 17.2748 112.774 17.2026Z" fill="white"/>
<path d="M110.305 30.4959C110.144 30.4057 110.001 30.4778 109.983 30.6582C109.983 30.8386 110.091 31.0551 110.27 31.1633C110.449 31.2535 110.574 31.1814 110.592 31.001C110.61 30.8025 110.484 30.5861 110.305 30.4959Z" fill="white"/>
<path d="M108.926 28.1526C108.765 28.0624 108.622 28.1345 108.604 28.2969C108.586 28.4592 108.712 28.6757 108.873 28.7659C109.034 28.8561 109.177 28.784 109.195 28.6216C109.213 28.4592 109.087 28.2428 108.926 28.1526Z" fill="white"/>
<path d="M107.638 26.0044C107.477 25.9142 107.334 25.9683 107.316 26.1307C107.298 26.293 107.406 26.4734 107.585 26.5636C107.746 26.6538 107.889 26.5816 107.907 26.4373C107.925 26.275 107.799 26.0765 107.638 26.0044Z" fill="white"/>
<path d="M112.702 16.5716C112.577 16.4994 112.487 16.4994 112.505 16.5896C112.505 16.6798 112.613 16.7881 112.738 16.8422C112.863 16.9143 112.953 16.9143 112.935 16.8241C112.935 16.752 112.827 16.6437 112.702 16.5716Z" fill="white"/>
<path d="M113.49 16.5894C113.383 16.5352 113.312 16.5352 113.312 16.6074C113.312 16.6796 113.401 16.7698 113.508 16.8239C113.616 16.878 113.687 16.878 113.687 16.8058C113.669 16.7337 113.598 16.6435 113.49 16.5894Z" fill="white"/>
<path d="M116.693 27.484C116.568 27.4119 116.496 27.448 116.496 27.5742C116.514 27.7005 116.603 27.8809 116.729 27.9531C116.854 28.0252 116.926 27.9891 116.926 27.8629C116.908 27.7366 116.8 27.5562 116.693 27.484Z" fill="white"/>
<path d="M115.601 27.7905C115.458 27.7003 115.351 27.7364 115.351 27.8987C115.368 28.0611 115.494 28.2776 115.637 28.3678C115.78 28.476 115.887 28.4219 115.887 28.2415C115.869 28.0972 115.744 27.8807 115.601 27.7905Z" fill="white"/>
<path d="M114.384 27.0148C114.241 26.9246 114.151 26.9787 114.151 27.123C114.151 27.2674 114.277 27.4477 114.402 27.5379C114.545 27.6281 114.652 27.574 114.634 27.4297C114.634 27.2854 114.527 27.105 114.384 27.0148Z" fill="white"/>
<path d="M113.15 26.2751C113.024 26.2029 112.917 26.239 112.917 26.3653C112.917 26.4915 113.024 26.6539 113.15 26.7441C113.275 26.8162 113.382 26.7802 113.382 26.6539C113.364 26.5096 113.275 26.3472 113.15 26.2751Z" fill="white"/>
<path d="M111.862 25.5368C111.736 25.4646 111.629 25.5007 111.629 25.627C111.629 25.7532 111.736 25.9156 111.862 25.9878C111.987 26.0599 112.094 26.0238 112.094 25.8976C112.094 25.7713 112.005 25.6089 111.862 25.5368Z" fill="white"/>
<path d="M116.746 28.621C116.62 28.5308 116.549 28.5849 116.549 28.7112C116.567 28.8555 116.656 29.0359 116.781 29.108C116.907 29.1982 116.978 29.1441 116.978 29.0178C116.978 28.8916 116.871 28.7112 116.746 28.621Z" fill="white"/>
<path d="M117.963 29.5407C117.855 29.4685 117.784 29.5046 117.802 29.6309C117.819 29.7572 117.909 29.9376 118.016 30.0097C118.124 30.0999 118.195 30.0458 118.177 29.9195C118.142 29.7932 118.052 29.6309 117.963 29.5407Z" fill="white"/>
<path d="M111.825 17.978C111.7 17.9059 111.593 17.9059 111.593 18.0141C111.593 18.1223 111.7 18.2306 111.843 18.3027C111.969 18.3749 112.076 18.3749 112.076 18.2667C112.058 18.1765 111.969 18.0502 111.825 17.978Z" fill="white"/>
<path d="M103.864 21.2071C103.56 21.0628 103.256 21.135 103.202 21.3695C103.148 21.622 103.345 21.9467 103.667 22.091C103.989 22.2354 104.276 22.1632 104.329 21.9106C104.365 21.6581 104.168 21.3514 103.864 21.2071Z" fill="white"/>
<path d="M102.504 20.431C102.11 20.2506 101.735 20.3408 101.645 20.6294C101.556 20.9361 101.806 21.3329 102.218 21.5314C102.629 21.7118 103.005 21.6216 103.076 21.2968C103.148 21.0082 102.897 20.6294 102.504 20.431Z" fill="white"/>
<path d="M93.415 10.7435C93.6297 10.8156 93.737 10.9419 93.6655 11.0501C93.5939 11.1584 93.3613 11.1764 93.1466 11.1043C92.9319 11.0321 92.8245 10.9058 92.8961 10.7976C92.9677 10.7074 93.2003 10.6713 93.415 10.7435Z" fill="white"/>
<path d="M94.899 11.2126C95.1495 11.3028 95.2747 11.4832 95.2032 11.6095C95.1137 11.7358 94.8453 11.7538 94.5769 11.6636C94.3086 11.5734 94.1833 11.393 94.2728 11.2667C94.3801 11.1405 94.6485 11.1224 94.899 11.2126Z" fill="white"/>
<path d="M94.3455 23.1907C94.5781 23.2809 94.7034 23.5154 94.6139 23.7139C94.5245 23.9123 94.2561 24.0025 94.0056 23.8943C93.7551 23.8041 93.6478 23.5696 93.7372 23.3711C93.8446 23.1727 94.0951 23.1005 94.3455 23.1907Z" fill="white"/>
<path d="M96.4921 22.1076C96.8141 22.2519 96.9931 22.5406 96.8857 22.8111C96.7784 23.0817 96.4384 23.1719 96.0985 23.0457C95.7585 22.9013 95.5975 22.5947 95.7048 22.3241C95.8122 22.0715 96.1521 21.9633 96.4921 22.1076Z" fill="white"/>
<path d="M98.6395 21.4779C98.9794 21.6222 99.1762 21.9469 99.0868 22.2355C98.9794 22.5061 98.6395 22.6143 98.2816 22.47C97.9238 22.3077 97.7449 21.983 97.8343 21.7124C97.9596 21.4237 98.2995 21.3335 98.6395 21.4779Z" fill="white"/>
<path d="M102.683 14.5314C102.969 14.6758 103.148 14.9283 103.112 15.0907C103.058 15.2711 102.79 15.2891 102.486 15.1448C102.182 15.0005 102.003 14.7479 102.056 14.5675C102.11 14.4052 102.378 14.3871 102.683 14.5314Z" fill="white"/>
<path d="M95.8474 12.4398C96.1157 12.548 96.2589 12.7284 96.1873 12.8727C96.0978 13.0171 95.8116 13.0531 95.5432 12.9449C95.2569 12.8367 95.1138 12.6563 95.2032 12.4939C95.2927 12.3857 95.579 12.3496 95.8474 12.4398Z" fill="white"/>
<path d="M97.2444 12.9809C97.5128 13.0891 97.6738 13.3056 97.6022 13.4499C97.5128 13.5942 97.2444 13.6303 96.9581 13.5221C96.6718 13.3958 96.5287 13.1974 96.6003 13.0531C96.6718 12.9087 96.9581 12.8727 97.2444 12.9809Z" fill="white"/>
<path d="M99.5511 14.856C99.8553 15.0003 100.034 15.2348 99.9626 15.4333C99.8732 15.6137 99.5869 15.6497 99.2827 15.5235C98.9785 15.3791 98.7996 15.1266 98.8712 14.9462C98.9428 14.7658 99.2469 14.7297 99.5511 14.856Z" fill="white"/>
<path d="M98.5858 13.5037C98.8721 13.6299 99.051 13.8645 98.9794 14.0449C98.89 14.2072 98.6037 14.2433 98.2995 14.117C97.9954 13.9907 97.8164 13.7562 97.9059 13.5758C97.9953 13.4135 98.2816 13.3774 98.5858 13.5037Z" fill="white"/>
<path d="M99.9276 14.0982C100.232 14.2425 100.429 14.495 100.357 14.6754C100.285 14.8558 99.9813 14.8919 99.6414 14.7476C99.3193 14.6033 99.1404 14.3507 99.212 14.1523C99.3014 13.9719 99.6056 13.9538 99.9276 14.0982Z" fill="white"/>
<path d="M100.876 15.4348C101.198 15.5971 101.395 15.8677 101.324 16.0661C101.252 16.2826 100.93 16.3187 100.59 16.1563C100.25 15.994 100.053 15.7234 100.143 15.5069C100.232 15.3265 100.536 15.2904 100.876 15.4348Z" fill="white"/>
<path d="M100.643 20.9172C100.983 21.0795 101.18 21.3862 101.109 21.6568C101.019 21.9274 100.697 22.0176 100.339 21.8552C99.9992 21.6929 99.8024 21.3681 99.874 21.0976C99.9814 20.863 100.303 20.7728 100.643 20.9172Z" fill="white"/>
<path d="M100.983 19.7999C101.34 19.9803 101.555 20.305 101.484 20.5936C101.394 20.8642 101.036 20.9544 100.678 20.7921C100.303 20.6117 100.088 20.2689 100.177 19.9983C100.267 19.7097 100.625 19.6376 100.983 19.7999Z" fill="white"/>
<path d="M101.305 18.7345C101.699 18.9149 101.931 19.2757 101.842 19.5643C101.752 19.8529 101.377 19.9431 100.965 19.7627C100.571 19.5643 100.321 19.2035 100.428 18.9149C100.536 18.6443 100.911 18.5541 101.305 18.7345Z" fill="white"/>
<path d="M101.609 17.7603C101.985 17.9407 102.217 18.2835 102.146 18.5541C102.056 18.8247 101.699 18.8968 101.305 18.7164C100.911 18.536 100.679 18.1752 100.768 17.9227C100.875 17.6341 101.233 17.5799 101.609 17.7603Z" fill="white"/>
<path d="M101.878 16.8952C102.2 17.0575 102.415 17.3462 102.343 17.5626C102.271 17.7791 101.967 17.8332 101.627 17.6889C101.287 17.5266 101.091 17.2199 101.162 17.0034C101.234 16.7869 101.556 16.7328 101.878 16.8952Z" fill="white"/>
<path d="M102.182 16.0293C102.54 16.2097 102.754 16.5164 102.701 16.7509C102.629 16.9854 102.289 17.0395 101.931 16.8591C101.573 16.6787 101.341 16.3721 101.412 16.1375C101.502 15.903 101.824 15.867 102.182 16.0293Z" fill="white"/>
<path d="M102.451 15.2351C102.791 15.4155 103.005 15.7041 102.952 15.9206C102.88 16.137 102.558 16.1731 102.2 16.0108C101.842 15.8304 101.628 15.5417 101.699 15.3072C101.789 15.1088 102.111 15.0727 102.451 15.2351Z" fill="white"/>
<path d="M105.206 15.0551C105.438 15.1814 105.581 15.3799 105.563 15.5242C105.528 15.6685 105.331 15.6865 105.098 15.5603C104.866 15.434 104.705 15.2355 104.74 15.0912C104.776 14.9469 104.973 14.9289 105.206 15.0551Z" fill="white"/>
<path d="M105.384 14.4228C105.599 14.531 105.742 14.7114 105.706 14.8377C105.67 14.964 105.491 14.982 105.277 14.8558C105.062 14.7475 104.919 14.5671 104.955 14.4408C104.99 14.3146 105.169 14.3146 105.384 14.4228Z" fill="white"/>
<path d="M105.563 13.8292C105.742 13.9194 105.867 14.0818 105.849 14.19C105.831 14.2982 105.67 14.2982 105.474 14.208C105.295 14.1178 105.169 13.9555 105.187 13.8473C105.223 13.739 105.384 13.739 105.563 13.8292Z" fill="white"/>
<path d="M105.724 13.2512C105.885 13.3414 106.01 13.4677 105.993 13.576C105.975 13.6842 105.832 13.6662 105.67 13.576C105.509 13.4858 105.384 13.3595 105.402 13.2512C105.42 13.161 105.563 13.161 105.724 13.2512Z" fill="white"/>
<path d="M105.885 12.729C106.028 12.8192 106.136 12.9275 106.136 13.0177C106.118 13.1079 105.993 13.0898 105.832 13.0177C105.671 12.9275 105.563 12.8192 105.581 12.729C105.599 12.6388 105.724 12.6569 105.885 12.729Z" fill="white"/>
<path d="M106.028 12.2408C106.172 12.3129 106.261 12.4212 106.243 12.4933C106.225 12.5655 106.118 12.5655 105.975 12.4933C105.832 12.4212 105.742 12.3129 105.76 12.2408C105.778 12.1506 105.885 12.1686 106.028 12.2408Z" fill="white"/>
<path d="M106.154 11.8257C106.279 11.8979 106.369 11.988 106.351 12.0602C106.333 12.1324 106.226 12.1143 106.1 12.0422C105.975 11.97 105.886 11.8798 105.904 11.8077C105.922 11.7355 106.029 11.7535 106.154 11.8257Z" fill="white"/>
<path d="M106.279 11.4116C106.387 11.4657 106.458 11.5559 106.458 11.6101C106.441 11.6642 106.351 11.6642 106.244 11.592C106.136 11.5379 106.047 11.4477 106.065 11.3936C106.083 11.3214 106.172 11.3395 106.279 11.4116Z" fill="white"/>
<path d="M103.398 23.136C103.148 23.0097 103.005 22.7752 103.041 22.5587C103.094 22.3603 103.309 22.2881 103.559 22.4144C103.792 22.5407 103.953 22.7752 103.917 22.9736C103.882 23.1901 103.649 23.2622 103.398 23.136Z" fill="white"/>
<path d="M103.148 24.4535C102.916 24.3453 102.772 24.0927 102.808 23.8943C102.862 23.6958 103.077 23.6237 103.309 23.7319C103.542 23.8402 103.685 24.0927 103.649 24.2911C103.595 24.4896 103.381 24.5617 103.148 24.4535Z" fill="white"/>
<path d="M102.898 25.825C102.665 25.7167 102.522 25.4642 102.576 25.2477C102.629 25.0312 102.844 24.9591 103.077 25.0673C103.309 25.1755 103.435 25.4101 103.399 25.6265C103.345 25.861 103.13 25.9332 102.898 25.825Z" fill="white"/>
<path d="M102.665 27.3401C102.45 27.2319 102.325 26.9974 102.361 26.799C102.414 26.6005 102.611 26.5103 102.844 26.6186C103.058 26.7268 103.184 26.9433 103.148 27.1598C103.076 27.3401 102.879 27.4303 102.665 27.3401Z" fill="white"/>
<path d="M102.36 28.9637C102.163 28.8735 102.038 28.6389 102.092 28.4405C102.145 28.2421 102.342 28.1519 102.539 28.2421C102.736 28.3323 102.861 28.5668 102.807 28.7652C102.754 28.9637 102.575 29.0538 102.36 28.9637Z" fill="white"/>
<path d="M102.039 30.8206C101.842 30.7304 101.735 30.5139 101.788 30.3155C101.842 30.1171 102.021 30.0269 102.218 30.1171C102.414 30.2073 102.504 30.4237 102.468 30.6222C102.414 30.8026 102.235 30.8928 102.039 30.8206Z" fill="white"/>
<path d="M101.198 14.6939C101.502 14.8382 101.681 15.0908 101.627 15.2712C101.556 15.4516 101.269 15.4877 100.965 15.3433C100.661 15.199 100.482 14.9465 100.536 14.748C100.607 14.5857 100.894 14.5496 101.198 14.6939Z" fill="white"/>
<path d="M100.518 16.3177C100.786 16.444 100.947 16.6785 100.894 16.8589C100.822 17.0393 100.572 17.0754 100.285 16.9491C99.999 16.8228 99.8379 16.5883 99.9095 16.4079C99.9811 16.2456 100.249 16.2095 100.518 16.3177Z" fill="white"/>
<path d="M100.213 17.184C100.518 17.3283 100.714 17.5989 100.643 17.8153C100.571 18.0318 100.267 18.0859 99.9451 17.9416C99.623 17.7973 99.4441 17.5087 99.5157 17.3102C99.5872 17.0938 99.8914 17.0577 100.213 17.184Z" fill="white"/>
<path d="M99.0694 20.2864C99.3736 20.4308 99.5525 20.7014 99.4809 20.9539C99.3914 21.1884 99.0873 21.2786 98.7652 21.1343C98.4432 20.99 98.2821 20.7013 98.3537 20.4668C98.4432 20.2143 98.7473 20.1421 99.0694 20.2864Z" fill="white"/>
<path d="M96.2954 11.7C96.5817 11.8263 96.7427 12.0247 96.6533 12.169C96.5638 12.3133 96.2596 12.3314 95.9555 12.2231C95.6513 12.0968 95.5082 11.8984 95.5976 11.7361C95.705 11.6098 96.0091 11.5917 96.2954 11.7Z" fill="white"/>
<path d="M95.9195 23.5694C96.2237 23.6956 96.3847 23.9843 96.2774 24.2549C96.17 24.5074 95.848 24.6337 95.5259 24.5074C95.2217 24.3811 95.0607 24.0745 95.1681 23.8219C95.2933 23.5333 95.6154 23.4431 95.9195 23.5694Z" fill="white"/>
<path d="M93.7727 24.4349C94.0769 24.5612 94.22 24.8498 94.1127 25.1204C93.9874 25.391 93.6475 25.4992 93.3254 25.391C93.0034 25.2647 92.8602 24.9581 92.9855 24.7055C93.1107 24.4169 93.4507 24.3086 93.7727 24.4349Z" fill="white"/>
<path d="M98.1557 22.8303C98.4778 22.9746 98.6388 23.2812 98.5494 23.5518C98.442 23.8224 98.1199 23.9307 97.7979 23.7864C97.4758 23.642 97.2969 23.3173 97.4043 23.0467C97.5116 22.7942 97.8337 22.6859 98.1557 22.8303Z" fill="white"/>
<path d="M100.232 22.2349C100.536 22.3792 100.715 22.6678 100.643 22.9204C100.554 23.1729 100.268 23.2631 99.9634 23.1369C99.6592 22.9925 99.4803 22.6859 99.5519 22.4333C99.6234 22.1808 99.9276 22.0906 100.232 22.2349Z" fill="white"/>
<path d="M102.146 21.64C102.468 21.7843 102.647 22.109 102.593 22.3615C102.522 22.6321 102.218 22.7043 101.896 22.56C101.574 22.3976 101.377 22.0909 101.448 21.8204C101.52 21.5678 101.824 21.4956 102.146 21.64Z" fill="white"/>
<path d="M99.4625 19.1859C99.7488 19.3121 99.9098 19.5827 99.8383 19.7992C99.7667 20.0157 99.4804 20.0698 99.1763 19.9435C98.89 19.8172 98.7111 19.5467 98.8005 19.3302C98.89 19.1317 99.1584 19.0596 99.4625 19.1859Z" fill="white"/>
<path d="M102.898 13.8641C103.148 13.9903 103.309 14.2068 103.273 14.3511C103.22 14.4954 102.987 14.5135 102.737 14.3872C102.468 14.2609 102.307 14.0444 102.361 13.8821C102.397 13.7378 102.629 13.7378 102.898 13.8641Z" fill="white"/>
<path d="M97.6545 12.3312C97.8871 12.4394 98.0124 12.6018 97.9408 12.7281C97.8692 12.8543 97.6366 12.8724 97.404 12.7641C97.1714 12.6559 97.0462 12.4935 97.1177 12.3673C97.1893 12.259 97.4219 12.241 97.6545 12.3312Z" fill="white"/>
<path d="M98.8009 16.6419C99.0514 16.7502 99.1946 16.9667 99.123 17.129C99.0514 17.2914 98.8009 17.3274 98.5504 17.2192C98.3 17.111 98.1568 16.8945 98.2284 16.7321C98.3 16.5698 98.5504 16.5337 98.8009 16.6419Z" fill="white"/>
<path d="M97.0103 20.8091C97.3324 20.9535 97.4934 21.224 97.404 21.4766C97.2966 21.7291 96.9746 21.8013 96.6525 21.675C96.3304 21.5307 96.1694 21.2421 96.2589 21.0076C96.3662 20.7731 96.6883 20.6829 97.0103 20.8091Z" fill="white"/>
<path d="M99.8209 18.23C100.107 18.3563 100.268 18.6089 100.197 18.8073C100.125 19.0057 99.8567 19.0598 99.5704 18.9336C99.2841 18.8073 99.1231 18.5547 99.1947 18.3563C99.2662 18.1579 99.5346 18.1038 99.8209 18.23Z" fill="white"/>
<path d="M96.9038 16.9488C97.1901 17.0751 97.3511 17.3096 97.2617 17.508C97.1722 17.7064 96.868 17.7606 96.5639 17.6343C96.2597 17.508 96.1166 17.2735 96.206 17.0751C96.3134 16.8766 96.6175 16.8225 96.9038 16.9488Z" fill="white"/>
<path d="M91.894 25.355C92.1087 25.4452 92.1981 25.6436 92.1087 25.8421C92.0013 26.0405 91.7687 26.1307 91.5361 26.0405C91.3214 25.9503 91.2141 25.7519 91.3214 25.5534C91.4288 25.373 91.6793 25.2828 91.894 25.355Z" fill="white"/>
<path d="M98.1735 14.2973C98.4419 14.4236 98.5851 14.622 98.5135 14.7844C98.4419 14.9467 98.1735 14.9828 97.9052 14.8565C97.6368 14.7303 97.4936 14.5318 97.5652 14.3695C97.6368 14.2252 97.9052 14.1891 98.1735 14.2973Z" fill="white"/>
<path d="M104.06 14.4773C104.293 14.6036 104.436 14.784 104.4 14.9283C104.365 15.0546 104.168 15.0726 103.935 14.9644C103.703 14.8381 103.56 14.6577 103.595 14.5134C103.631 14.3871 103.846 14.3691 104.06 14.4773Z" fill="white"/>
<path d="M100.768 12.223C100.947 12.2951 101.054 12.4214 101.036 12.5116C101.018 12.6018 100.857 12.6198 100.679 12.5657C100.5 12.4936 100.392 12.3673 100.41 12.2771C100.446 12.1689 100.589 12.1508 100.768 12.223Z" fill="white"/>
<path d="M98.9076 12.8722C99.1044 12.9624 99.2296 13.1248 99.176 13.233C99.1223 13.3412 98.9255 13.3593 98.7108 13.2691C98.4961 13.1789 98.3887 13.0165 98.4424 12.9083C98.4961 12.8 98.7108 12.782 98.9076 12.8722Z" fill="white"/>
<path d="M98.3529 17.6341C98.6034 17.7424 98.7465 17.9588 98.6929 18.1392C98.6213 18.3196 98.3708 18.3557 98.1024 18.2475C97.834 18.1392 97.6909 17.9047 97.7625 17.7243C97.8519 17.562 98.1024 17.5259 98.3529 17.6341Z" fill="white"/>
<path d="M97.3508 16.0843C97.5834 16.1745 97.7086 16.373 97.6371 16.5173C97.5655 16.6616 97.3329 16.6977 97.1003 16.6075C96.8677 16.5173 96.7425 16.3188 96.814 16.1745C96.8856 16.0302 97.1182 15.9941 97.3508 16.0843Z" fill="white"/>
<path d="M95.3641 16.4089C95.6325 16.5171 95.7756 16.7336 95.6862 16.8959C95.5967 17.0583 95.3104 17.1124 95.042 17.0222C94.7737 16.914 94.6305 16.6975 94.72 16.5351C94.8094 16.3547 95.0957 16.3187 95.3641 16.4089Z" fill="white"/>
<path d="M94.4338 12.0063C94.6485 12.0784 94.7559 12.2228 94.6843 12.331C94.6127 12.4392 94.3801 12.4753 94.1654 12.4032C93.9507 12.331 93.8255 12.1867 93.9149 12.0784C94.0044 11.9702 94.2191 11.9341 94.4338 12.0063Z" fill="white"/>
<path d="M101.055 11.6284C101.234 11.7006 101.359 11.8268 101.341 11.9351C101.305 12.0253 101.144 12.0433 100.965 11.9712C100.768 11.899 100.643 11.7547 100.679 11.6645C100.697 11.5563 100.876 11.5563 101.055 11.6284Z" fill="white"/>
<path d="M101.717 13.3054C101.95 13.4137 102.093 13.6121 102.039 13.7384C101.986 13.8647 101.771 13.8827 101.538 13.7745C101.306 13.6662 101.163 13.4678 101.216 13.3415C101.27 13.2152 101.485 13.1972 101.717 13.3054Z" fill="white"/>
<path d="M101.986 12.6743C102.183 12.7825 102.308 12.9449 102.29 13.0531C102.254 13.1613 102.075 13.1794 101.86 13.0711C101.664 12.9629 101.52 12.8006 101.556 12.6923C101.592 12.5841 101.789 12.566 101.986 12.6743Z" fill="white"/>
<path d="M99.1394 15.8118C99.3541 15.902 99.4793 16.0824 99.4256 16.2267C99.372 16.371 99.1572 16.3891 98.9246 16.2989C98.7099 16.1907 98.5847 16.0283 98.6384 15.884C98.7099 15.7577 98.9246 15.7216 99.1394 15.8118Z" fill="white"/>
<path d="M100.195 13.4855C100.374 13.5757 100.482 13.702 100.446 13.8102C100.392 13.9184 100.231 13.9184 100.052 13.8463C99.8733 13.7561 99.766 13.6118 99.8018 13.5216C99.8555 13.4133 100.016 13.3953 100.195 13.4855Z" fill="white"/>
<path d="M97.476 19.7277C97.6907 19.8179 97.816 20.0163 97.7623 20.1787C97.6907 20.341 97.4581 20.3951 97.2434 20.3049C97.0108 20.2148 96.9035 20.0163 96.975 19.8359C97.0287 19.6916 97.2434 19.6375 97.476 19.7277Z" fill="white"/>
<path d="M101.413 14.0815C101.574 14.1537 101.663 14.28 101.645 14.3882C101.609 14.4784 101.466 14.4964 101.305 14.4243C101.144 14.3521 101.055 14.2078 101.073 14.1176C101.108 14.0094 101.251 14.0094 101.413 14.0815Z" fill="white"/>
<path d="M103.059 13.2507C103.238 13.3409 103.345 13.4852 103.327 13.5935C103.291 13.7017 103.148 13.7017 102.951 13.6115C102.772 13.5213 102.647 13.3589 102.683 13.2687C102.719 13.1785 102.88 13.1605 103.059 13.2507Z" fill="white"/>
<path d="M96.761 13.7746C96.9757 13.8648 97.1009 14.0272 97.0473 14.1534C96.9757 14.2797 96.761 14.3158 96.5284 14.2256C96.2958 14.1354 96.1884 13.9731 96.2421 13.8468C96.2958 13.7205 96.5284 13.7025 96.761 13.7746Z" fill="white"/>
<path d="M91.93 10.257C92.1089 10.3111 92.1984 10.4194 92.1268 10.5096C92.0553 10.5817 91.8585 10.6178 91.6795 10.5637C91.5006 10.5096 91.4111 10.4013 91.4827 10.3111C91.5364 10.2209 91.7332 10.2029 91.93 10.257Z" fill="white"/>
<path d="M93.8078 15.8677C94.0583 15.9579 94.1835 16.1383 94.0941 16.3006C94.0046 16.4449 93.7362 16.499 93.4678 16.4269C93.2174 16.3367 93.0742 16.1563 93.1816 15.9939C93.271 15.8316 93.5394 15.7775 93.8078 15.8677Z" fill="white"/>
<path d="M91.3571 26.7808C91.5539 26.8529 91.6434 27.0514 91.536 27.2498C91.4287 27.4302 91.1961 27.5204 90.9993 27.4482C90.8024 27.3761 90.713 27.1776 90.8203 26.9792C90.9277 26.7988 91.1603 26.7086 91.3571 26.7808Z" fill="white"/>
<path d="M89.7823 27.6115C89.9613 27.6656 90.0328 27.846 89.9434 28.0084C89.8539 28.1707 89.6392 28.2429 89.4603 28.1888C89.2814 28.1347 89.2098 27.9543 89.2993 27.7919C89.3887 27.6296 89.6034 27.5574 89.7823 27.6115Z" fill="white"/>
<path d="M95.3654 24.9759C95.5979 25.0661 95.7053 25.3006 95.6337 25.499C95.5443 25.6975 95.2938 25.7877 95.0612 25.6975C94.8286 25.6073 94.7212 25.3728 94.8107 25.1563C94.8823 24.9579 95.1328 24.8857 95.3654 24.9759Z" fill="white"/>
<path d="M93.2003 25.8967C93.4329 25.9869 93.5403 26.2214 93.4687 26.4199C93.3792 26.6183 93.1287 26.7085 92.8961 26.6183C92.6635 26.5281 92.5562 26.2936 92.6457 26.0771C92.7172 25.8967 92.9677 25.8065 93.2003 25.8967Z" fill="white"/>
<path d="M95.8479 15.561C96.0089 15.6331 96.1163 15.7594 96.0626 15.8676C96.0089 15.9759 95.83 15.9939 95.6511 15.9398C95.4722 15.8676 95.3827 15.7414 95.4364 15.6331C95.5079 15.5249 95.6869 15.4888 95.8479 15.561Z" fill="white"/>
<path d="M100.286 10.7261C100.429 10.7802 100.518 10.8704 100.5 10.9606C100.465 11.0327 100.339 11.0327 100.196 10.9786C100.053 10.9245 99.9458 10.8163 99.9815 10.7441C100.017 10.672 100.143 10.672 100.286 10.7261Z" fill="white"/>
<path d="M97.6378 24.2556C97.8346 24.3458 97.942 24.5262 97.8704 24.7066C97.7989 24.869 97.6021 24.9411 97.4052 24.869C97.2084 24.7788 97.1011 24.5803 97.1726 24.418C97.2442 24.2376 97.441 24.1654 97.6378 24.2556Z" fill="white"/>
<path d="M99.7655 23.5331C99.9445 23.6233 100.052 23.8037 99.9981 23.966C99.9445 24.1284 99.7655 24.1825 99.5687 24.1103C99.3898 24.0201 99.2825 23.8398 99.3361 23.6774C99.3898 23.497 99.5687 23.4429 99.7655 23.5331Z" fill="white"/>
<path d="M101.735 23.0823C101.914 23.1725 102.003 23.3349 101.967 23.4972C101.931 23.6415 101.753 23.6957 101.574 23.6235C101.395 23.5333 101.287 23.3529 101.341 23.2086C101.395 23.0462 101.556 23.0102 101.735 23.0823Z" fill="white"/>
<path d="M92.108 15.4155C92.269 15.4696 92.3585 15.5778 92.3048 15.6861C92.2332 15.7763 92.0543 15.8124 91.8754 15.7763C91.6965 15.7222 91.6249 15.6139 91.6786 15.5057C91.7501 15.3974 91.9291 15.3614 92.108 15.4155Z" fill="white"/>
<path d="M93.2176 16.6612C93.4144 16.7334 93.5218 16.8777 93.4502 17.022C93.3787 17.1483 93.164 17.2024 92.9492 17.1302C92.7345 17.0581 92.6451 16.9138 92.7166 16.7695C92.8061 16.6432 93.0208 16.5891 93.2176 16.6612Z" fill="white"/>
<path d="M94.8277 17.3825C95.0066 17.4546 95.0961 17.599 95.0424 17.7072C94.9708 17.8335 94.7919 17.8695 94.613 17.7974C94.4341 17.7252 94.3446 17.5809 94.3983 17.4727C94.452 17.3464 94.6488 17.3103 94.8277 17.3825Z" fill="white"/>
<path d="M96.4021 18.0137C96.5631 18.0859 96.6526 18.2121 96.5989 18.3204C96.5452 18.4286 96.3842 18.4647 96.2232 18.3925C96.0621 18.3204 95.9727 18.1941 96.0263 18.0859C96.08 17.9957 96.2411 17.9596 96.4021 18.0137Z" fill="white"/>
<path d="M97.9233 18.6634C98.0843 18.7355 98.1559 18.8618 98.1201 18.9701C98.0664 19.0783 97.9233 19.1144 97.7622 19.0422C97.6012 18.9701 97.5117 18.8438 97.5654 18.7175C97.6012 18.6273 97.7622 18.5912 97.9233 18.6634Z" fill="white"/>
<path d="M101.323 11.1401C101.466 11.1943 101.555 11.2845 101.537 11.3746C101.52 11.4468 101.394 11.4648 101.251 11.3927C101.108 11.3386 101.019 11.2484 101.036 11.1582C101.054 11.086 101.18 11.086 101.323 11.1401Z" fill="white"/>
<path d="M100.571 10.2568C100.696 10.3109 100.786 10.4011 100.768 10.4552C100.75 10.5274 100.643 10.5274 100.517 10.4733C100.392 10.4192 100.303 10.329 100.321 10.2568C100.339 10.2207 100.446 10.2027 100.571 10.2568Z" fill="white"/>
<path d="M99.8013 9.51709C99.9086 9.57121 99.9981 9.64337 99.9802 9.69749C99.9623 9.76964 99.855 9.76964 99.7476 9.71552C99.6403 9.66141 99.5508 9.58925 99.5687 9.53513C99.5866 9.46297 99.676 9.46297 99.8013 9.51709Z" fill="white"/>
<path d="M102.182 12.1518C102.325 12.2239 102.432 12.3502 102.396 12.4404C102.36 12.5306 102.235 12.5306 102.074 12.4404C101.931 12.3682 101.824 12.242 101.859 12.1518C101.895 12.0796 102.038 12.0796 102.182 12.1518Z" fill="white"/>
<path d="M91.5537 16.1739C91.7326 16.2281 91.8042 16.3543 91.7505 16.4626C91.679 16.5708 91.5001 16.6069 91.3211 16.5528C91.1422 16.4986 91.0527 16.3724 91.1243 16.2641C91.1959 16.1739 91.3748 16.1198 91.5537 16.1739Z" fill="white"/>
<path d="M89.997 15.7404C90.158 15.7765 90.2296 15.8847 90.1759 15.9929C90.1044 16.0831 89.9254 16.1192 89.7644 16.0831C89.6034 16.029 89.5139 15.9388 89.5855 15.8306C89.6571 15.7404 89.836 15.7043 89.997 15.7404Z" fill="white"/>
<path d="M103.22 15.1625C103.166 15.3428 103.327 15.5774 103.596 15.7578C103.274 15.6495 103.023 15.7036 102.952 15.9021C102.898 16.0825 103.023 16.317 103.256 16.5154C102.988 16.4613 102.773 16.5335 102.719 16.7319C102.665 16.9484 102.826 17.237 103.131 17.4535C102.791 17.3452 102.522 17.4174 102.451 17.6519C102.397 17.8503 102.504 18.0848 102.719 18.3013C102.451 18.2652 102.236 18.3554 102.182 18.5719C102.111 18.8064 102.254 19.077 102.522 19.2935C102.218 19.2394 101.968 19.3476 101.896 19.5821C101.807 19.9068 102.075 20.3217 102.504 20.5202C102.862 20.6825 103.184 20.6464 103.345 20.466C103.381 20.7547 103.632 21.0613 103.972 21.2237C104.276 21.368 104.544 21.35 104.705 21.2237C104.795 21.4762 105.009 21.7288 105.313 21.8731C105.6 22.0174 105.868 22.0174 106.029 21.8731C106.119 22.1257 106.351 22.3782 106.638 22.5225C106.942 22.6668 107.192 22.6488 107.353 22.5045C107.443 22.7751 107.675 23.0457 107.962 23.19C108.373 23.3884 108.713 23.2982 108.749 22.9555C108.767 22.7029 108.606 22.3963 108.355 22.1617C108.624 22.2159 108.82 22.1076 108.838 21.8551C108.856 21.6386 108.713 21.368 108.498 21.1696C108.731 21.1876 108.892 21.0974 108.91 20.8809C108.928 20.6284 108.731 20.3217 108.445 20.1052C108.749 20.2135 108.981 20.1233 108.999 19.8888C109.017 19.6903 108.874 19.4378 108.641 19.2394C108.874 19.2935 109.053 19.2033 109.071 19.0229C109.089 18.8064 108.892 18.5178 108.606 18.3194C108.874 18.4095 109.071 18.3554 109.089 18.175C109.107 17.9586 108.874 17.6519 108.552 17.4895C108.284 17.3452 108.051 17.3452 107.962 17.4895C107.926 17.2911 107.711 17.0566 107.443 16.8942C107.174 16.7499 106.96 16.7499 106.852 16.8762C106.799 16.6597 106.584 16.4072 106.298 16.2448C105.993 16.0825 105.725 16.1005 105.618 16.2268C105.582 16.0283 105.385 15.8119 105.117 15.6676C104.795 15.5052 104.508 15.5052 104.455 15.7217C104.508 15.5052 104.276 15.2346 103.936 15.0723C103.596 14.946 103.292 14.964 103.22 15.1625ZM107.461 21.4221C107.622 21.5123 107.729 21.6747 107.711 21.801C107.693 21.9272 107.55 21.9633 107.389 21.8912C107.228 21.801 107.121 21.6386 107.138 21.5123C107.174 21.368 107.3 21.35 107.461 21.4221ZM106.208 20.8088C106.351 20.8809 106.441 21.0253 106.441 21.1335C106.423 21.2417 106.298 21.2778 106.154 21.2057C106.011 21.1335 105.904 20.9892 105.922 20.8629C105.94 20.7547 106.065 20.7366 106.208 20.8088ZM104.92 20.1594C105.063 20.2315 105.17 20.3758 105.135 20.4841C105.117 20.5923 104.974 20.6284 104.83 20.5562C104.687 20.4841 104.58 20.3398 104.616 20.2315C104.651 20.1233 104.777 20.0872 104.92 20.1594ZM103.775 19.8166C103.739 19.9429 103.596 19.979 103.417 19.8888C103.256 19.7986 103.149 19.6362 103.166 19.528C103.202 19.4017 103.345 19.3837 103.524 19.4558C103.703 19.528 103.793 19.6903 103.775 19.8166ZM107.622 20.5202C107.765 20.5923 107.854 20.7366 107.854 20.8449C107.836 20.9531 107.729 20.9892 107.586 20.917C107.443 20.8449 107.353 20.7006 107.353 20.5923C107.371 20.466 107.496 20.448 107.622 20.5202ZM103.757 18.5539C103.9 18.626 103.989 18.7703 103.972 18.8605C103.954 18.9688 103.811 18.9868 103.667 18.9147C103.524 18.8425 103.435 18.6982 103.453 18.608C103.471 18.5178 103.596 18.4997 103.757 18.5539ZM107.747 19.5821C107.89 19.6543 107.979 19.7805 107.962 19.8888C107.944 19.997 107.836 20.0151 107.693 19.9429C107.55 19.8707 107.461 19.7264 107.478 19.6362C107.496 19.528 107.604 19.51 107.747 19.5821ZM103.972 17.6519C104.115 17.7241 104.204 17.8503 104.186 17.9586C104.168 18.0488 104.025 18.0848 103.882 18.0127C103.739 17.9405 103.65 17.8142 103.667 17.706C103.703 17.6158 103.828 17.5797 103.972 17.6519ZM107.836 18.6982C107.962 18.7703 108.069 18.8966 108.051 18.9868C108.033 19.095 107.926 19.095 107.801 19.0409C107.657 18.9688 107.568 18.8425 107.586 18.7523C107.604 18.6441 107.711 18.626 107.836 18.6982ZM104.186 16.804C104.329 16.8762 104.419 16.9844 104.401 17.0927C104.383 17.1829 104.258 17.2009 104.115 17.1287C103.972 17.0566 103.882 16.9303 103.9 16.8401C103.918 16.7499 104.043 16.7499 104.186 16.804ZM107.89 17.7782C108.033 17.8503 108.14 17.9946 108.123 18.0848C108.105 18.175 107.997 18.1931 107.854 18.1209C107.711 18.0488 107.604 17.9044 107.622 17.8142C107.639 17.7241 107.747 17.706 107.89 17.7782ZM106.763 17.2009C106.888 17.2731 106.977 17.3813 106.977 17.4715C106.96 17.5617 106.852 17.5797 106.727 17.5076C106.602 17.4354 106.512 17.3272 106.512 17.237C106.53 17.1468 106.638 17.1468 106.763 17.2009ZM105.618 16.6236C105.743 16.6958 105.832 16.804 105.814 16.8942C105.797 16.9844 105.689 16.9844 105.546 16.9303C105.421 16.8582 105.331 16.7499 105.349 16.6597C105.385 16.5515 105.492 16.5515 105.618 16.6236ZM104.383 15.9562C104.526 16.0283 104.634 16.1546 104.616 16.2629C104.598 16.3531 104.455 16.3711 104.312 16.2989C104.168 16.2268 104.061 16.0825 104.079 15.9923C104.097 15.9021 104.24 15.884 104.383 15.9562Z" fill="white"/>
</g>
</svg>
