<svg width="106" height="49" viewBox="0 0 106 49" fill="none" xmlns="http://www.w3.org/2000/svg">
<path d="M86.3496 30.5853L84.0234 28.1837C83.9865 28.1517 83.9627 28.1072 83.9565 28.0587C83.9503 28.0102 83.9622 27.9611 83.9899 27.9208L85.7649 24.9326C85.8047 24.852 85.8082 24.7917 85.8082 24.7653C85.8083 24.6746 85.7723 24.5875 85.7082 24.5233C85.6441 24.4591 85.5571 24.4229 85.4664 24.4227H84.1661C84.1033 24.4221 84.0414 24.4383 83.987 24.4697C83.9325 24.501 83.8874 24.5464 83.8564 24.601L82.7311 26.5437C82.6799 26.6174 82.5679 26.6371 82.4866 26.5815L80.6699 24.7119L80.6279 24.6005L80.6854 24.4712L80.7072 24.4521C81.7342 23.8547 82.9048 22.9772 82.9048 21.429C82.9048 19.6521 81.6294 18.4596 79.7313 18.4596C77.8712 18.4596 76.4615 19.7043 76.4615 21.5616C76.4615 22.3798 76.8031 23.1937 77.5054 24.0518L77.5228 24.0708L77.5574 24.1973C77.555 24.2207 77.5479 24.2433 77.5366 24.264C77.5253 24.2846 77.51 24.3028 77.4916 24.3175C75.9437 25.1966 75.1642 26.3608 75.1642 27.7853C75.1642 30.2014 77.1855 31.4668 79.1853 31.4668C80.5567 31.4668 81.6258 30.9402 82.6572 29.7565L82.6762 29.7307C82.7389 29.6715 82.8526 29.6715 82.9227 29.7414L84.1715 31.0344L84.2038 31.0685C84.271 31.1338 84.3581 31.1681 84.4481 31.1681L85.981 31.1701H86.1001C86.1914 31.17 86.279 31.1338 86.3438 31.0694C86.4086 31.005 86.4453 30.9176 86.446 30.8262C86.4465 30.7364 86.4119 30.6499 86.3496 30.5853V30.5853ZM79.7635 20.2517C80.5433 20.2517 80.9646 20.7899 80.9646 21.4472C80.9646 22.2155 80.2783 22.661 79.4521 23.122L79.4104 23.1424C79.3774 23.1595 79.3397 23.1654 79.303 23.1592C79.2664 23.153 79.2327 23.1351 79.2071 23.1081L79.1892 23.0888C78.8298 22.696 78.4054 22.071 78.4054 21.6185C78.4061 20.8502 78.9558 20.2517 79.7635 20.2517V20.2517ZM81.4305 28.456L81.4253 28.4645C80.8244 29.179 80.1658 29.6565 79.206 29.6565C78.068 29.6565 77.1772 28.8383 77.1772 27.7954C77.1772 26.8706 77.5727 26.3202 78.7424 25.6142C78.8236 25.5668 78.9154 25.5764 78.9718 25.6334L81.4137 28.1885C81.4576 28.2307 81.477 28.2739 81.479 28.3226L81.4799 28.3262L81.4305 28.456V28.456ZM73.6254 29.6331L73.5516 29.635C71.685 29.635 70.7384 28.645 70.7384 26.695V20.9461C70.7384 20.8462 70.8195 20.7647 70.9211 20.7647H73.847C73.9392 20.7647 74.0278 20.7282 74.0932 20.6631C74.1586 20.5981 74.1956 20.5097 74.196 20.4175V19.1418C74.1959 19.0493 74.159 18.9606 74.0936 18.8952C74.0282 18.8298 73.9395 18.793 73.847 18.7929H70.9294C70.9043 18.7931 70.8795 18.7883 70.8564 18.7788C70.8332 18.7693 70.8121 18.7553 70.7944 18.7377C70.7766 18.72 70.7625 18.699 70.7529 18.6759C70.7433 18.6528 70.7384 18.628 70.7384 18.603V15.9608C70.7446 15.7746 70.5953 15.6107 70.4039 15.602H70.3631L68.866 15.7182C68.6831 15.7182 68.5254 15.8744 68.5254 16.0659V18.6107C68.5254 18.6347 68.5205 18.6584 68.5113 18.6806C68.502 18.7027 68.4885 18.7227 68.4714 18.7396C68.4544 18.7565 68.4342 18.7698 68.4119 18.7788C68.3897 18.7878 68.3659 18.7924 68.342 18.7922L66.5056 18.7903C66.4132 18.7903 66.3245 18.8269 66.259 18.8921C66.1935 18.9572 66.1565 19.0457 66.156 19.1381L66.1521 20.4225C66.156 20.5176 66.1947 20.6048 66.2622 20.6669C66.3302 20.732 66.4196 20.766 66.5133 20.7639H68.3438C68.3921 20.7638 68.4385 20.7828 68.4729 20.8168C68.5072 20.8508 68.5266 20.897 68.5269 20.9454L68.5258 27.0791C68.5258 30.371 71.0035 31.5449 73.1775 31.5449C73.1775 31.5449 73.434 31.5497 73.6305 31.5298C73.8276 31.5119 73.9755 31.3744 73.9755 31.183V29.9788C73.9748 29.8866 73.9376 29.7984 73.8719 29.7336C73.8063 29.6688 73.7176 29.6326 73.6254 29.6331V29.6331ZM65.2462 30.6706C65.1273 30.3367 65.0947 29.9692 65.086 29.8081C65.0796 29.689 65.0746 29.2055 65.0746 29.2055L65.0753 23.1315C65.0753 19.9235 62.8051 18.7817 60.6814 18.7817C58.9997 18.7817 57.4662 19.2223 56.479 19.8808C56.4017 19.932 56.3468 20.0108 56.3254 20.1011C56.3064 20.1907 56.3254 20.2805 56.375 20.3564L57.1568 21.414C57.2107 21.4869 57.2911 21.5357 57.3806 21.5498C57.4701 21.564 57.5617 21.5425 57.6354 21.4898L57.7405 21.4211C58.512 20.9407 59.4234 20.6649 60.3508 20.6649C62.9708 20.6649 62.8943 22.7163 62.8943 22.9831C62.8943 23.119 62.8121 23.1527 62.7134 23.1509L62.3093 23.1424C60.2769 23.0676 55.1179 23.7603 55.1179 27.8494C55.1179 30.2504 57.1207 31.4758 58.988 31.4758C60.7974 31.4758 62.2534 30.7575 62.9791 29.878L62.9878 29.8686L63.0243 29.8494L63.0708 29.897C63.0698 30.0083 63.0708 30.2624 63.0945 30.4835C63.1117 30.6835 63.137 30.8316 63.1703 30.9404C63.2006 31.0364 63.2632 31.1319 63.3553 31.1784C63.3995 31.2011 63.4491 31.2142 63.5011 31.2162L64.9527 31.2173C65.141 31.2173 65.2946 31.0652 65.2946 30.883C65.2947 30.824 65.2462 30.6706 65.2462 30.6706V30.6706ZM62.9882 25.9149C62.6919 28.0119 61.6597 29.2214 59.754 29.5334C58.4128 29.7541 57.1966 29.2017 57.1308 27.7652C57.0578 26.1865 58.8925 24.8608 62.2783 25.0063C62.2783 25.0063 62.5276 25.0209 62.6943 25.0413C62.8431 25.0574 62.9343 25.1044 62.9906 25.1923C63.0448 25.2759 63.0551 25.4427 62.9882 25.9149V25.9149ZM93.3292 29.6331L93.2562 29.635C91.3888 29.635 90.4417 28.645 90.4417 26.695V20.9461C90.442 20.8978 90.4614 20.8516 90.4957 20.8176C90.5299 20.7836 90.5763 20.7646 90.6246 20.7647H93.5505C93.7441 20.7647 93.9008 20.6085 93.9008 20.4175V19.1418C93.9004 19.0491 93.8633 18.9604 93.7977 18.895C93.732 18.8296 93.6431 18.7929 93.5505 18.7929H90.6343C90.6092 18.7932 90.5842 18.7886 90.5609 18.7792C90.5375 18.7698 90.5163 18.7558 90.4984 18.7382C90.4805 18.7205 90.4662 18.6995 90.4565 18.6763C90.4468 18.6531 90.4417 18.6282 90.4417 18.603V15.9608C90.4502 15.7746 90.3002 15.6107 90.1078 15.602H90.0679L88.5706 15.7182C88.3858 15.7182 88.2287 15.8744 88.2287 16.0659V18.6107C88.2286 18.6589 88.2095 18.705 88.1754 18.7391C88.1413 18.7731 88.0951 18.7922 88.047 18.7922L86.2085 18.7903C86.1163 18.7906 86.0279 18.8273 85.9627 18.8924C85.8974 18.9576 85.8606 19.0459 85.8602 19.1381L85.8573 20.4225C85.8611 20.5176 85.8995 20.6048 85.9657 20.6669C86.0326 20.732 86.1209 20.766 86.2164 20.7639H88.047C88.0951 20.7641 88.1412 20.7832 88.1753 20.8172C88.2094 20.8512 88.2286 20.8972 88.2289 20.9454V27.0791C88.2289 30.371 90.7066 31.5449 92.8799 31.5449C92.8799 31.5449 93.1375 31.5497 93.3348 31.5298C93.5308 31.5119 93.6775 31.3744 93.6775 31.183V29.9788C93.679 29.7873 93.5226 29.6331 93.3292 29.6331V29.6331ZM48.5813 21.252C48.5813 20.954 48.5433 20.3624 48.403 19.7557C48.3057 19.3495 48.1938 18.9469 48.0676 18.5486C48.2867 19.2948 48.2553 19.8218 48.2553 20.0216C48.2553 20.9361 47.1162 26.5155 35.972 27.5312C35.0066 27.6156 27.926 27.7272 21.7678 26.1705C17.6705 25.1354 13.559 23.1308 12.7811 20.3476C12.6598 19.9139 12.7164 19.5133 12.8093 19.141C12.4922 20.2714 12.2847 21.4298 12.1898 22.6C12.259 25.527 14.8041 28.9382 19.4606 30.4118C24.7842 32.0861 28.0523 32.1422 35.7895 30.4165C48.7025 27.5362 48.5813 21.8818 48.5813 21.252V21.252ZM19.8611 36.8267C16.8176 35.5674 14.711 33.4739 13.8668 31.9456C14.6415 33.5896 15.6546 35.1102 16.8734 36.4583C20.8402 40.187 26.9376 40.6389 29.7396 40.6389C41.5976 40.6389 45.8306 34.4067 46.7903 32.7379C46.968 32.403 47.1345 32.0622 47.2896 31.7162C45.4153 35.5816 35.6829 43.3622 19.8611 36.8267V36.8267ZM32.7643 34.3831C29.175 34.51 22.858 33.2741 18.8776 31.6464C15.6759 30.3424 12.5062 27.7971 12.1699 25.3675C12.2072 25.9454 12.2726 26.5211 12.3659 27.0926C14.3285 37.7995 27.8191 37.189 30.1403 36.9327C47.1074 35.0489 48.5662 27.8056 48.7904 26.3748C48.8227 26.0752 48.8549 25.7781 48.8785 25.4744C48.5763 27.3817 45.7091 33.9175 32.7643 34.3831ZM17.424 12.732C17.424 14.4097 19.8611 17.0892 26.9328 17.0892C31.1237 17.0892 34.5077 16.2782 37.0622 15.4302C41.1597 14.0689 43.1864 12.4045 43.1124 11.1657C43.103 10.9749 43.0282 10.6622 42.8008 10.4147C41.889 9.59604 40.8969 8.87145 39.8395 8.25195C40.5398 8.65759 40.9357 9.13329 40.9357 9.66006C40.9357 11.5055 36.4233 13.1977 30.5302 13.3517C24.6382 13.5007 19.7545 12.0507 19.6227 10.2101C19.581 9.59903 20.0188 8.99814 20.8536 8.46639C20.2185 8.85836 19.6085 9.28954 19.027 9.75741C17.386 11.1181 17.424 12.5543 17.424 12.732V12.732ZM13.6337 17.9431C13.6337 17.1553 13.7453 16.6051 13.9547 16.1106C14.3141 15.3789 14.7149 14.6706 15.1631 13.995C15.0466 14.1855 14.9813 14.4043 14.9813 14.6654C14.9813 16.3763 19.1715 18.6002 24.8919 19.3269C26.8307 19.5741 31.9627 20.274 35.934 19.9471C43.9563 19.2852 45.7367 16.4837 45.7367 14.6654C45.7367 14.1668 45.4677 13.44 45.1967 13.0163C45.562 13.5001 45.9041 14.001 46.222 14.5172C46.838 15.5847 46.7582 16.0086 46.7582 16.195C46.7582 19.9141 39.8353 22.3389 35.2074 23.6065C23.3245 26.8508 13.6337 22.427 13.6337 17.9431" fill="#7C7A7A"/>
</svg>
