<svg width="117" height="49" viewBox="0 0 117 49" fill="none" xmlns="http://www.w3.org/2000/svg">
<path d="M11.9903 21.6515V25.6158C11.9903 28.1307 14.0378 30.1694 16.5636 30.1694C18.5411 30.1694 20.2254 28.9197 20.8635 27.1702H26.1775C25.4305 31.7864 21.4106 35.3122 16.5636 35.3122C11.1852 35.3122 6.8252 30.971 6.8252 25.6158V21.6515C6.8252 16.2963 11.1852 11.9551 16.5636 11.9551C21.5231 11.9551 25.6166 15.6464 26.2242 20.4202H20.9677C20.4284 18.5035 18.6608 17.0979 16.5636 17.0979C14.0378 17.0979 11.9903 19.1366 11.9903 21.6515Z" fill="#7C7A7A"/>
<path d="M29.9606 34.3479H34.3725V15.3836L40.2909 34.3479H45.456L51.1591 15.3836V34.3479H55.571V12.2765H48.1462L42.981 30.2765L37.1703 12.2765H29.9606V34.3479Z" fill="#7C7A7A"/>
<path fill-rule="evenodd" clip-rule="evenodd" d="M60.5478 12.2765V34.3479H65.0673V26.5868H70.1215C74.0902 26.5868 77.3076 23.3833 77.3076 19.4317C77.3076 15.48 74.0902 12.2765 70.1215 12.2765H60.5478ZM65.0673 22.3011H70.1215C71.7131 22.3011 73.0033 21.0164 73.0033 19.4317C73.0033 17.8469 71.7131 16.5622 70.1215 16.5622H65.0673V22.3011Z" fill="#7C7A7A"/>
<path fill-rule="evenodd" clip-rule="evenodd" d="M80.6434 34.2408H76.1239L83.5488 12.2765H89.6823L97.3224 34.2408H92.6953L91.0009 28.8836H82.2783L80.6434 34.2408ZM86.5617 14.8479L89.8149 25.1336H83.4227L86.5617 14.8479Z" fill="#7C7A7A"/>
<path d="M102.918 26.8488H110.343V34.2416H102.918V26.8488Z" fill="#7C7A7A"/>
</svg>
