<svg width="179" height="48" viewBox="0 0 179 48" fill="none" xmlns="http://www.w3.org/2000/svg">
<path d="M11.3356 13.6406C7.05024 13.6406 6.92482 13.912 7.13386 15.1854H8.55534C9.8932 15.1854 10.1859 15.3732 10.1859 16.5213V30.57C10.1859 32.5532 9.62145 32.7828 6.42312 32.9498C6.3186 33.3464 6.3186 33.8056 6.42312 34.1188H17.6277C26.1357 34.1188 29.6685 30.0064 29.6685 23.8901C29.6685 17.5233 25.9476 13.6615 17.356 13.6615L11.3356 13.6406ZM13.9277 30.3613V15.3941H17.0006C22.7283 15.3941 25.6967 18.7341 25.6967 24.4329C25.6967 30.8414 22.4566 32.4697 17.356 32.4697C14.5757 32.4905 13.9277 32.1774 13.9277 30.3613ZM42.9008 13.8494C41.5002 13.8494 41.103 14.3295 40.1205 16.6257L34.2256 30.57C33.4103 32.4697 33.1595 32.6575 30.86 32.9498C30.7764 33.3464 30.7764 33.8056 30.86 34.1188H39.3889C40.1414 34.1188 40.3505 33.6386 40.1414 32.7828H37.5911C35.9606 32.7828 35.9606 32.3444 36.6296 30.5909L37.842 27.3553H45.5347L47.4161 31.8434C47.7505 32.6158 47.4161 32.8871 44.1759 32.9706C44.0923 33.3673 44.0923 33.8474 44.1759 34.1396H53.8336C54.6071 34.1396 54.7952 33.6595 54.6071 32.8036H53.9173C52.3913 32.8036 52.0777 32.5323 51.7432 31.7599L44.8658 16.083C44.385 15.0392 44.1759 14.5382 44.0923 13.8911L42.9008 13.8494ZM41.5838 17.9617L44.824 25.7062H38.4691L41.5838 17.9617ZM57.8263 14.246C56.5721 14.246 56.4048 14.8096 56.5721 15.582H57.9936C59.3732 15.582 59.6241 15.7698 59.6241 16.8345V31.0502C59.6241 32.2609 59.0597 32.574 56.6766 32.9498C56.5512 33.3464 56.5512 33.8056 56.6766 34.1188H65.7281C66.627 34.1188 66.7106 33.6386 66.5015 32.7828H64.9128C63.6586 32.7828 63.3659 32.574 63.3659 31.5303V17.3981C63.3659 16.1456 63.7422 15.582 66.3343 15.3941C66.4179 15.1019 66.4179 14.4965 66.3343 14.2251L57.8263 14.246ZM93.5933 14.246L86.7158 28.5661L79.2321 14.246H73.2117C71.9784 14.246 71.7903 14.8931 71.9784 15.582C74.9259 15.6655 75.114 15.9995 75.0095 16.9597L73.7971 30.9458C73.7134 32.1983 73.4417 32.7828 70.1597 32.9706C70.0761 33.3464 70.0761 33.743 70.1597 34.1188H79.922C80.7581 34.1188 80.8836 33.6386 80.6745 32.7828H79.0649C75.9084 32.7828 75.9084 32.4905 75.992 31.3215L76.9536 17.9617L85.1898 34.1814C85.8796 34.1814 86.1096 33.9935 86.6531 32.9289L93.8023 17.9199L95.1402 30.8832C95.2865 32.3444 94.8684 32.6575 92.3808 32.8036L90.7712 32.8871C90.6458 33.2629 90.6458 33.6595 90.7712 34.0353H101.286C102.122 34.0353 102.206 33.5551 102.122 32.6993C99.8227 32.407 99.3419 32.3235 99.2583 31.3633L97.8159 16.8345C97.7323 15.9786 97.8995 15.4985 100.68 15.3106C100.805 14.9349 100.805 14.5382 100.68 14.1625L93.5933 14.246ZM107.85 14.246C106.596 14.246 106.428 14.8096 106.596 15.582H108.017C109.271 15.582 109.648 15.7698 109.648 16.8345V30.4657C109.648 32.407 109 32.7828 106.094 32.9706C105.989 33.3673 106.031 33.743 106.094 34.1396H120.622C120.999 32.3027 121.542 30.57 122.169 28.7748C122.483 27.8981 122.086 27.5223 121.27 27.5223H121.166L120.33 29.3593C119.075 32.0313 118.783 32.1774 116.567 32.1774H114.665C113.828 32.1774 113.306 31.906 113.306 30.9249V17.7738C113.306 15.8325 113.891 15.582 117.027 15.3941C117.11 15.1019 117.11 14.4965 117.027 14.2251L107.85 14.246ZM127.144 14.246C125.827 14.246 125.723 14.8096 125.827 15.582H127.249C128.587 15.582 128.858 15.7698 128.858 16.8345V30.5909C128.858 32.574 128.294 32.7828 125.138 32.9706C125.012 33.3673 125.012 33.743 125.138 34.1396H141.589C141.965 32.3027 142.551 30.4865 143.136 28.7748C143.429 27.919 143.031 27.5223 142.237 27.5223H142.133L141.296 29.3593C140.042 32.0313 139.75 32.1774 137.534 32.1774H134.983C132.956 32.1774 132.684 31.739 132.684 30.6535V25.414H135.82C136.593 25.414 136.99 25.6854 137.366 28.0025C137.513 28.0651 137.701 28.1068 137.889 28.1068C138.077 28.1068 138.286 28.0651 138.412 28.0025C138.328 26.0611 138.328 24.0989 138.412 22.1575C138.474 21.239 138.14 21.0303 137.555 21.0303H137.199L136.99 22.5541C136.907 23.3265 136.718 23.6188 135.82 23.6188H132.684V15.9786H137.45C139.081 15.9786 139.708 16.4587 140.209 18.2748L140.607 19.6108C140.69 19.6108 140.753 19.6108 140.816 19.6108C141.61 19.6108 141.903 19.1098 141.777 18.2539C141.568 16.9806 141.401 15.582 141.296 14.246H127.144ZM148.487 14.1416C147.275 14.2251 147.066 14.7887 147.275 15.5611H148.696C149.909 15.5611 150.348 15.749 150.348 16.918V30.6744C150.348 32.4905 149.742 32.7828 147.15 32.9706C147.066 33.3673 147.087 33.8056 147.15 34.1396H156.536C157.393 34.1396 157.497 33.6595 157.393 32.8036H155.867C154.32 32.8036 154.048 32.5114 154.048 31.6555V27.2718H156.055C157.873 27.2718 157.936 27.3762 158.668 28.7122C159.441 30.0899 160.507 31.2798 161.511 32.1357C163.706 34.0353 165.524 34.6406 168.305 34.6406C171.461 34.6406 172.214 33.8683 171.942 32.8245C169.35 32.8245 168.054 32.5532 164.124 29.4011C162.995 28.4826 160.758 26.4368 160.758 26.4368C163.225 25.3931 164.793 23.3683 164.793 20.8842C164.793 16.8136 161.636 14.0999 155.908 14.0999C151.748 14.0999 149.951 14.0999 148.529 14.2251L148.487 14.1416ZM154.09 15.8116H155.114C158.48 15.8116 160.863 17.0641 160.863 21.072C160.863 25.08 158.48 25.5601 155.532 25.5601H154.111L154.09 15.8116Z" fill="#7C7A7A"/>
</svg>
