<svg width="151" height="49" viewBox="0 0 151 49" fill="none" xmlns="http://www.w3.org/2000/svg">
<path d="M127.541 31.8001C127.541 30.1372 128.891 28.7881 130.553 28.7881C132.216 28.7881 133.564 30.1372 133.564 31.8001C133.564 33.463 132.216 34.8113 130.553 34.8113C128.891 34.8113 127.541 33.463 127.541 31.8001Z" fill="#7C7A7A"/>
<path d="M31.4819 23.8235C31.4819 21.9157 31.1133 20.5003 30.376 19.5781C29.6377 18.657 28.5197 18.1968 27.0161 18.1968H25.417V29.8632H26.6406C28.3104 29.8632 29.5341 29.368 30.3133 28.3745C31.0915 27.3828 31.4819 25.8654 31.4819 23.8235ZM37.1852 23.6246C37.1852 27.1004 36.251 29.7786 34.3824 31.6585C32.5138 33.5392 29.8871 34.4795 26.501 34.4795H19.9219V13.6527H26.9605C30.2251 13.6527 32.7456 14.5078 34.5218 16.2168C36.2972 17.9268 37.1852 20.3949 37.1852 23.6249V23.6246ZM55.4097 34.4794H60.6449V13.5652H55.4097V34.4794ZM67.9996 26.6783C67.9996 28.0117 68.1738 29.0288 68.5217 29.7277C68.8703 30.4277 69.4541 30.7771 70.2751 30.7771C71.0874 30.7771 71.6617 30.4277 71.9964 29.7277C72.331 29.0288 72.4975 28.0117 72.4975 26.6783C72.4975 25.3518 72.3284 24.3513 71.9895 23.6759C71.6495 22.9986 71.0699 22.6596 70.2481 22.6596C69.4445 22.6596 68.8703 22.997 68.5216 23.668C68.1739 24.34 67.9996 25.3431 67.9996 26.6783ZM77.826 26.6783C77.826 29.2188 77.1602 31.2007 75.825 32.6213C74.4908 34.0427 72.623 34.7539 70.2219 34.7539C67.9194 34.7539 66.0865 34.0271 64.726 32.5733C63.3639 31.1197 62.6832 29.1552 62.6832 26.6784C62.6832 24.1456 63.35 22.1776 64.6851 20.7746C66.0202 19.3713 67.8923 18.6698 70.3029 18.6698C71.7925 18.6698 73.1102 18.9949 74.2519 19.6442C75.3944 20.2933 76.2765 21.2234 76.8962 22.4349C77.5167 23.6445 77.826 25.0599 77.826 26.6783ZM79.9052 34.4794H85.1413V18.9444H79.9052V34.4794ZM79.9049 17.0652H85.1412V13.5645H79.9049V17.0652ZM95.7495 30.5171C96.4564 30.5171 97.2982 30.3375 98.2804 29.9811V33.8899C97.5744 34.2001 96.9034 34.4223 96.2654 34.5539C95.6275 34.6874 94.8788 34.7536 94.0221 34.7536C92.2642 34.7536 90.9971 34.3117 90.2187 33.4296C89.4439 32.5478 89.0553 31.1934 89.0553 29.3658V22.9616H87.2215V18.9458H89.0553V14.9785L94.3315 14.0608V18.9457H97.6722V22.9618H94.3315V29.0084C94.3315 30.0142 94.8048 30.5171 95.7495 30.5171ZM107.868 30.5171C108.575 30.5171 109.417 30.3375 110.399 29.9811V33.8899C109.694 34.2001 109.022 34.4223 108.384 34.5539C107.745 34.6874 106.999 34.7536 106.141 34.7536C104.383 34.7536 103.115 34.3117 102.339 33.4296C101.562 32.5478 101.174 31.1934 101.174 29.3658V22.9616H99.3392V18.9458H101.174V14.9184L106.449 14.0608V18.9457H109.791V22.9618H106.449V29.0084C106.449 30.0142 106.922 30.5171 107.868 30.5171ZM117.006 24.7858C117.077 23.9352 117.32 23.312 117.735 22.9138C118.152 22.5163 118.666 22.3176 119.281 22.3176C119.952 22.3176 120.486 22.5407 120.881 22.9904C121.28 23.4374 121.487 24.0363 121.504 24.7858H117.006ZM124.389 20.5013C123.145 19.2813 121.379 18.6702 119.095 18.6702C116.694 18.6702 114.846 19.3718 113.551 20.7749C112.257 22.1782 111.609 24.1913 111.609 26.8148C111.609 29.3552 112.309 31.3144 113.705 32.6897C115.102 34.0649 117.064 34.7534 119.59 34.7534C120.804 34.7534 121.848 34.6707 122.723 34.506C123.593 34.343 124.435 34.0484 125.251 33.6231L124.447 30.1221C123.853 30.3645 123.289 30.5509 122.755 30.6737C121.985 30.8526 121.139 30.9422 120.219 30.9422C119.21 30.9422 118.413 30.6957 117.829 30.2024C117.245 29.7082 116.934 29.0266 116.898 28.1586H126.257V25.7732C126.257 23.4785 125.635 21.7206 124.389 20.5013ZM44.1339 24.7858C44.2053 23.9352 44.4485 23.312 44.8633 22.9138C45.279 22.5163 45.794 22.3176 46.4103 22.3176C47.0796 22.3176 47.6131 22.5407 48.0096 22.9904C48.4078 23.4374 48.6144 24.0363 48.6327 24.7858H44.1339ZM51.5183 20.5013C50.2729 19.2813 48.508 18.6702 46.2229 18.6702C43.821 18.6702 41.9742 19.3718 40.6799 20.7749C39.3858 22.1782 38.7374 24.1913 38.7374 26.8148C38.7374 29.3552 39.4363 31.3144 40.8343 32.6897C42.2304 34.0649 44.1922 34.7534 46.7189 34.7534C47.932 34.7534 48.9761 34.6707 49.8511 34.506C50.7209 34.343 51.5628 34.0484 52.3803 33.6231L51.575 30.1221C50.9814 30.3645 50.4167 30.5509 49.8842 30.6737C49.1121 30.8526 48.2676 30.9422 47.3471 30.9422C46.3388 30.9422 45.5414 30.6957 44.9575 30.2024C44.3726 29.7082 44.0624 29.0266 44.0267 28.1586H53.3852V25.7732C53.3852 23.4785 52.763 21.7206 51.5183 20.5013Z" fill="#7C7A7A"/>
</svg>
