<svg width="874" height="132" viewBox="0 0 874 132" fill="none" xmlns="http://www.w3.org/2000/svg">
<g clip-path="url(#clip0)" filter="url(#filter0_i)">
<g clip-path="url(#clip1)">
<rect width="128" height="128" transform="translate(0 -0.000152588)" fill="url(#paint0_linear)"/>
<path opacity="0.6" d="M57.7204 47.64C57.7204 35.1141 67.8746 24.9599 80.4005 24.9599C92.9264 24.9599 103.081 35.1141 103.081 47.64C103.081 60.1658 92.9264 70.32 80.4005 70.32C76.8217 70.32 73.9205 67.4188 73.9205 63.84C73.9205 60.2612 76.8217 57.36 80.4005 57.36C85.7687 57.36 90.1205 53.0082 90.1205 47.64C90.1205 42.2717 85.7687 37.9199 80.4005 37.9199C75.0323 37.9199 70.6805 42.2717 70.6805 47.64C70.6805 51.2188 67.7793 54.12 64.2004 54.12C60.6216 54.12 57.7204 51.2188 57.7204 47.64ZM25.3203 80.0401C25.3203 67.5142 35.4745 57.36 48.0004 57.36C51.5792 57.36 54.4804 60.2612 54.4804 63.84C54.4804 67.4188 51.5792 70.32 48.0004 70.32C42.6322 70.32 38.2804 74.6718 38.2804 80.0401C38.2804 85.4083 42.6322 89.7601 48.0004 89.7601C53.3686 89.7601 57.7204 85.4083 57.7204 80.0401C57.7204 76.4612 60.6216 73.56 64.2004 73.56C67.7793 73.56 70.6805 76.4612 70.6805 80.0401C70.6805 92.5659 60.5262 102.72 48.0004 102.72C35.4745 102.72 25.3203 92.5659 25.3203 80.0401Z" fill="white"/>
<path d="M25.3203 47.64C25.3203 35.1141 35.4745 24.9599 48.0004 24.9599C60.5262 24.9599 70.6805 35.1141 70.6805 47.64V57.36H80.4005C92.9264 57.36 103.081 67.5142 103.081 80.0401C103.081 92.5659 92.9264 102.72 80.4005 102.72C67.8746 102.72 57.7204 92.5659 57.7204 80.0401V70.32H48.0004C35.4745 70.32 25.3203 60.1658 25.3203 47.64ZM57.7204 57.36V47.64C57.7204 42.2717 53.3686 37.9199 48.0004 37.9199C42.6322 37.9199 38.2804 42.2717 38.2804 47.64C38.2804 53.0082 42.6322 57.36 48.0004 57.36H57.7204ZM70.6805 70.32V80.0401C70.6805 85.4083 75.0323 89.7601 80.4005 89.7601C85.7687 89.7601 90.1205 85.4083 90.1205 80.0401C90.1205 74.6718 85.7687 70.32 80.4005 70.32H70.6805Z" fill="white"/>
</g>
</g>
<path d="M214.528 10.2H206.016L198.144 42.2L188.48 10.2H180.288L170.624 42.136L162.752 10.2H153.92L166.144 55H174.4L184.256 22.296L194.112 55H202.304L214.528 10.2ZM230.515 21.464C220.915 21.464 214.195 27.864 214.195 38.552C214.195 49.304 220.915 55.704 230.515 55.704C240.179 55.704 246.899 49.304 246.899 38.552C246.899 27.864 240.179 21.464 230.515 21.464ZM230.451 28.824C235.251 28.824 238.771 31.96 238.771 38.552C238.771 44.76 235.763 48.344 230.643 48.344C225.843 48.344 222.323 45.208 222.323 38.552C222.323 32.408 225.331 28.824 230.451 28.824ZM270.232 21.464C264.728 21.464 262.04 23.768 260.184 26.84V22.04H252.312V55H260.248V37.208C260.248 31.832 262.744 28.568 267.48 28.568C271.384 28.568 273.624 30.744 273.624 34.456V55H281.56V33.752C281.56 25.88 277.72 21.464 270.232 21.464ZM319.724 9.496H311.788V26.392C309.804 23.192 305.772 21.464 301.484 21.464C293.42 21.464 286.7 27.096 286.7 38.488C286.7 50.072 293.42 55.704 301.484 55.704C306.028 55.704 310.124 53.72 311.916 49.944V55H319.724V9.496ZM303.34 48.408C298.732 48.408 294.764 45.144 294.764 38.488C294.764 31.768 298.732 28.504 303.34 28.504C307.628 28.504 311.98 31.704 311.98 38.488C311.98 45.208 307.628 48.408 303.34 48.408ZM355.796 40.92V37.656C355.796 26.776 349.012 21.464 341.012 21.464C332.628 21.464 325.14 27.224 325.14 38.744C325.14 50.2 332.5 55.704 340.82 55.704C347.54 55.704 353.876 52.056 355.54 45.08H348.116C346.964 47.704 344.276 48.856 341.14 48.856C336.404 48.856 333.012 46.296 332.82 40.92H355.796ZM340.948 28.312C345.236 28.312 347.988 30.744 347.988 35.096H333.012C333.716 30.296 337.172 28.312 340.948 28.312ZM379.881 21.656H377.705C373.865 21.656 370.793 23.32 369.129 26.904V22.04H361.257V55H369.193V38.872C369.193 32.408 372.201 29.4 377.769 29.4H379.881V21.656ZM397.193 35.352C393.161 34.776 390.28 34.264 390.28 31.704C390.28 29.784 391.816 28.056 395.721 28.056C399.113 28.056 401.417 29.336 401.736 32.6H409.481C409.033 25.24 403.337 21.464 395.656 21.464C388.809 21.464 382.536 24.472 382.536 31.96C382.536 40.088 389.896 41.176 396.361 42.264C400.905 43.032 402.441 43.544 402.441 45.592C402.441 48.088 400.073 49.176 396.681 49.176C392.969 49.176 390.089 47.768 389.512 44.44H381.512C382.088 52.76 389.448 55.704 396.297 55.704C403.656 55.704 410.249 52.184 410.249 44.76C410.249 37.08 403.08 36.248 397.193 35.352ZM433.307 21.464C427.739 21.464 425.179 23.768 423.323 26.904V9.496H415.387V55H423.323V37.208C423.323 31.832 425.819 28.568 430.555 28.568C434.459 28.568 436.699 30.744 436.699 34.456V55H444.635V33.752C444.635 25.88 440.795 21.464 433.307 21.464ZM466.031 21.464C457.839 21.464 452.015 25.176 450.735 32.856H458.287C458.991 30.36 460.399 27.992 465.327 27.992C468.143 27.992 470.767 28.888 470.767 31.384C470.767 34.136 468.207 34.648 466.927 34.84L460.271 35.8C457.263 36.248 449.775 37.656 449.775 45.912C449.775 52.888 455.151 55.704 460.399 55.704C463.919 55.704 468.207 54.424 470.767 50.2V55H478.511V32.152C478.511 24.408 473.263 21.464 466.031 21.464ZM462.447 49.112C459.631 49.112 457.711 47.896 457.711 45.272C457.711 41.624 461.615 41.048 463.023 40.856L466.351 40.344C468.015 40.088 469.359 39.896 470.575 39.384V41.176C470.575 45.592 467.247 49.112 462.447 49.112ZM504.516 21.656H502.34C498.5 21.656 495.428 23.32 493.764 26.904V22.04H485.892V55H493.828V38.872C493.828 32.408 496.836 29.4 502.404 29.4H504.516V21.656ZM536.498 40.92V37.656C536.498 26.776 529.714 21.464 521.714 21.464C513.33 21.464 505.842 27.224 505.842 38.744C505.842 50.2 513.202 55.704 521.522 55.704C528.242 55.704 534.578 52.056 536.242 45.08H528.818C527.666 47.704 524.978 48.856 521.842 48.856C517.106 48.856 513.714 46.296 513.522 40.92H536.498ZM521.65 28.312C525.938 28.312 528.69 30.744 528.69 35.096H513.714C514.418 30.296 517.874 28.312 521.65 28.312ZM189.056 119V111.192H166.08V100.248H186.112V92.44H166.08V82.008H187.84V74.2H157.76V119H189.056ZM225.282 73.496H217.345V90.392C215.361 87.192 211.33 85.464 207.042 85.464C198.977 85.464 192.257 91.096 192.257 102.488C192.257 114.072 198.977 119.704 207.042 119.704C211.585 119.704 215.681 117.72 217.473 113.944V119H225.282V73.496ZM208.897 112.408C204.289 112.408 200.321 109.144 200.321 102.488C200.321 95.768 204.289 92.504 208.897 92.504C213.185 92.504 217.538 95.704 217.538 102.488C217.538 109.208 213.185 112.408 208.897 112.408ZM251.561 85.656H249.385C245.545 85.656 242.473 87.32 240.809 90.904V86.04H232.937V119H240.873V102.872C240.873 96.408 243.881 93.4 249.449 93.4H251.561V85.656ZM269.144 85.464C260.951 85.464 255.128 89.176 253.847 96.856H261.399C262.104 94.36 263.512 91.992 268.44 91.992C271.256 91.992 273.88 92.888 273.88 95.384C273.88 98.136 271.319 98.648 270.04 98.84L263.384 99.8C260.375 100.248 252.887 101.656 252.887 109.912C252.887 116.888 258.264 119.704 263.512 119.704C267.031 119.704 271.319 118.424 273.88 114.2V119H281.624V96.152C281.624 88.408 276.376 85.464 269.144 85.464ZM265.56 113.112C262.744 113.112 260.824 111.896 260.824 109.272C260.824 105.624 264.727 105.048 266.135 104.856L269.464 104.344C271.128 104.088 272.472 103.896 273.688 103.384V105.176C273.688 109.592 270.36 113.112 265.56 113.112ZM337.581 86.04H329.389L322.477 108.376L315.373 86.04H307.629L300.589 108.376L293.613 86.04H285.165L296.557 119H304.237L311.341 97.624L318.509 119H326.125L337.581 86.04ZM373.499 73.112C359.739 73.112 351.035 83.48 351.035 96.664C351.035 109.848 359.739 120.152 373.499 120.152C387.259 120.152 395.963 109.848 395.963 96.664C395.963 83.48 387.259 73.112 373.499 73.112ZM373.499 112.152C364.731 112.152 359.483 105.56 359.483 96.664C359.483 87.768 364.731 81.112 373.499 81.112C382.267 81.112 387.515 87.768 387.515 96.664C387.515 105.56 382.267 112.152 373.499 112.152ZM418.589 80.536V73.496H413.789C407.645 73.496 403.741 75.416 403.741 84.248V86.04H398.813V93.208H403.741V119H411.677V93.208H417.757V86.04H411.677V83.864C411.677 81.944 412.189 80.536 415.005 80.536H418.589ZM439.028 80.536V73.496H434.228C428.084 73.496 424.18 75.416 424.18 84.248V86.04H419.252V93.208H424.18V119H432.116V93.208H438.196V86.04H432.116V83.864C432.116 81.944 432.628 80.536 435.444 80.536H439.028ZM442.444 81.688H450.892V72.664H442.444V81.688ZM442.7 119H450.636V86.04H442.7V119ZM486.625 107.288H478.689C478.177 110.232 475.745 112.344 471.777 112.344C466.081 112.344 463.905 107.928 463.905 102.808C463.905 97.496 466.209 92.696 472.161 92.696C476.001 92.696 478.433 94.744 478.625 97.944H486.433C486.113 90.136 480.417 85.464 472.289 85.464C461.217 85.464 455.905 93.784 455.905 102.872C455.905 111.512 460.705 119.704 471.713 119.704C479.713 119.704 485.601 115.352 486.625 107.288ZM520.501 104.92V101.656C520.501 90.776 513.717 85.464 505.717 85.464C497.333 85.464 489.845 91.224 489.845 102.744C489.845 114.2 497.205 119.704 505.525 119.704C512.245 119.704 518.581 116.056 520.245 109.08H512.821C511.669 111.704 508.981 112.856 505.845 112.856C501.109 112.856 497.717 110.296 497.525 104.92H520.501ZM505.653 92.312C509.941 92.312 512.693 94.744 512.693 99.096H497.717C498.421 94.296 501.877 92.312 505.653 92.312ZM557.313 112.152C548.673 112.152 543.937 105.24 543.937 96.536C543.937 88.28 548.161 80.984 557.313 80.984C563.201 80.984 568.001 84.056 568.513 89.112H577.025C575.873 78.872 568.065 73.176 557.505 73.176C542.529 73.176 535.553 84.632 535.553 96.728C535.553 109.336 543.169 120.152 557.185 120.152C567.489 120.152 576.577 114.328 577.281 102.488H568.769C568.257 109.464 562.817 112.152 557.313 112.152ZM597.11 85.464C587.51 85.464 580.79 91.864 580.79 102.552C580.79 113.304 587.51 119.704 597.11 119.704C606.774 119.704 613.494 113.304 613.494 102.552C613.494 91.864 606.774 85.464 597.11 85.464ZM597.046 92.824C601.846 92.824 605.366 95.96 605.366 102.552C605.366 108.76 602.358 112.344 597.238 112.344C592.438 112.344 588.918 109.208 588.918 102.552C588.918 96.408 591.926 92.824 597.046 92.824ZM654.3 85.464C648.348 85.464 645.852 88.536 644.572 90.904C643.036 87.448 639.772 85.464 635.356 85.464C630.364 85.464 627.74 88.28 626.716 90.904V86.04H618.908V119H626.844V100.44C626.844 95 629.404 92.632 633.116 92.632C636.444 92.632 638.428 94.424 638.428 98.328V119H646.364V100.504C646.364 94.936 648.924 92.632 652.7 92.632C656.092 92.632 657.948 94.424 657.948 98.328V119H665.884V96.792C665.884 89.688 661.404 85.464 654.3 85.464ZM691.526 85.464C686.726 85.464 682.63 87.64 680.966 91.288V86.04H673.222V131.288H681.158V115.032C683.014 117.4 686.342 119.256 690.758 119.256C698.758 119.256 706.118 113.88 706.118 102.104C706.118 90.968 699.526 85.464 691.526 85.464ZM689.606 112.216C685.254 112.216 680.902 109.208 680.902 102.488C680.902 95.704 685.254 92.696 689.606 92.696C694.15 92.696 698.054 95.768 698.054 102.488C698.054 109.144 694.15 112.216 689.606 112.216ZM725.617 85.464C716.017 85.464 709.297 91.864 709.297 102.552C709.297 113.304 716.017 119.704 725.617 119.704C735.281 119.704 742.001 113.304 742.001 102.552C742.001 91.864 735.281 85.464 725.617 85.464ZM725.553 92.824C730.353 92.824 733.873 95.96 733.873 102.552C733.873 108.76 730.865 112.344 725.745 112.344C720.945 112.344 717.425 109.208 717.425 102.552C717.425 96.408 720.433 92.824 725.553 92.824ZM765.335 85.464C759.831 85.464 757.143 87.768 755.287 90.84V86.04H747.415V119H755.351V101.208C755.351 95.832 757.847 92.568 762.583 92.568C766.487 92.568 768.727 94.744 768.727 98.456V119H776.663V97.752C776.663 89.88 772.823 85.464 765.335 85.464ZM812.458 104.92V101.656C812.458 90.776 805.674 85.464 797.674 85.464C789.29 85.464 781.802 91.224 781.802 102.744C781.802 114.2 789.162 119.704 797.482 119.704C804.202 119.704 810.538 116.056 812.202 109.08H804.778C803.626 111.704 800.938 112.856 797.802 112.856C793.066 112.856 789.674 110.296 789.482 104.92H812.458ZM797.61 92.312C801.898 92.312 804.65 94.744 804.65 99.096H789.674C790.378 94.296 793.834 92.312 797.61 92.312ZM835.84 85.464C830.336 85.464 827.648 87.768 825.792 90.84V86.04H817.92V119H825.856V101.208C825.856 95.832 828.352 92.568 833.088 92.568C836.992 92.568 839.232 94.744 839.232 98.456V119H847.168V97.752C847.168 89.88 843.328 85.464 835.84 85.464ZM871.699 111.96H868.307C864.979 111.96 864.339 110.296 864.339 107.992V93.208H870.931V86.04H864.339V76.44L856.403 78.616V86.04H850.387V93.208H856.403V108.312C856.403 117.144 860.307 119 866.515 119H871.699V111.96Z" fill="black"/>
<defs>
<filter id="filter0_i" x="0" y="0" width="128" height="128" filterUnits="userSpaceOnUse" color-interpolation-filters="sRGB">
<feFlood flood-opacity="0" result="BackgroundImageFix"/>
<feBlend mode="normal" in="SourceGraphic" in2="BackgroundImageFix" result="shape"/>
<feColorMatrix in="SourceAlpha" type="matrix" values="0 0 0 0 0 0 0 0 0 0 0 0 0 0 0 0 0 0 127 0" result="hardAlpha"/>
<feOffset/>
<feGaussianBlur stdDeviation="0.5"/>
<feComposite in2="hardAlpha" operator="arithmetic" k2="-1" k3="1"/>
<feColorMatrix type="matrix" values="0 0 0 0 0 0 0 0 0 0 0 0 0 0 0 0 0 0 0.24 0"/>
<feBlend mode="darken" in2="shape" result="effect1_innerShadow"/>
</filter>
<linearGradient id="paint0_linear" x1="127.894" y1="149.209" x2="2.32945e-06" y2="-21.3156" gradientUnits="userSpaceOnUse">
<stop stop-color="#00BBEE"/>
<stop offset="1" stop-color="#00EEFF"/>
</linearGradient>
<clipPath id="clip0">
<rect width="128" height="128" fill="white"/>
</clipPath>
<clipPath id="clip1">
<rect width="128" height="128" rx="29.2039" fill="white"/>
</clipPath>
</defs>
</svg>
