<svg width="540" height="132" viewBox="0 0 540 132" fill="none" xmlns="http://www.w3.org/2000/svg">
<g clip-path="url(#clip0)" filter="url(#filter0_i)">
<g clip-path="url(#clip1)">
<rect width="128" height="128" transform="translate(0 -0.000152588)" fill="url(#paint0_linear)"/>
<path opacity="0.6" d="M82.5278 36.3476C85.0584 33.817 89.1614 33.817 91.692 36.3476C95.3023 39.958 98.1662 44.2441 100.12 48.9612C102.074 53.6784 103.08 58.7342 103.08 63.84C103.08 68.9458 102.074 74.0016 100.12 78.7188C98.1662 83.436 95.3023 87.7221 91.692 91.3324C89.1614 93.863 85.0584 93.863 82.5278 91.3324C79.9972 88.8018 79.9972 84.6989 82.5278 82.1683C84.9347 79.7614 86.844 76.904 88.1466 73.7592C89.4492 70.6144 90.1197 67.2439 90.1197 63.84C90.1197 60.4361 89.4492 57.0656 88.1466 53.9208C86.844 50.7761 84.9347 47.9187 82.5278 45.5117C79.9972 42.9811 79.9972 38.8782 82.5278 36.3476Z" fill="white"/>
<path fill-rule="evenodd" clip-rule="evenodd" d="M54.2813 39.893C59.0175 37.9312 64.2292 37.4179 69.2572 38.418C74.2852 39.4181 78.9037 41.8868 82.5287 45.5118C85.0593 48.0424 89.1622 48.0424 91.6928 45.5118C94.2234 42.9812 94.2234 38.8782 91.6928 36.3476C86.2554 30.9101 79.3276 27.2072 71.7856 25.707C64.2436 24.2068 56.4261 24.9767 49.3217 27.9195C42.2172 30.8622 36.145 35.8456 31.8728 42.2394C27.6006 48.6332 25.3203 56.1503 25.3203 63.84C25.3203 71.5298 27.6006 79.0469 31.8728 85.4407C36.145 91.8345 42.2172 96.8178 49.3217 99.7606C56.4261 102.703 64.2436 103.473 71.7856 101.973C79.3276 100.473 86.2554 96.7699 91.6928 91.3324C94.2234 88.8018 94.2234 84.6989 91.6928 82.1683C89.1622 79.6377 85.0593 79.6377 82.5287 82.1683C78.9037 85.7933 74.2852 88.2619 69.2572 89.2621C64.2292 90.2622 59.0175 89.7489 54.2813 87.7871C49.545 85.8252 45.4968 82.503 42.6487 78.2405C39.8005 73.9779 38.2804 68.9665 38.2804 63.84C38.2804 58.7135 39.8005 53.7021 42.6487 49.4396C45.4968 45.1771 49.545 41.8548 54.2813 39.893Z" fill="white"/>
<path fill-rule="evenodd" clip-rule="evenodd" d="M64.2004 76.8001C71.3581 76.8001 77.1605 70.9976 77.1605 63.84C77.1605 56.6824 71.3581 50.88 64.2004 50.88C57.0428 50.88 51.2404 56.6824 51.2404 63.84C51.2404 70.9976 57.0428 76.8001 64.2004 76.8001Z" fill="white"/>
</g>
</g>
<path d="M214.528 10.2H206.016L198.144 42.2L188.48 10.2H180.288L170.624 42.136L162.752 10.2H153.92L166.144 55H174.4L184.256 22.296L194.112 55H202.304L214.528 10.2ZM230.515 21.464C220.915 21.464 214.195 27.864 214.195 38.552C214.195 49.304 220.915 55.704 230.515 55.704C240.179 55.704 246.899 49.304 246.899 38.552C246.899 27.864 240.179 21.464 230.515 21.464ZM230.451 28.824C235.251 28.824 238.771 31.96 238.771 38.552C238.771 44.76 235.763 48.344 230.643 48.344C225.843 48.344 222.323 45.208 222.323 38.552C222.323 32.408 225.331 28.824 230.451 28.824ZM270.232 21.464C264.728 21.464 262.04 23.768 260.184 26.84V22.04H252.312V55H260.248V37.208C260.248 31.832 262.744 28.568 267.48 28.568C271.384 28.568 273.624 30.744 273.624 34.456V55H281.56V33.752C281.56 25.88 277.72 21.464 270.232 21.464ZM319.724 9.496H311.788V26.392C309.804 23.192 305.772 21.464 301.484 21.464C293.42 21.464 286.7 27.096 286.7 38.488C286.7 50.072 293.42 55.704 301.484 55.704C306.028 55.704 310.124 53.72 311.916 49.944V55H319.724V9.496ZM303.34 48.408C298.732 48.408 294.764 45.144 294.764 38.488C294.764 31.768 298.732 28.504 303.34 28.504C307.628 28.504 311.98 31.704 311.98 38.488C311.98 45.208 307.628 48.408 303.34 48.408ZM355.796 40.92V37.656C355.796 26.776 349.012 21.464 341.012 21.464C332.628 21.464 325.14 27.224 325.14 38.744C325.14 50.2 332.5 55.704 340.82 55.704C347.54 55.704 353.876 52.056 355.54 45.08H348.116C346.964 47.704 344.276 48.856 341.14 48.856C336.404 48.856 333.012 46.296 332.82 40.92H355.796ZM340.948 28.312C345.236 28.312 347.988 30.744 347.988 35.096H333.012C333.716 30.296 337.172 28.312 340.948 28.312ZM379.881 21.656H377.705C373.865 21.656 370.793 23.32 369.129 26.904V22.04H361.257V55H369.193V38.872C369.193 32.408 372.201 29.4 377.769 29.4H379.881V21.656ZM397.193 35.352C393.161 34.776 390.28 34.264 390.28 31.704C390.28 29.784 391.816 28.056 395.721 28.056C399.113 28.056 401.417 29.336 401.736 32.6H409.481C409.033 25.24 403.337 21.464 395.656 21.464C388.809 21.464 382.536 24.472 382.536 31.96C382.536 40.088 389.896 41.176 396.361 42.264C400.905 43.032 402.441 43.544 402.441 45.592C402.441 48.088 400.073 49.176 396.681 49.176C392.969 49.176 390.089 47.768 389.512 44.44H381.512C382.088 52.76 389.448 55.704 396.297 55.704C403.656 55.704 410.249 52.184 410.249 44.76C410.249 37.08 403.08 36.248 397.193 35.352ZM433.307 21.464C427.739 21.464 425.179 23.768 423.323 26.904V9.496H415.387V55H423.323V37.208C423.323 31.832 425.819 28.568 430.555 28.568C434.459 28.568 436.699 30.744 436.699 34.456V55H444.635V33.752C444.635 25.88 440.795 21.464 433.307 21.464ZM466.031 21.464C457.839 21.464 452.015 25.176 450.735 32.856H458.287C458.991 30.36 460.399 27.992 465.327 27.992C468.143 27.992 470.767 28.888 470.767 31.384C470.767 34.136 468.207 34.648 466.927 34.84L460.271 35.8C457.263 36.248 449.775 37.656 449.775 45.912C449.775 52.888 455.151 55.704 460.399 55.704C463.919 55.704 468.207 54.424 470.767 50.2V55H478.511V32.152C478.511 24.408 473.263 21.464 466.031 21.464ZM462.447 49.112C459.631 49.112 457.711 47.896 457.711 45.272C457.711 41.624 461.615 41.048 463.023 40.856L466.351 40.344C468.015 40.088 469.359 39.896 470.575 39.384V41.176C470.575 45.592 467.247 49.112 462.447 49.112ZM504.516 21.656H502.34C498.5 21.656 495.428 23.32 493.764 26.904V22.04H485.892V55H493.828V38.872C493.828 32.408 496.836 29.4 502.404 29.4H504.516V21.656ZM536.498 40.92V37.656C536.498 26.776 529.714 21.464 521.714 21.464C513.33 21.464 505.842 27.224 505.842 38.744C505.842 50.2 513.202 55.704 521.522 55.704C528.242 55.704 534.578 52.056 536.242 45.08H528.818C527.666 47.704 524.978 48.856 521.842 48.856C517.106 48.856 513.714 46.296 513.522 40.92H536.498ZM521.65 28.312C525.938 28.312 528.69 30.744 528.69 35.096H513.714C514.418 30.296 517.874 28.312 521.65 28.312ZM177.984 73.112C164.224 73.112 155.52 83.48 155.52 96.664C155.52 109.848 164.224 120.152 177.984 120.152C191.744 120.152 200.448 109.848 200.448 96.664C200.448 83.48 191.744 73.112 177.984 73.112ZM177.984 112.152C169.216 112.152 163.968 105.56 163.968 96.664C163.968 87.768 169.216 81.112 177.984 81.112C186.752 81.112 192 87.768 192 96.664C192 105.56 186.752 112.152 177.984 112.152ZM225.122 85.656H222.945C219.105 85.656 216.033 87.32 214.369 90.904V86.04H206.497V119H214.433V102.872C214.433 96.408 217.441 93.4 223.01 93.4H225.122V85.656ZM258.831 86.04H251.215V90.648C249.551 87.512 245.903 85.464 241.167 85.464C233.423 85.464 226.447 90.52 226.447 101.656C226.447 112.856 233.423 117.784 241.167 117.784C246.159 117.784 249.743 115.544 251.215 112.152V117.784C251.215 122.968 248.015 125.528 242.895 125.528C239.183 125.528 235.471 124.056 234.767 120.024H227.023C227.983 128.28 234.895 131.992 242.895 131.992C251.791 131.992 258.831 127.384 258.831 116.76V86.04ZM242.831 110.808C238.159 110.808 234.255 107.864 234.255 101.592C234.255 95.384 238.159 92.44 242.831 92.44C247.119 92.44 250.895 95.384 250.895 101.592C250.895 107.864 247.119 110.808 242.831 110.808ZM286.35 112.152C277.71 112.152 272.974 105.24 272.974 96.536C272.974 88.28 277.198 80.984 286.35 80.984C292.238 80.984 297.038 84.056 297.55 89.112H306.062C304.91 78.872 297.102 73.176 286.542 73.176C271.566 73.176 264.59 84.632 264.59 96.728C264.59 109.336 272.206 120.152 286.222 120.152C296.526 120.152 305.614 114.328 306.318 102.488H297.806C297.294 109.464 291.854 112.152 286.35 112.152ZM329.987 85.464C324.419 85.464 321.859 87.768 320.003 90.904V73.496H312.067V119H320.003V101.208C320.003 95.832 322.499 92.568 327.235 92.568C331.139 92.568 333.379 94.744 333.379 98.456V119H341.315V97.752C341.315 89.88 337.475 85.464 329.987 85.464ZM362.711 85.464C354.519 85.464 348.695 89.176 347.415 96.856H354.967C355.671 94.36 357.079 91.992 362.007 91.992C364.823 91.992 367.447 92.888 367.447 95.384C367.447 98.136 364.887 98.648 363.607 98.84L356.951 99.8C353.943 100.248 346.455 101.656 346.455 109.912C346.455 116.888 351.831 119.704 357.079 119.704C360.599 119.704 364.887 118.424 367.447 114.2V119H375.191V96.152C375.191 88.408 369.943 85.464 362.711 85.464ZM359.127 113.112C356.311 113.112 354.391 111.896 354.391 109.272C354.391 105.624 358.295 105.048 359.703 104.856L363.031 104.344C364.695 104.088 366.039 103.896 367.255 103.384V105.176C367.255 109.592 363.927 113.112 359.127 113.112ZM401.197 85.656H399.021C395.181 85.656 392.109 87.32 390.444 90.904V86.04H382.572V119H390.509V102.872C390.509 96.408 393.517 93.4 399.085 93.4H401.197V85.656ZM423.165 111.96H419.773C416.445 111.96 415.805 110.296 415.805 107.992V93.208H422.397V86.04H415.805V76.44L407.869 78.616V86.04H401.853V93.208H407.869V108.312C407.869 117.144 411.773 119 417.981 119H423.165V111.96ZM427.504 81.688H435.952V72.664H427.504V81.688ZM427.76 119H435.696V86.04H427.76V119ZM461.125 85.464C455.621 85.464 452.933 87.768 451.077 90.84V86.04H443.205V119H451.141V101.208C451.141 95.832 453.637 92.568 458.373 92.568C462.277 92.568 464.517 94.744 464.517 98.456V119H472.453V97.752C472.453 89.88 468.613 85.464 461.125 85.464ZM509.976 86.04H502.36V90.648C500.696 87.512 497.048 85.464 492.312 85.464C484.568 85.464 477.592 90.52 477.592 101.656C477.592 112.856 484.568 117.784 492.312 117.784C497.304 117.784 500.888 115.544 502.36 112.152V117.784C502.36 122.968 499.16 125.528 494.04 125.528C490.328 125.528 486.616 124.056 485.912 120.024H478.168C479.128 128.28 486.04 131.992 494.04 131.992C502.936 131.992 509.976 127.384 509.976 116.76V86.04ZM493.976 110.808C489.304 110.808 485.4 107.864 485.4 101.592C485.4 95.384 489.304 92.44 493.976 92.44C498.264 92.44 502.04 95.384 502.04 101.592C502.04 107.864 498.264 110.808 493.976 110.808Z" fill="black"/>
<defs>
<filter id="filter0_i" x="0" y="0" width="128" height="128" filterUnits="userSpaceOnUse" color-interpolation-filters="sRGB">
<feFlood flood-opacity="0" result="BackgroundImageFix"/>
<feBlend mode="normal" in="SourceGraphic" in2="BackgroundImageFix" result="shape"/>
<feColorMatrix in="SourceAlpha" type="matrix" values="0 0 0 0 0 0 0 0 0 0 0 0 0 0 0 0 0 0 127 0" result="hardAlpha"/>
<feOffset/>
<feGaussianBlur stdDeviation="0.5"/>
<feComposite in2="hardAlpha" operator="arithmetic" k2="-1" k3="1"/>
<feColorMatrix type="matrix" values="0 0 0 0 0 0 0 0 0 0 0 0 0 0 0 0 0 0 0.24 0"/>
<feBlend mode="darken" in2="shape" result="effect1_innerShadow"/>
</filter>
<linearGradient id="paint0_linear" x1="145.793" y1="149.334" x2="-0.265538" y2="-21.1058" gradientUnits="userSpaceOnUse">
<stop stop-color="#6600FF"/>
<stop offset="1" stop-color="#FF66FF"/>
</linearGradient>
<clipPath id="clip0">
<rect width="128" height="128" fill="white"/>
</clipPath>
<clipPath id="clip1">
<rect width="128" height="128" rx="29.2039" fill="white"/>
</clipPath>
</defs>
</svg>
