<svg width="216" height="32" viewBox="0 0 216 32" fill="none" xmlns="http://www.w3.org/2000/svg">
<g filter="url(#filter0_i)">
<g clip-path="url(#clip0)">
<rect width="32" height="32" fill="url(#paint0_linear)"/>
<path d="M16 17.625H9.5C8.60254 17.625 7.875 16.8975 7.875 16C7.875 15.1025 8.60254 14.375 9.5 14.375H16C16.8975 14.375 17.625 15.1025 17.625 16C17.625 16.8975 16.8975 17.625 16 17.625Z" fill="white" fill-opacity="0.6"/>
<path d="M16 9.5H9.5C8.60254 9.5 7.875 8.77246 7.875 7.875C7.875 6.97754 8.60254 6.25 9.5 6.25H16C21.3848 6.25 25.75 10.6152 25.75 16C25.75 21.3848 21.3848 25.75 16 25.75H9.5C8.60254 25.75 7.875 25.0225 7.875 24.125C7.875 23.2275 8.60254 22.5 9.5 22.5H16C19.5899 22.5 22.5 19.5899 22.5 16C22.5 12.4102 19.5899 9.5 16 9.5Z" fill="white"/>
</g>
</g>
<path d="M53.632 10.8H51.504L49.536 18.8L47.12 10.8H45.072L42.656 18.784L40.688 10.8H38.48L41.536 22H43.6L46.064 13.824L48.528 22H50.576L53.632 10.8ZM57.6287 13.616C55.2287 13.616 53.5487 15.216 53.5487 17.888C53.5487 20.576 55.2287 22.176 57.6287 22.176C60.0448 22.176 61.7248 20.576 61.7248 17.888C61.7248 15.216 60.0448 13.616 57.6287 13.616ZM57.6128 15.456C58.8127 15.456 59.6927 16.24 59.6927 17.888C59.6927 19.44 58.9408 20.336 57.6607 20.336C56.4607 20.336 55.5807 19.552 55.5807 17.888C55.5807 16.352 56.3327 15.456 57.6128 15.456ZM67.5581 13.616C66.1821 13.616 65.5101 14.192 65.0461 14.96V13.76H63.0781V22H65.0621V17.552C65.0621 16.208 65.6861 15.392 66.8701 15.392C67.8461 15.392 68.4061 15.936 68.4061 16.864V22H70.3901V16.688C70.3901 14.72 69.4301 13.616 67.5581 13.616ZM79.931 10.624H77.947V14.848C77.451 14.048 76.443 13.616 75.371 13.616C73.355 13.616 71.675 15.024 71.675 17.872C71.675 20.768 73.355 22.176 75.371 22.176C76.507 22.176 77.531 21.68 77.979 20.736V22H79.931V10.624ZM75.835 20.352C74.683 20.352 73.691 19.536 73.691 17.872C73.691 16.192 74.683 15.376 75.835 15.376C76.907 15.376 77.995 16.176 77.995 17.872C77.995 19.552 76.907 20.352 75.835 20.352ZM88.949 18.48V17.664C88.949 14.944 87.253 13.616 85.253 13.616C83.157 13.616 81.285 15.056 81.285 17.936C81.285 20.8 83.125 22.176 85.205 22.176C86.885 22.176 88.469 21.264 88.885 19.52H87.029C86.741 20.176 86.069 20.464 85.285 20.464C84.101 20.464 83.253 19.824 83.205 18.48H88.949ZM85.237 15.328C86.309 15.328 86.997 15.936 86.997 17.024H83.253C83.429 15.824 84.293 15.328 85.237 15.328ZM94.9704 13.664H94.4264C93.4664 13.664 92.6984 14.08 92.2824 14.976V13.76H90.3144V22H92.2984V17.968C92.2984 16.352 93.0504 15.6 94.4424 15.6H94.9704V13.664ZM99.2981 17.088C98.2901 16.944 97.5701 16.816 97.5701 16.176C97.5701 15.696 97.9541 15.264 98.9301 15.264C99.7781 15.264 100.354 15.584 100.434 16.4H102.37C102.258 14.56 100.834 13.616 98.9141 13.616C97.2021 13.616 95.6341 14.368 95.6341 16.24C95.6341 18.272 97.4741 18.544 99.0901 18.816C100.226 19.008 100.61 19.136 100.61 19.648C100.61 20.272 100.018 20.544 99.1701 20.544C98.2421 20.544 97.5221 20.192 97.3781 19.36H95.3781C95.5221 21.44 97.3621 22.176 99.0741 22.176C100.914 22.176 102.562 21.296 102.562 19.44C102.562 17.52 100.77 17.312 99.2981 17.088ZM108.327 13.616C106.935 13.616 106.295 14.192 105.831 14.976V10.624H103.847V22H105.831V17.552C105.831 16.208 106.455 15.392 107.639 15.392C108.615 15.392 109.175 15.936 109.175 16.864V22H111.159V16.688C111.159 14.72 110.199 13.616 108.327 13.616ZM116.508 13.616C114.46 13.616 113.004 14.544 112.684 16.464H114.572C114.748 15.84 115.1 15.248 116.332 15.248C117.036 15.248 117.692 15.472 117.692 16.096C117.692 16.784 117.052 16.912 116.732 16.96L115.068 17.2C114.316 17.312 112.444 17.664 112.444 19.728C112.444 21.472 113.788 22.176 115.1 22.176C115.98 22.176 117.052 21.856 117.692 20.8V22H119.628V16.288C119.628 14.352 118.316 13.616 116.508 13.616ZM115.612 20.528C114.908 20.528 114.428 20.224 114.428 19.568C114.428 18.656 115.404 18.512 115.756 18.464L116.588 18.336C117.004 18.272 117.34 18.224 117.644 18.096V18.544C117.644 19.648 116.812 20.528 115.612 20.528ZM126.129 13.664H125.585C124.625 13.664 123.857 14.08 123.441 14.976V13.76H121.473V22H123.457V17.968C123.457 16.352 124.209 15.6 125.601 15.6H126.129V13.664ZM134.125 18.48V17.664C134.125 14.944 132.429 13.616 130.429 13.616C128.333 13.616 126.461 15.056 126.461 17.936C126.461 20.8 128.301 22.176 130.381 22.176C132.061 22.176 133.645 21.264 134.061 19.52H132.205C131.917 20.176 131.245 20.464 130.461 20.464C129.277 20.464 128.429 19.824 128.381 18.48H134.125ZM130.413 15.328C131.485 15.328 132.173 15.936 132.173 17.024H128.429C128.605 15.824 129.469 15.328 130.413 15.328ZM146.756 22V20.048H141.012V17.312H146.02V15.36H141.012V12.752H146.452V10.8H138.932V22H146.756ZM155.812 10.624H153.828V14.848C153.332 14.048 152.324 13.616 151.252 13.616C149.236 13.616 147.556 15.024 147.556 17.872C147.556 20.768 149.236 22.176 151.252 22.176C152.388 22.176 153.412 21.68 153.86 20.736V22H155.812V10.624ZM151.716 20.352C150.564 20.352 149.572 19.536 149.572 17.872C149.572 16.192 150.564 15.376 151.716 15.376C152.788 15.376 153.876 16.176 153.876 17.872C153.876 19.552 152.788 20.352 151.716 20.352ZM162.382 13.664H161.838C160.878 13.664 160.11 14.08 159.694 14.976V13.76H157.726V22H159.71V17.968C159.71 16.352 160.462 15.6 161.854 15.6H162.382V13.664ZM166.778 13.616C164.73 13.616 163.274 14.544 162.954 16.464H164.842C165.018 15.84 165.37 15.248 166.602 15.248C167.306 15.248 167.962 15.472 167.962 16.096C167.962 16.784 167.322 16.912 167.002 16.96L165.338 17.2C164.586 17.312 162.714 17.664 162.714 19.728C162.714 21.472 164.058 22.176 165.37 22.176C166.25 22.176 167.322 21.856 167.962 20.8V22H169.898V16.288C169.898 14.352 168.586 13.616 166.778 13.616ZM165.882 20.528C165.178 20.528 164.698 20.224 164.698 19.568C164.698 18.656 165.674 18.512 166.026 18.464L166.858 18.336C167.274 18.272 167.61 18.224 167.914 18.096V18.544C167.914 19.648 167.082 20.528 165.882 20.528ZM183.887 13.76H181.839L180.111 19.344L178.335 13.76H176.399L174.639 19.344L172.895 13.76H170.783L173.631 22H175.551L177.327 16.656L179.119 22H181.023L183.887 13.76ZM196.501 10.8H193.861L190.757 19.36L187.653 10.8H185.013V22H186.917V14.112L189.797 22H191.669L194.549 14.112V22H196.501V10.8ZM202.092 13.616C200.044 13.616 198.588 14.544 198.268 16.464H200.156C200.332 15.84 200.684 15.248 201.916 15.248C202.62 15.248 203.276 15.472 203.276 16.096C203.276 16.784 202.636 16.912 202.316 16.96L200.652 17.2C199.9 17.312 198.028 17.664 198.028 19.728C198.028 21.472 199.372 22.176 200.684 22.176C201.564 22.176 202.636 21.856 203.276 20.8V22H205.212V16.288C205.212 14.352 203.9 13.616 202.092 13.616ZM201.196 20.528C200.492 20.528 200.012 20.224 200.012 19.568C200.012 18.656 200.988 18.512 201.34 18.464L202.172 18.336C202.588 18.272 202.924 18.224 203.228 18.096V18.544C203.228 19.648 202.396 20.528 201.196 20.528ZM212.497 22H215.057L211.889 17.776L214.881 13.76H212.417L210.593 16.336L208.737 13.76H206.177L209.297 17.92L206.225 22H208.721L210.609 19.376L212.497 22Z" fill="black"/>
<defs>
<filter id="filter0_i" x="0" y="0" width="32" height="32" filterUnits="userSpaceOnUse" color-interpolation-filters="sRGB">
<feFlood flood-opacity="0" result="BackgroundImageFix"/>
<feBlend mode="normal" in="SourceGraphic" in2="BackgroundImageFix" result="shape"/>
<feColorMatrix in="SourceAlpha" type="matrix" values="0 0 0 0 0 0 0 0 0 0 0 0 0 0 0 0 0 0 127 0" result="hardAlpha"/>
<feOffset/>
<feGaussianBlur stdDeviation="0.5"/>
<feComposite in2="hardAlpha" operator="arithmetic" k2="-1" k3="1"/>
<feColorMatrix type="matrix" values="0 0 0 0 0 0 0 0 0 0 0 0 0 0 0 0 0 0 0.24 0"/>
<feBlend mode="darken" in2="shape" result="effect1_innerShadow"/>
</filter>
<linearGradient id="paint0_linear" x1="33.4546" y1="37.3333" x2="2.33165" y2="-7.93634" gradientUnits="userSpaceOnUse">
<stop stop-color="#0066FF"/>
<stop offset="1" stop-color="#66CCFF"/>
</linearGradient>
<clipPath id="clip0">
<rect width="32" height="32" rx="7.30097" fill="white"/>
</clipPath>
</defs>
</svg>
