<svg width="141" height="49" viewBox="0 0 141 49" fill="none" xmlns="http://www.w3.org/2000/svg">
<path d="M16.2435 34.5522H11.6272V22.9272H8.48242V19.1423H11.627V16.4491C11.627 13.2576 13.0179 10.9688 17.6217 10.9688C18.5954 10.9688 20.1241 11.167 20.1241 11.167V14.6815H18.5185C16.8825 14.6815 16.2437 15.1842 16.2437 16.574V19.1423H20.0629L19.7228 22.9272H16.2436L16.2435 34.5522ZM26.8358 18.8398C26.7685 18.8398 26.6993 18.8423 26.6308 18.844C22.3503 18.844 20.3918 22.0966 20.3918 26.7138C20.3918 32.5301 22.9322 34.858 26.6643 34.858C28.7995 34.858 30.2024 33.9501 31.055 32.2559V34.5538H35.4458V19.1439H31.055V21.5137C30.3588 19.989 28.9167 18.8579 26.8358 18.8398ZM27.9522 22.4812C29.7501 22.4812 30.8291 23.7479 30.8291 25.9027L30.8333 28.1034C30.8333 29.5557 29.942 31.2548 27.9522 31.2548C24.8931 31.2548 24.9748 27.9181 24.9748 26.8067C24.9748 23.0684 26.6047 22.4812 27.9522 22.4812ZM37.2191 26.8497C37.2191 24.9771 37.1304 18.8499 45.0328 18.8499C48.205 18.8499 49.5296 19.8688 49.5296 19.8688L48.4649 23.2044C48.4649 23.2044 47.1421 22.4685 45.4183 22.4685C43.2106 22.4685 41.8018 23.7614 41.8018 26.0362L41.8043 27.6673C41.8043 29.8531 43.1635 31.3122 45.4229 31.3122C46.9932 31.3122 48.4406 30.5694 48.4406 30.5694L49.5025 33.8354C49.5025 33.8354 48.2913 34.8607 45.055 34.8607C37.5306 34.8607 37.2192 29.3634 37.2192 26.8497H37.2191ZM75.2744 18.844C79.555 18.844 81.5443 22.0966 81.5443 26.7138C81.5443 32.5301 79.0038 34.858 75.2718 34.858C73.1365 34.858 71.5581 33.9502 70.7054 32.2559V34.5538L66.3699 34.5521V11.4373L70.9731 11.0317V21.305C71.6375 19.5076 73.8209 18.844 75.2745 18.844H75.2744ZM73.9838 22.4812C72.186 22.4812 70.9731 23.7479 70.9731 25.9027L70.9688 28.1034C70.9661 29.5557 71.8088 31.2548 73.9838 31.2548C77.0429 31.2548 76.9612 27.9181 76.9612 26.8067C76.9612 23.0684 75.3314 22.4812 73.9838 22.4812ZM57.5165 18.8568C52.6614 18.8568 50.0983 21.5308 50.0983 26.2829V27.1657C50.0983 33.3334 53.6977 34.9214 57.9891 34.9214C62.1602 34.9214 64.0482 33.7428 64.0482 33.7428L63.1868 30.6043C63.1868 30.6043 60.9659 31.5589 58.541 31.5589C56.027 31.5589 54.9459 30.9116 54.6688 28.4711H64.4162V25.9533C64.4162 20.7985 61.5395 18.8567 57.5164 18.8567L57.5165 18.8568ZM57.6335 21.9995C59.3141 21.9995 60.4031 23.0405 60.3433 25.4549H54.6772C54.7755 22.9138 55.9499 21.9996 57.6335 21.9996V21.9995ZM90.723 18.8356C85.7371 18.8356 83.1123 21.6739 83.1123 26.7602C83.1123 33.7389 87.6369 34.8622 90.7313 34.8622C95.2613 34.8622 98.275 32.3986 98.275 26.8235C98.275 21.0209 94.8864 18.8356 90.723 18.8356V18.8356ZM90.6602 22.4938C92.8526 22.4938 93.7213 24.1513 93.7213 26.0379V27.66C93.7213 29.9456 92.5057 31.2675 90.6519 31.2675C88.9181 31.2675 87.6996 30.031 87.6996 27.66V26.0379C87.6996 23.5093 89.1496 22.4938 90.6602 22.4938V22.4938ZM107.445 18.8356C102.46 18.8356 99.8348 21.6739 99.8348 26.7602C99.8348 33.7389 104.359 34.8622 107.454 34.8622C111.984 34.8622 114.998 32.3986 114.998 26.8235C114.998 21.0209 111.609 18.8356 107.445 18.8356V18.8356ZM107.383 22.4938C109.575 22.4938 110.444 24.1513 110.444 26.0379V27.66C110.444 29.9456 109.228 31.2675 107.374 31.2675C105.641 31.2675 104.422 30.031 104.422 27.66V26.0379C104.422 23.5093 105.872 22.4938 107.383 22.4938V22.4938ZM116.737 34.5522V11.4373L121.354 11.0317V26.5248L125.934 19.1423H130.809L126.031 26.7884L130.993 34.5522H126.104L121.354 27.0136V34.5522H116.737Z" fill="#7C7A7A"/>
</svg>
