<svg width="181" height="48" viewBox="0 0 181 48" fill="none" xmlns="http://www.w3.org/2000/svg">
<path fill-rule="evenodd" clip-rule="evenodd" d="M104.953 15.8757V35.1H99.3779V15.8757H104.953ZM74.1061 30.7943C74.1061 31.1248 74.022 31.7266 73.7417 32.0481C73.4614 32.3696 73.1972 32.5146 72.8596 32.5988C72.5551 32.6758 72.1951 32.7949 71.3166 32.7949C70.4381 32.7949 70.079 32.6758 69.7727 32.5988C69.436 32.5146 69.1718 32.3696 68.8915 32.0481C68.6112 31.7266 68.527 31.1248 68.527 30.7943L68.5279 15.873H63.0482V29.5048C62.9246 31.9084 63.7915 33.9806 66.3007 34.9308C66.9571 35.1788 69.161 35.6776 71.3148 35.6776C73.4685 35.6776 75.6715 35.1788 76.3297 34.9308C78.839 33.9806 79.7059 31.8403 79.5823 29.4367V15.873H74.1026L74.1061 30.7943V30.7943ZM86.4993 30.9287C86.4993 31.303 86.5558 31.894 86.8611 32.1985C87.1665 32.503 87.5158 32.7896 88.4229 32.7896C89.3292 32.7896 89.7179 32.503 90.0224 32.1985C90.3286 31.894 90.3456 31.303 90.3456 30.9287L90.3438 15.873H95.9203V29.657C95.9203 31.2349 95.6821 31.6755 95.3937 32.2863C94.8761 33.3869 94.0907 34.2099 92.7331 34.9066C91.8967 35.3355 90.4433 35.6758 88.4265 35.6758C86.4993 35.657 84.908 35.2961 84.094 34.8797C82.7372 34.1857 82.0701 33.386 81.5507 32.2863C81.3554 31.8734 81.1325 31.0003 81.1172 29.657L81.1163 27.8883H86.5002L86.4993 30.9287V30.9287ZM108.417 18.4674V35.0982H114.184V26.6382H121.297V23.7555H114.184V18.7566H121.682V15.873H111.007C110.203 15.873 109.491 15.9241 108.982 16.4328C108.472 16.9414 108.417 17.6032 108.417 18.4674V18.4674ZM129.182 15.8757V35.1H123.608V15.8757H129.182ZM132.635 32.5066C132.635 33.3108 132.688 34.0245 133.197 34.5341C133.705 35.0436 134.365 35.0991 135.23 35.0991L144.555 35.1009V32.2164H138.211V15.8757H132.634V32.5066H132.635ZM146.09 35.1V15.8757H152.242L155.607 28.5636L158.973 15.8757H166.662V35.1H161.279V21.642L157.626 35.1H152.915L149.167 21.642V35.1H146.09V35.1ZM47.8564 18.4674V35.0982H53.6245V26.6382H60.7377V23.7555H53.6245V18.7566H61.1219V15.873H50.4472C49.6421 15.873 48.9302 15.9241 48.4215 16.4328C47.9129 16.9414 47.8564 17.6032 47.8564 18.4674V18.4674Z" fill="#7C7A7A"/>
<path fill-rule="evenodd" clip-rule="evenodd" d="M29.5 26.4251H32.2815V17.9355H29.5V26.4251Z" fill="#7C7A7A"/>
<path fill-rule="evenodd" clip-rule="evenodd" d="M21.8718 26.4248C20.4738 26.4597 19.0751 26.4597 17.6771 26.4248C16.6222 26.3881 15.8762 25.5803 15.921 24.494L15.9219 20.4642H13.6822V26.4248H9.27441V13.8193C9.27441 12.7546 10.0025 12.082 11.0162 12.082H28.1297L33.202 16.3456H13.6813V17.9352H18.7034V23.4561C18.7034 23.7525 18.9972 24.0812 19.2909 24.0991C19.6219 24.1215 19.954 24.1215 20.2849 24.0991C20.5778 24.0722 20.8715 23.7534 20.8715 23.457V17.9361H23.6539L23.653 24.4967C23.7032 25.6179 22.8963 26.3899 21.8718 26.4248V26.4248Z" fill="#7C7A7A"/>
<path fill-rule="evenodd" clip-rule="evenodd" d="M22.5575 30.5426H14.1745L11.0625 27.9277H21.6521C24.276 27.9751 25.185 26.3077 25.185 24.5309L25.1859 17.9336H27.9817L27.9826 25.0745C28.0229 28.1274 25.948 30.5426 22.5575 30.5426V30.5426Z" fill="#7C7A7A"/>
<path fill-rule="evenodd" clip-rule="evenodd" d="M33.7845 16.834L38.1054 20.4662V34.3066C38.1054 35.3965 37.3738 36.2007 36.2069 36.2007H20.923L15.9814 32.0463H33.7845V16.834V16.834Z" fill="#7C7A7A"/>
</svg>
