<svg width="61" height="49" viewBox="0 0 61 49" fill="none" xmlns="http://www.w3.org/2000/svg">
<path d="M30.4828 3.96093C34.4848 3.65572 38.5689 4.59096 42.0427 6.59994C44.8214 8.20198 47.2239 10.4622 48.9631 13.1601C51.1229 16.4585 52.2653 20.4066 52.2321 24.3486C52.2065 28.4683 50.8949 32.5733 48.4986 35.9282C46.068 39.3688 42.5342 42.0188 38.5457 43.3745C35.0034 44.6002 31.1214 44.7926 27.4662 43.974C23.6334 43.1196 20.0726 41.1033 17.349 38.2755C14.4624 35.2858 12.5086 31.3941 11.9117 27.2769C11.3245 23.6095 11.8099 19.784 13.2428 16.3617C14.5727 13.1785 16.7386 10.3568 19.4499 8.22772C22.5927 5.74928 26.4881 4.23795 30.4828 3.96093ZM30.4779 4.93417C28.0999 5.10454 25.7612 5.7407 23.6112 6.76909C20.1521 8.43609 17.1945 11.145 15.2762 14.4741C12.4191 19.2765 11.8675 25.3537 13.7405 30.6109C14.9417 34.0296 17.1357 37.0792 19.9721 39.3295C23.2681 41.944 27.4368 43.4505 31.6472 43.486C34.7214 43.5535 37.8102 42.8549 40.5545 41.471C44.0515 39.7403 46.9896 36.9101 48.8675 33.4926C50.7442 30.0997 51.5676 26.1248 51.1498 22.2674C50.5945 16.0076 46.6843 10.2074 41.1662 7.23377C37.9303 5.4502 34.1623 4.63386 30.4779 4.93417Z" fill="#7C7A7A"/>
<path d="M27.0638 6.76877C30.4346 5.8274 34.0824 5.86785 37.4164 6.94405C37.561 6.9894 37.6726 7.09604 37.7866 7.19164C37.2362 7.15119 36.7313 6.90237 36.1906 6.80921C34.8276 6.5371 33.4155 6.40227 32.0342 6.60819C31.1688 6.76386 30.2605 7.09849 29.7114 7.82167C29.2983 8.35854 29.2542 9.20185 29.7335 9.71176C30.2654 10.2744 31.2093 10.2437 31.7988 9.78898C32.4951 9.27785 33.1703 8.66866 34.0394 8.47867C35.8056 8.04108 37.6579 8.39287 39.3689 8.90155C41.4232 9.46171 43.366 10.4754 44.9424 11.9132C47.5692 14.2335 49.1479 17.565 49.7472 20.9812C50.2693 23.896 50.1124 26.9419 49.2078 29.766C49.176 29.8984 49.0915 29.9756 48.9542 29.9965C49.4788 28.0734 49.8686 26.0324 49.4765 24.0467C49.2705 23.0882 48.7986 22.0071 47.7898 21.6798C47.0176 21.4065 46.0774 21.9372 46.015 22.7769C45.8678 23.6753 46.602 24.3225 47.0594 24.9955C48.0412 26.405 47.9198 28.2326 47.6797 29.8495C47.2285 32.0385 46.498 34.218 45.1717 36.0419C43.1249 38.98 39.8644 40.9191 36.4188 41.7477C33.4243 42.4635 30.251 42.4586 27.2614 41.722C26.8679 41.6043 26.4206 41.5516 26.1153 41.2501C26.6853 41.2487 27.2136 41.4964 27.7713 41.5846C29.2949 41.8616 30.8871 42.0332 32.4095 41.652C33.0995 41.462 33.7983 41.1336 34.232 40.5427C34.6341 39.9911 34.6256 39.1466 34.1315 38.6538C33.7039 38.2028 32.9917 38.1097 32.4449 38.394C31.7954 38.7458 31.2989 39.3244 30.6359 39.6566C29.2986 40.3062 27.7468 40.2106 26.32 39.9704C23.9544 39.5058 21.6169 38.6478 19.7096 37.1388C17.177 35.1923 15.423 32.3535 14.5638 29.2966C13.6543 26.0962 13.6481 22.6568 14.478 19.4392C14.6214 19.1058 14.5662 18.58 14.9462 18.4218C14.4608 20.2604 14.0771 22.1873 14.3726 24.0921C14.5221 24.9378 14.8187 25.8339 15.5186 26.3829C16.004 26.7838 16.7627 26.9309 17.2996 26.5459C17.872 26.2114 18.0608 25.4171 17.7948 24.8299C17.5153 24.1681 16.9478 23.6862 16.623 23.049C15.9207 21.7656 15.9979 20.2335 16.1842 18.8288C16.5764 16.5783 17.3401 14.3548 18.6675 12.477C20.6385 9.62105 23.7408 7.666 27.0638 6.76877V6.76877ZM27.5198 13.6022C26.4215 14.1943 25.6665 15.2521 25.1137 16.343C24.5265 17.4645 24.2838 18.7172 24.1686 19.965C23.6269 19.8927 23.1905 19.4723 23.0655 18.9452C22.813 18.1742 23.0802 17.3836 23.2175 16.6225C23.2787 16.4018 23.1108 16.2216 23.0213 16.0402C22.5605 16.012 22.0898 16.2388 21.8802 16.6617C21.2526 17.8347 21.3078 19.4171 22.1756 20.4578C22.6734 21.0878 23.4589 21.3991 24.2397 21.4825C24.5033 22.2939 25.0181 23.0858 25.8454 23.4044C26.8579 23.8126 27.9696 23.3848 28.8497 22.8529C28.8178 23.1789 28.8007 23.5135 28.6867 23.8249C28.3778 24.0737 28.0015 24.2196 27.6558 24.412C25.9582 25.3068 24.2287 26.2076 22.8019 27.5107C21.7625 28.4862 20.9449 29.7843 20.7881 31.2221C20.7121 32.3523 21.1619 33.5926 22.1523 34.2141C23.1867 34.8993 24.5511 34.8613 25.6787 34.4361C27.1006 33.8943 28.1609 32.688 28.862 31.3717C29.8989 29.5085 30.0767 27.3353 30.2274 25.2504C30.2691 25.0065 30.2176 24.6608 30.5045 24.5554C32.1984 23.6029 33.8446 22.566 35.4183 21.4249C35.6047 21.6541 35.7886 21.8845 35.9639 22.1211C35.1537 22.604 34.3458 23.125 33.7343 23.8567C31.447 26.3585 31.4091 30.6521 33.8066 33.0938C35.0323 34.387 36.9163 34.9398 38.6606 34.6812C40.2639 34.4532 41.7224 33.4443 42.5315 32.0471C43.61 30.2672 43.4335 27.7779 42.0314 26.2249C40.7197 24.776 38.1665 24.8042 36.8845 26.2751C35.8758 27.3366 35.8427 29.2132 36.8956 30.2525C37.3221 30.678 38.0649 30.9352 38.6006 30.5688C38.9462 30.3201 38.9131 29.7881 38.6348 29.4999C38.2745 29.0648 37.8478 28.561 37.9558 27.953C38.0636 27.1624 38.9474 26.6783 39.6915 26.8463C40.3287 26.9456 40.8375 27.4431 41.074 28.0266C41.6318 29.354 41.3156 30.999 40.3141 32.0324C39.2527 33.1392 37.4066 33.3133 36.1258 32.4933C34.9882 31.7934 34.341 30.4953 34.1412 29.2071C33.9317 27.6541 34.2296 25.9785 35.1929 24.7123C35.8132 23.9106 36.6786 23.2525 37.6738 23.0145C38.5097 23.0783 39.3765 23.229 40.1951 22.9618C40.5801 22.8307 40.955 22.3992 40.759 21.9776C40.547 21.5449 40.0261 21.415 39.5921 21.3243C38.9436 21.1956 38.2988 21.3684 37.6651 21.4897C37.2227 21.3377 36.9885 20.8732 36.8244 20.4638C38.055 19.5445 39.2709 18.5455 40.1068 17.2377C40.5923 16.452 40.9085 15.4873 40.6805 14.5643C40.5003 13.9527 39.999 13.433 39.3592 13.3165C38.2929 13.0481 37.2019 13.5862 36.4775 14.3498C35.313 15.6136 34.7222 17.3651 34.7761 19.0738C34.7602 19.4268 34.8974 19.797 34.797 20.1365C33.9243 20.8401 32.9486 21.4064 32.0084 22.0143C31.4679 22.3283 30.9531 22.6897 30.3794 22.9434C30.3892 22.3992 30.4174 21.8476 30.5731 21.323C30.9862 20.758 31.5059 20.2664 31.8344 19.6389C32.0746 19.2062 32.3014 18.6583 32.0513 18.1802C31.8221 17.826 31.3147 17.8603 30.9825 18.0368C30.274 18.3923 29.8855 19.1424 29.5999 19.846C29.4037 20.2959 29.3817 20.8536 28.9625 21.1723C28.379 21.6822 27.6755 22.1945 26.864 22.1651C26.4007 22.1676 26.0918 21.7312 25.9938 21.3218C27.2759 20.824 28.3459 19.8949 29.2138 18.8458C30.0166 17.8137 30.6552 16.5954 30.7631 15.274C30.8232 14.6084 30.5854 13.8546 29.9774 13.5065C29.2174 13.0923 28.265 13.21 27.5198 13.6022V13.6022Z" fill="#7C7A7A"/>
<path d="M28.2544 14.8243C28.5522 14.5988 29.0437 14.6944 29.1847 15.0584C29.2938 15.507 29.1283 15.9618 28.9371 16.3626C28.3941 17.4707 27.5839 18.4316 26.6572 19.2382C26.428 19.4478 26.1608 19.6108 25.8777 19.7358C25.9157 18.7503 26.254 17.8004 26.6732 16.9166C27.0629 16.1334 27.514 15.3281 28.2544 14.8243V14.8243ZM37.8359 15.2092C38.0995 14.9052 38.553 14.6012 38.955 14.8084C39.3964 15.0695 39.1659 15.6541 38.9918 16.012C38.3852 17.1311 37.4855 18.075 36.5097 18.8803C36.4951 17.5528 36.9704 16.2167 37.8359 15.2092V15.2092ZM24.7144 28.0855C25.858 27.1233 27.1267 26.2972 28.4848 25.6696C28.3414 27.1711 27.9896 28.6592 27.4221 30.0565C26.9355 31.1817 26.2135 32.3401 25.0172 32.8009C24.397 33.0337 23.588 33.1797 23.0511 32.6894C22.5424 32.2383 22.5767 31.4735 22.7251 30.868C23.0339 29.7391 23.8638 28.8492 24.7144 28.0855V28.0855Z" fill="#7C7A7A"/>
</svg>
