<svg width="179" height="48" viewBox="0 0 179 48" fill="none" xmlns="http://www.w3.org/2000/svg">
<path d="M25.6684 25.1489L24.1673 24.6968C23.8655 24.5991 23.7268 24.4972 23.7595 24.3954C23.7921 24.2936 24.0083 24.2488 24.3917 24.2488H30.979C31.342 24.2488 31.5214 24.3058 31.5214 24.428C31.5214 24.5502 31.4399 24.5868 31.2196 24.6683L29.9307 25.1489C29.6755 25.2173 29.4508 25.3693 29.2925 25.5806C29.1342 25.7918 29.0515 26.0501 29.0578 26.3138C29.0582 28.0582 29.1685 29.8009 29.3882 31.5314C26.7813 33.0177 23.8244 33.7826 20.8227 33.7472C18.7952 33.7862 16.7861 33.3554 14.9533 32.4886C11.5108 30.7535 9.55979 27.7571 9.10024 23.4993C9.05946 23.0391 9.03906 22.5707 9.03906 22.09C9.03906 18.6334 10.1906 15.9261 12.4938 13.9683C15.1124 11.7499 18.2925 10.6406 22.0341 10.6406C24.3871 10.6718 26.7229 11.045 28.9681 11.7485L28.4909 17.1127C28.4909 17.4142 28.3889 17.5526 28.2502 17.5201C28.1116 17.4875 28.03 17.3327 27.9484 17.0109L27.3937 14.3879C27.3498 14.077 27.2384 13.7796 27.0674 13.5162C26.8133 13.2642 26.507 13.071 26.17 12.9501C24.8546 12.3926 23.434 12.1259 22.0056 12.168C19.703 12.1044 17.4328 12.7207 15.4795 13.9398C12.8691 15.6342 11.6033 18.4107 11.6821 22.2693C11.6969 23.8855 12.0223 25.484 12.6406 26.9777C13.2862 28.6188 14.4714 29.9919 16.0016 30.8716C17.5191 31.7455 19.2344 32.2193 20.9859 32.2483C22.5064 32.2376 24.003 31.8693 25.3543 31.173C26.2353 30.7331 26.6853 30.1031 26.7044 29.2831C26.7669 27.5643 26.6568 26.3559 26.374 25.6581C26.3055 25.5263 26.2079 25.412 26.0884 25.3238C25.9689 25.2355 25.8308 25.1757 25.6847 25.1489" fill="#7C7A7A"/>
<path d="M34.2211 14.5065C34.2396 14.0318 34.2192 13.5564 34.16 13.085C34.1555 12.932 34.1043 12.784 34.0132 12.661C33.922 12.5379 33.7953 12.4457 33.6501 12.3967L31.9696 11.8631C31.627 11.7694 31.472 11.6594 31.472 11.5413C31.472 11.4232 31.6719 11.3906 32.0716 11.3906H38.9322C39.34 11.3906 39.5317 11.4395 39.5317 11.5413C39.5317 11.6432 39.3604 11.7694 39.0219 11.8712L37.3414 12.3804C37.1876 12.4242 37.0522 12.5165 36.9552 12.6435C36.8581 12.7705 36.8048 12.9253 36.803 13.085C36.7429 13.5618 36.7224 14.0427 36.7418 14.5228C36.6793 16.4426 36.6494 19.01 36.6521 22.225C36.6521 25.3857 36.682 28.1934 36.7418 30.6481C36.7418 31.1695 36.9703 31.4302 37.4312 31.4302H42.5052C42.8431 31.4466 43.1816 31.4109 43.5086 31.3243C43.616 31.2748 43.711 31.202 43.7865 31.111C43.8621 31.0201 43.9162 30.9134 43.945 30.7988L44.7852 28.6116C44.8668 28.3305 44.9769 28.2043 45.1156 28.2043C45.2543 28.2043 45.2665 28.2735 45.2665 28.412L45.1156 33.0431H32.0635C31.6556 33.0431 31.4639 32.9902 31.4639 32.8924C31.4639 32.7946 31.6311 32.6643 31.9737 32.5625L33.6542 32.0533C33.7935 32.0106 33.9166 31.9266 34.0069 31.8123C34.0973 31.6981 34.1506 31.5591 34.16 31.4139C34.219 30.9152 34.2394 30.4127 34.2211 29.9109C34.2918 27.9776 34.3272 25.4102 34.3272 22.2087C34.3272 19.0073 34.2918 16.4399 34.2211 14.5065Z" fill="#7C7A7A"/>
<path d="M61.1127 33.0421H46.588C46.1802 33.0421 45.9844 32.9892 45.9844 32.8914C45.9844 32.7936 46.1557 32.6633 46.4942 32.5615L48.1951 32.0401C48.33 31.9957 48.4489 31.9125 48.5366 31.8009C48.6244 31.6893 48.6773 31.5543 48.6886 31.4129C48.7453 30.914 48.7657 30.4117 48.7498 29.9099C48.8069 27.8326 48.8355 25.2652 48.8355 22.2077C48.8355 19.0932 48.8069 16.5258 48.7498 14.5055C48.766 14.0308 48.7456 13.5556 48.6886 13.084C48.6881 12.9303 48.6406 12.7805 48.5524 12.6545C48.4642 12.5286 48.3395 12.4326 48.1951 12.3794L46.4942 11.8621C46.1557 11.7603 45.9844 11.6503 45.9844 11.5322C45.9844 11.4141 46.1883 11.3815 46.588 11.3815C50.0469 11.3815 52.8776 11.3611 55.0801 11.3204C57.1603 11.2797 58.9278 11.1996 60.3826 11.0801V15.1206C60.3826 15.4994 60.3336 15.6989 60.2316 15.7193C60.1297 15.7397 60.0522 15.589 59.9339 15.2672C59.42 13.9421 59.042 13.1994 58.8 13.0392C58.5634 12.8763 57.662 12.7989 56.0998 12.7989H51.9884C51.6675 12.7989 51.4676 12.8437 51.3888 12.9333C51.2841 13.1306 51.2428 13.3553 51.2705 13.5769L51.1767 21.0998H57.0298C57.295 21.1181 57.5612 21.0835 57.8129 20.998C58.0187 20.8404 58.1745 20.6269 58.2616 20.383C58.4244 20.0339 58.5607 19.6731 58.6695 19.3036C58.7306 19.1407 58.8081 19.0715 58.9101 19.0918C59.0121 19.1122 59.0896 19.1611 59.0896 19.3036V24.9652C59.0896 25.3725 59.0406 25.5843 58.9387 25.625C58.8367 25.6658 58.6899 25.568 58.6083 25.2666C58.4478 24.6882 58.2575 24.0284 58.0372 23.2871C57.9782 23.0693 57.8427 22.88 57.6555 22.7537C57.4683 22.6273 57.2419 22.5723 57.0175 22.5987H51.1767L51.2705 30.6308C51.2705 31.1522 51.4989 31.4129 51.9598 31.4129H58.4859C58.8238 31.4293 59.1623 31.3936 59.4893 31.307C59.5975 31.2593 59.694 31.1887 59.7722 31.1001C59.8504 31.0115 59.9083 30.907 59.942 30.7938C60.0481 30.5249 60.3255 29.7918 60.7578 28.5943C60.8557 28.3133 60.9781 28.187 61.1167 28.187C61.2554 28.187 61.2677 28.2562 61.2677 28.3947L61.1127 33.0421Z" fill="#7C7A7A"/>
<path d="M84.4957 33.4169H82.8642C82.1626 32.5208 80.803 30.9228 78.7854 28.6229C75.8622 25.4676 71.6692 20.9872 66.2064 15.1817C66.1629 16.8517 66.1411 19.1937 66.1411 22.2078C66.1411 25.3278 66.171 27.8952 66.2308 29.91C66.2146 30.4008 66.2337 30.8922 66.2879 31.3804C66.2969 31.5287 66.3503 31.6709 66.4412 31.7886C66.5321 31.9063 66.6564 31.9939 66.7978 32.0402L68.5109 32.5493C68.8331 32.6512 68.9922 32.7611 68.9922 32.8793C68.9922 32.9974 68.8005 33.03 68.4211 33.03H62.2744C61.8665 33.03 61.6748 32.9811 61.6748 32.8793C61.6748 32.7774 61.8461 32.6512 62.1847 32.5493L63.8692 32.0402C64.0105 31.9942 64.1344 31.9066 64.2247 31.7887C64.315 31.6709 64.3674 31.5285 64.375 31.3804C64.4355 30.8927 64.4559 30.401 64.4362 29.91C64.4987 27.8925 64.5286 25.3251 64.5259 22.2078C64.5259 19.1937 64.496 16.6263 64.4362 14.5056C64.4362 13.748 64.3858 12.5261 64.2852 10.8398H65.8474C66.5707 11.7604 68.0812 13.5254 70.379 16.1348L82.5664 29.1442C82.6072 27.6671 82.6276 25.3685 82.6276 22.2485C82.6276 19.2345 82.5977 16.6671 82.5379 14.5463C82.5587 14.0581 82.5382 13.5689 82.4767 13.0841C82.47 12.9271 82.414 12.7761 82.3167 12.6526C82.2193 12.529 82.0855 12.4392 81.9342 12.3958L80.2538 11.8622C79.9152 11.7604 79.7439 11.6504 79.7439 11.5323C79.7439 11.4141 79.9438 11.3816 80.3435 11.3816H86.4984C86.8777 11.3816 87.0694 11.4304 87.0694 11.5323C87.0694 11.6341 86.9063 11.7604 86.5881 11.8622L84.8791 12.3713C84.7367 12.4152 84.6111 12.5015 84.5192 12.6187C84.4273 12.736 84.3736 12.8785 84.3652 13.0271C84.309 13.5151 84.2899 14.0066 84.3081 14.4975C84.2483 16.6155 84.217 19.1829 84.2143 22.1997C84.2143 25.3196 84.2455 27.887 84.3081 29.9018C84.3081 30.6635 84.3652 31.8325 84.4876 33.4088" fill="#7C7A7A"/>
<path d="M90.7578 31.3807C87.4948 29.0075 85.9543 25.821 86.1365 21.8212C86.2287 20.0804 86.7318 18.3861 87.6049 16.8765C88.6463 15.098 90.1227 13.6125 91.8958 12.559C94.0005 11.2801 96.513 10.6406 99.4334 10.6406C101.423 10.6423 103.401 10.9458 105.299 11.5408V16.6362C105.299 16.9335 105.238 17.0842 105.119 17.0842C105.001 17.0842 104.879 16.8643 104.756 16.4244C104.579 15.5379 104.261 14.6854 103.814 13.8991C103.304 13.1668 102.529 12.6613 101.652 12.4898C100.85 12.3042 100.029 12.2139 99.205 12.221C95.9202 12.221 93.3179 13.1999 91.3982 15.1577C89.7177 16.8982 88.8775 19.3068 88.8775 22.3833C88.8675 23.2709 88.9689 24.1562 89.1793 25.0186C90.1365 28.6002 92.3934 30.8906 95.9501 31.8899C96.773 32.1026 97.6209 32.204 98.4708 32.1913C101.152 32.1913 103.142 31.5817 104.442 30.3625C104.936 29.8416 105.342 29.2447 105.645 28.5947C105.707 28.4929 105.853 28.1223 106.094 27.4869C106.274 27.047 106.424 26.827 106.547 26.827C106.624 26.827 106.665 26.8841 106.665 27.0062L105.825 32.3012C103.525 33.1928 101.088 33.6793 98.6217 33.739C95.5599 33.739 92.9386 32.9502 90.7578 31.3726" fill="#7C7A7A"/>
<path d="M113.114 12.1554C109.432 13.972 107.341 16.8489 106.841 20.7862C106.799 21.184 106.778 21.5837 106.779 21.9837C106.779 23.5626 107.074 25.1276 107.648 26.5985C108.244 28.3145 109.279 29.8451 110.65 31.0382C112.72 32.8673 115.391 33.8708 118.155 33.8567C119.591 33.842 121.017 33.6198 122.389 33.1969C124.28 32.676 126.019 31.7094 127.459 30.3783C128.934 29.04 129.987 27.3021 130.489 25.3766C130.759 24.3696 130.897 23.3317 130.897 22.2892C130.897 19.3023 130.096 16.8245 128.495 14.8558C126.243 12.116 123.258 10.7461 119.538 10.7461C118.896 10.7468 118.254 10.7862 117.617 10.8642C116.063 11.0592 114.549 11.4948 113.13 12.1554H113.114ZM116.218 12.7256C116.975 12.5436 117.751 12.452 118.53 12.4527C119.818 12.4446 121.094 12.6926 122.284 13.1821C123.475 13.6716 124.556 14.3929 125.464 15.3039C126.436 16.2637 127.176 17.4325 127.626 18.7212C128.087 20.0213 128.32 21.3908 128.315 22.7698C128.324 23.6716 128.203 24.57 127.956 25.4377C126.991 28.7722 124.785 30.8576 121.337 31.6939C120.607 31.8585 119.861 31.9392 119.114 31.9342C117.814 31.974 116.521 31.7366 115.32 31.2379C114.12 30.7393 113.039 29.9908 112.151 29.0424C110.332 27.1171 109.422 24.7045 109.422 21.8045C109.41 20.8201 109.547 19.8395 109.83 18.8963C110.888 15.5808 113.012 13.5239 116.201 12.7256" fill="#7C7A7A"/>
<path d="M129.947 11.6137C129.947 11.7359 130.114 11.8459 130.457 11.9437L132.138 12.4528C132.283 12.5016 132.41 12.5937 132.502 12.7167C132.594 12.8397 132.646 12.9878 132.652 13.1411C132.707 13.6197 132.726 14.1016 132.709 14.583C132.771 16.701 132.801 19.2684 132.798 22.2852C132.798 25.4025 132.768 27.9698 132.709 29.9874C132.726 30.4782 132.707 30.9697 132.652 31.4578C132.643 31.6064 132.589 31.7489 132.498 31.8661C132.406 31.9833 132.28 32.0697 132.138 32.1135L130.457 32.6349C130.114 32.7326 129.947 32.8426 129.947 32.9607C129.947 33.0788 130.147 33.1114 130.547 33.1114H137.42C137.828 33.1114 138.023 33.0626 138.023 32.9607C138.023 32.8589 137.852 32.7326 137.513 32.6349L135.829 32.1217C135.675 32.0764 135.54 31.9832 135.443 31.8557C135.346 31.7282 135.293 31.573 135.291 31.413C135.234 30.9359 135.213 30.4553 135.229 29.9752V23.7515C135.501 23.7743 135.774 23.7743 136.045 23.7515L142.375 30.3173C144.533 32.5534 148.518 35.8404 149.868 36.4269C151.785 37.2945 155.819 38.4635 158.487 36.7935C158.658 36.6835 155.631 36.5695 154.583 36.3862C153.565 36.1939 152.571 35.8921 151.618 35.486C149.668 34.5492 147.103 32.2724 145.802 30.912L139.222 23.4542C141.583 22.8975 143.214 21.8779 144.117 20.3953C144.685 19.4339 144.976 18.3344 144.957 17.2183C144.985 16.2444 144.746 15.2814 144.268 14.4323C143.519 13.0815 142.268 12.0792 140.785 11.6422C139.969 11.4019 138.602 11.3042 136.706 11.3449L130.547 11.4549C130.139 11.4549 129.947 11.5078 129.947 11.6056V11.6137ZM136.102 22.1549C135.8 22.1549 135.511 22.1549 135.229 22.1263L135.201 15.9516V14.5504C135.221 13.9924 135.229 13.7114 135.229 13.7114C135.237 13.5466 135.296 13.3883 135.398 13.2589C135.501 13.1295 135.641 13.0356 135.8 12.9904C136.186 12.8582 136.592 12.7975 137 12.8112C138.074 12.7788 139.136 13.0499 140.063 13.5932C140.776 13.9865 141.36 14.5778 141.744 15.2957C142.127 16.0135 142.294 16.8271 142.224 17.6378C142.202 18.4681 141.941 19.2745 141.473 19.9607C141.004 20.6468 140.347 21.1837 139.581 21.5072C138.485 21.9828 137.296 22.2068 136.102 22.163" fill="#7C7A7A"/>
<path d="M163.662 33.0429H149.134C148.726 33.0429 148.534 32.994 148.534 32.8922C148.534 32.7904 148.705 32.6641 149.044 32.5663L150.724 32.0572C150.863 32.0157 150.986 31.9332 151.077 31.8205C151.168 31.7078 151.223 31.5702 151.234 31.4259C151.293 30.9286 151.314 30.4274 151.296 29.927C151.358 27.8497 151.388 25.2823 151.385 22.2248C151.385 19.1048 151.355 16.5374 151.296 14.5226C151.315 14.0425 151.294 13.5616 151.234 13.0848C151.231 12.9317 151.179 12.7834 151.088 12.6602C150.997 12.5371 150.87 12.445 150.724 12.3965L149.044 11.8873C148.705 11.7896 148.534 11.6796 148.534 11.5574C148.534 11.4352 148.734 11.4067 149.134 11.4067C152.595 11.4067 155.427 11.3877 157.63 11.3497C159.71 11.309 161.471 11.2289 162.912 11.1094V15.1621C162.912 15.5409 162.859 15.7405 162.761 15.7649C162.663 15.7893 162.582 15.6346 162.459 15.3128C161.962 13.9714 161.592 13.2287 161.35 13.0848C161.108 12.9409 160.208 12.8608 158.65 12.8445H154.538C154.216 12.8445 154.016 12.8893 153.935 12.9789C153.843 13.1744 153.809 13.392 153.837 13.6062L153.747 21.1291H159.6C159.865 21.1462 160.132 21.1102 160.383 21.0232C160.58 20.865 160.728 20.6547 160.811 20.4164C160.972 20.0665 161.109 19.7058 161.219 19.337C161.276 19.1781 161.358 19.1089 161.456 19.1252C161.554 19.1415 161.639 19.1944 161.639 19.337V24.9945C161.639 25.4018 161.59 25.6136 161.488 25.6543C161.386 25.6951 161.236 25.5932 161.158 25.2918C160.995 24.7134 160.807 24.0699 160.587 23.3164C160.527 23.0987 160.392 22.9095 160.205 22.7826C160.018 22.6557 159.792 22.5995 159.567 22.624H153.727L153.837 30.6601C153.837 31.1774 154.069 31.4381 154.526 31.4381H161.052C161.391 31.4545 161.731 31.4188 162.059 31.3322C162.167 31.2845 162.262 31.2143 162.339 31.1265C162.417 31.0386 162.474 30.9351 162.508 30.8231C162.618 30.5542 162.892 29.8211 163.324 28.6195C163.422 28.3385 163.54 28.2122 163.683 28.2122C163.826 28.2122 163.83 28.2815 163.83 28.424L163.662 33.0429Z" fill="#7C7A7A"/>
</svg>
