<svg width="179" height="48" viewBox="0 0 179 48" fill="none" xmlns="http://www.w3.org/2000/svg">
<path fill-rule="evenodd" clip-rule="evenodd" d="M152.856 10.4727C151.414 10.4727 149.509 10.6153 148.836 10.6153C148.437 10.6153 146.92 10.5616 146.464 10.5616V10.9354C147.262 11.0852 147.696 11.3713 147.696 12.1009V22.6796C147.696 23.4301 147.251 23.7542 146.43 23.8988V24.2814C146.886 24.2814 148.289 24.2189 148.705 24.2189C149.372 24.2189 151.14 24.3343 152.588 24.3343C157.617 24.3343 160.697 21.3533 160.697 17.3321C160.697 13.192 157.743 10.4731 152.856 10.4731V10.4727ZM93.3137 10.5082C92.5669 10.5082 90.6625 10.6153 89.9893 10.6153C89.5789 10.6153 88.1364 10.5616 87.6746 10.5616V10.9354C88.5413 11.0801 88.8832 11.4915 88.8832 12.1365V22.6444C88.8832 23.3787 88.4384 23.7542 87.6746 23.8988V24.2814C88.1305 24.2814 89.6019 24.2189 89.9668 24.2189C90.3887 24.2189 91.8826 24.2814 92.339 24.2814V23.8988C91.5178 23.7233 91.0729 23.3483 91.0729 22.6444V17.9376C91.3068 17.9613 91.5007 17.9921 91.7117 18.0265C92.7608 18.1965 93.3366 18.6754 93.81 19.2809C94.5627 20.2309 95.9198 22.1568 96.661 23.0622C97.5277 24.1071 98.4059 24.5035 99.535 24.5035C100.048 24.5035 100.733 24.4296 101.154 24.3343V24.0411C100.276 24.0012 99.4325 23.11 98.7937 22.3239C98.1435 21.5442 96.5015 19.2576 95.9198 18.5782C95.4409 18.0222 94.9731 17.7507 94.9731 17.7507C97.0603 17.2413 98.4289 16.0134 98.4289 14.1828C98.4289 11.8681 96.5925 10.5082 93.3137 10.5082V10.5082ZM136.571 10.5082C135.818 10.5082 133.919 10.6153 133.246 10.6153C132.836 10.6153 131.399 10.5616 130.937 10.5616V10.9354C131.804 11.0801 132.152 11.4915 132.152 12.1365V22.6444C132.152 23.3787 131.701 23.7542 130.937 23.8988V24.2814C131.393 24.2814 132.853 24.2189 133.218 24.2189C133.646 24.2189 135.145 24.2814 135.607 24.2814V23.8988C134.78 23.7233 134.33 23.3483 134.33 22.6444V17.9376C134.563 17.9613 134.763 17.9921 134.968 18.0265C136.018 18.1965 136.594 18.6754 137.067 19.2809C137.82 20.2309 139.12 22.1568 139.867 23.0622C140.728 24.1071 141.617 24.5035 142.735 24.5035C143.259 24.5035 143.944 24.4296 144.365 24.3343V24.0411C143.482 24.0012 142.655 23.11 142.005 22.3239C141.361 21.5442 139.758 19.2576 139.177 18.5782C138.698 18.0222 138.23 17.7507 138.23 17.7507C140.317 17.2413 141.686 16.0134 141.686 14.1828C141.686 11.8681 139.849 10.5082 136.571 10.5082V10.5082ZM77.707 10.5173C77.707 10.5173 77.4787 11.4073 77.2963 11.8432L72.9172 22.386C72.5978 23.1365 72.119 23.6937 71.2519 23.8988V24.2454L73.2394 24.2189C73.5243 24.2189 74.7163 24.2454 75.175 24.2454V23.8988C74.4053 23.6937 74.2003 23.3926 74.2003 23.0179C74.2003 22.7729 74.3257 22.3966 74.4254 22.137L75.3349 19.8859H80.4667L81.4477 22.1279C81.5843 22.4583 81.7042 22.7768 81.7042 23.0622C81.7042 23.391 81.4932 23.7336 80.8205 23.8988L80.809 24.2454C81.3223 24.2454 82.8048 24.2189 83.1641 24.2189C83.5231 24.2189 85.074 24.2454 85.5759 24.2454V23.8988C84.6581 23.668 84.2928 23.1424 83.9679 22.4125L79.332 11.8515C79.1496 11.4113 78.9331 10.5173 78.9331 10.5173H77.707ZM121.175 10.5173C121.175 10.5173 120.953 11.4073 120.77 11.8432L116.379 22.386C116.066 23.1365 115.592 23.6937 114.731 23.8988L114.726 24.2454L116.756 24.2189C117.035 24.2189 118.193 24.2454 118.643 24.2454V23.8988C117.879 23.6937 117.679 23.3926 117.679 23.0179C117.679 22.7729 117.788 22.3966 117.896 22.137L118.797 19.8859H123.94L124.921 22.1279C125.064 22.4583 125.172 22.7768 125.172 23.0622C125.172 23.391 124.967 23.7336 124.294 23.8988L124.282 24.2454C124.784 24.2454 126.278 24.2189 126.632 24.2189C126.985 24.2189 128.548 24.2454 129.05 24.2454V23.8988C128.126 23.668 127.772 23.1424 127.447 22.4125L122.811 11.8515C122.629 11.4113 122.401 10.5173 122.401 10.5173H121.175ZM54.4932 10.5616V10.9354C55.1659 11.1109 55.5882 11.4057 55.5882 12.1009V22.7334C55.5882 23.4625 55.1347 23.7542 54.4932 23.8988V24.2454L56.6314 24.2189C57.0422 24.2189 58.5845 24.2454 58.9209 24.2454V23.8988C58.2481 23.7233 57.7977 23.4625 57.7977 22.7334V17.7064H65.7382V22.7334C65.7382 23.4625 65.2934 23.7542 64.6491 23.8988V24.2454C64.9855 24.2454 66.4937 24.2189 66.9041 24.2189L69.0796 24.2454V23.8988C68.404 23.7233 67.9477 23.4337 67.9477 22.7334V12.1009C67.9477 11.3761 68.4325 11.0852 69.0796 10.9354V10.5616L66.9041 10.6153C66.4937 10.6153 64.9855 10.5616 64.6491 10.5616V10.9354C65.3219 11.0852 65.7382 11.3765 65.7382 12.1009V16.5406H57.7977V12.1009C57.7977 11.3761 58.2794 11.0852 58.9209 10.9354V10.5616C58.5845 10.5616 57.0422 10.6153 56.6314 10.6153C56.2808 10.6153 54.824 10.5616 54.4932 10.5616ZM100.761 10.5884V10.971C101.542 11.1465 102.004 11.6322 102.306 12.2969L107.712 24.3434H108.75L113.671 12.7415C114.132 11.6555 114.646 11.1963 115.478 10.971V10.5884C114.999 10.5884 113.711 10.6505 113.403 10.6505C113.061 10.6505 111.983 10.5884 111.544 10.5884V10.971C112.091 11.0809 112.49 11.3733 112.49 11.7986C112.49 12.1835 112.308 12.6874 112.04 13.3379L108.698 21.381L105.157 13.3462C104.781 12.5103 104.576 12.0701 104.576 11.7452C104.576 11.2947 105.089 11.0568 105.528 10.971V10.5884C105.032 10.5884 103.572 10.6505 103.23 10.6505C102.865 10.6505 101.245 10.5884 100.761 10.5884V10.5884ZM92.6694 11.38C94.9221 11.38 96.1651 12.5151 96.1651 14.3697C96.1651 15.6707 95.3554 17.1456 92.7834 17.1456C92.1506 17.1456 91.5118 17.1203 91.0729 17.0658V11.5223C91.6005 11.4338 92.1343 11.386 92.6694 11.38ZM135.938 11.38C138.19 11.38 139.422 12.5151 139.422 14.3697C139.422 15.6707 138.612 17.1456 136.04 17.1456C135.408 17.1456 134.769 17.1203 134.33 17.0658V11.5223C134.861 11.4334 135.399 11.386 135.938 11.38ZM152.206 11.38C156.044 11.38 158.291 13.8832 158.291 17.4483C158.291 20.883 156.152 23.3471 152.052 23.3471C151.334 23.3471 150.41 23.289 149.92 23.2048V11.5223C150.444 11.433 151.425 11.38 152.206 11.38V11.38ZM77.8095 13.7022L79.9878 18.7825H75.7682L77.8095 13.7022ZM121.283 13.7022L123.456 18.7825H119.248L121.283 13.7022Z" fill="#7C7A7A"/>
<path fill-rule="evenodd" clip-rule="evenodd" d="M33.0057 6.36792L18.2535 6.37148L18.2227 18.1548C18.2227 32.6013 32.7315 41.802 32.8763 41.8933L32.9207 41.9217C32.9606 41.9217 33.0516 41.8561 33.0516 41.8561C35.5196 40.2477 47.8142 31.5367 47.8142 18.2287V6.39203C47.7829 6.36239 33.0057 6.36753 33.0057 6.36753" fill="#7C7A7A"/>
<path fill-rule="evenodd" clip-rule="evenodd" d="M48.1037 6.8346C48.0982 10.8044 48.1789 14.722 48.0927 18.7519C48.0238 21.4942 47.4484 24.2096 46.4352 26.7511C44.0524 32.7277 39.4877 37.7033 34.3085 41.2874C33.8779 41.585 33.4402 41.8707 32.9894 42.1406C29.9476 40.1986 27.2284 37.6701 24.9009 34.9164C21.0352 30.3419 18.2554 24.7265 18.1458 18.4926L18.1406 18.412V6.14062H48.1049L48.1037 6.8346ZM18.6701 18.3171C18.7414 25.6019 22.866 32.5325 28.0737 37.5195C29.5986 38.9798 31.2231 40.3397 32.9752 41.5059L32.9981 41.5209C35.8214 39.7793 38.3634 37.5207 40.5662 35.0503C44.6432 30.4775 47.5354 24.6759 47.5726 18.3112C47.5801 14.4912 47.5722 10.67 47.5774 6.83381L47.5778 6.66624H18.667L18.669 17.8864L18.6701 18.3171Z" fill="#7C7A7A"/>
<path fill-rule="evenodd" clip-rule="evenodd" d="M40.398 20.2655C40.398 20.2655 40.1459 21.0677 39.0252 20.2433L35.1776 20.1505C35.1776 20.1505 34.6738 20.3121 34.6054 19.7861C34.6054 19.7861 34.6976 18.7345 34.6509 18.6424C34.6509 18.6424 34.6738 18.3456 34.1684 18.3456C34.1684 18.3456 33.3912 18.4369 33.3678 17.7496C33.3678 17.7496 33.2321 17.0181 34.3073 17.0422C34.3073 17.0422 34.6509 17.2019 34.6738 16.7664C34.6738 16.7664 34.6287 13.7925 34.6509 13.5652C34.6509 13.5652 34.7431 13.2922 34.2151 13.2455C34.2151 13.2455 33.46 13.4052 33.3678 12.9033C33.3678 12.9033 33.3227 12.1488 33.8273 12.1018C33.8273 12.1018 34.4451 12.1488 34.5591 11.9876C34.5591 11.9876 34.6976 12.0781 34.6738 11.5319L34.6976 10.5922C34.6976 10.5922 34.7637 10.3416 35.1539 10.3661C35.1539 10.3661 35.8643 10.4112 35.9573 10.3416C35.9573 10.3416 36.1156 10.1369 36.1623 10.0436C36.1623 10.0436 36.5295 10.0215 36.5972 10.1136C36.5972 10.1136 37.1473 10.4795 39.231 10.3416C39.231 10.3416 39.5523 10.3416 39.6192 10.4337C39.6192 10.4337 40.0098 10.7301 40.2382 10.4111C40.2382 10.4111 40.5817 10.3416 41.6114 10.3661C41.6114 10.3661 42.7354 10.6621 43.5118 10.0215L43.7643 10.0677C43.7643 10.0677 44.0849 10.5922 44.3137 10.4337C44.3137 10.4337 45.0015 10.3661 45.1151 10.5024C45.1151 10.5024 45.343 10.8431 45.2294 11.7382C45.2294 11.7382 45.0937 12.1255 45.757 12.1255C45.757 12.1255 46.5137 11.9876 46.4207 12.6962C46.4207 12.6962 46.6264 13.4973 45.3683 13.3835C45.3683 13.3835 45.2073 13.6123 45.2294 13.7723C45.2294 13.7723 45.2073 16.3783 45.1839 16.6771C45.1839 16.6771 45.1618 17.0892 45.7103 17.0651C45.7103 17.0651 46.444 17.0181 46.4681 17.6821C46.4681 17.6821 46.5592 18.5511 45.5045 18.3902C45.5045 18.3902 45.1839 18.4369 45.1364 18.6424L45.0937 19.7861C45.0937 19.7861 45.1151 20.3576 44.4751 20.2196C44.3837 20.2196 40.903 20.29 40.6046 20.1987C40.6046 20.1987 40.4424 20.1758 40.398 20.2655" fill="white"/>
<path fill-rule="evenodd" clip-rule="evenodd" d="M33.0019 24.0867C33.0019 24.0867 33.1625 24.0191 33.2076 23.9065C33.2076 23.9065 33.6893 23.8594 33.757 23.7915L35.2691 23.9065C35.2691 23.9065 36.7572 24.0191 37.3983 23.5599C37.3983 23.5599 37.629 23.5599 37.7893 23.6294C37.7893 23.6294 38.1083 23.6994 38.1997 23.8345L39.0708 23.8116C39.0708 23.8116 39.5746 23.9732 39.5279 24.2938V24.7044C39.5279 24.7044 39.4357 25.528 39.6644 25.575H40.3305C40.3305 25.575 40.8806 25.8259 40.8113 26.1457C40.8113 26.1457 40.8343 26.6013 40.3542 26.6942C40.3542 26.6942 39.871 26.8305 39.7127 26.8088C39.7127 26.8088 39.5516 27.0139 39.5279 27.2653L39.461 30.2617C39.461 30.2617 39.4143 30.5814 39.8955 30.5359C39.8955 30.5359 40.6039 30.4672 40.8113 30.8576C40.8113 30.8576 40.995 31.5196 40.6285 31.6338L40.3542 31.7694L39.7574 31.8646C39.7574 31.8646 39.5069 31.8856 39.4832 32.3195V33.1186C39.4832 33.1186 39.5069 33.6695 39.0708 33.6695L38.4293 33.7153C38.4293 33.7153 38.2694 33.8505 37.9492 33.7592C37.9492 33.7592 34.0558 33.8296 33.918 33.7833L33.4597 33.8758C33.4597 33.8758 32.9563 34.333 32.544 33.9884L32.2234 33.7371C32.2234 33.7371 31.9939 33.7833 31.904 33.7592C31.8122 33.7371 27.5978 33.8062 27.5978 33.8062C27.5978 33.8062 26.7046 33.8987 26.6369 33.5999C26.6369 33.5999 26.5225 32.4345 26.568 32.295C26.568 32.295 26.568 31.9535 26.3623 31.9314C26.3623 31.9314 25.4686 31.8856 25.4457 31.7927C25.4457 31.7927 24.964 31.4512 25.1018 31.109C25.1018 31.109 25.2628 30.6498 25.7429 30.6043C25.7429 30.6043 26.4758 30.7201 26.4758 30.5138C26.4758 30.5138 26.5225 30.3767 26.5225 30.1487C26.5225 30.1487 26.568 27.4257 26.5447 27.2431C26.5447 27.2431 26.6132 26.9001 26.3152 26.9001C26.3152 26.9001 25.995 26.991 25.7896 26.8543C25.7896 26.8543 25.2399 26.8776 25.1255 26.4425C25.1255 26.4425 25.0333 26.1686 25.1698 25.9378C25.1698 25.9378 25.4227 25.4355 26.1557 25.5963C26.1557 25.5963 26.568 25.7113 26.6132 25.4153L26.5918 24.3151C26.5918 24.3151 26.4988 24.0191 27.0718 23.8594C27.0718 23.8594 27.8044 24.0645 28.0327 23.6994C28.0327 23.6994 28.2856 23.1947 28.489 23.5377C28.489 23.5377 28.926 23.9503 30.1168 23.9065C30.1168 23.9065 32.1783 23.7448 32.2234 23.8345C32.2234 23.8345 32.7276 23.9065 32.8641 24.0645L33.0019 24.0867ZM26.7758 20.2647C26.7758 20.2647 26.5233 21.0669 25.4014 20.2418L21.5542 20.1497C21.5542 20.1497 21.0504 20.3113 20.9812 19.7845C20.9812 19.7845 21.0734 18.7337 21.0259 18.6416C21.0259 18.6416 21.0504 18.3432 20.5458 18.3432C20.5458 18.3432 19.7686 18.4369 19.746 17.7504C19.746 17.7504 19.6079 17.0161 20.6839 17.0414C20.6839 17.0414 21.0259 17.2011 21.0504 16.7664C21.0504 16.7664 21.0045 13.7941 21.0259 13.5641C21.0259 13.5641 21.1197 13.2922 20.5925 13.2455C20.5925 13.2455 19.8358 13.4044 19.746 12.9013C19.746 12.9013 19.6993 12.1481 20.2023 12.101C20.2023 12.101 20.8209 12.1481 20.936 11.9896C20.936 11.9896 21.0734 12.0781 21.0504 11.5288L21.0734 10.5922C21.0734 10.5922 21.1426 10.3408 21.5297 10.3637C21.5297 10.3637 22.2416 10.4088 22.3338 10.3408C22.3338 10.3408 22.4937 10.1361 22.5377 10.0428C22.5377 10.0428 22.9061 10.0215 22.9746 10.1104C22.9746 10.1104 23.5231 10.4787 25.6091 10.3408C25.6091 10.3408 25.9281 10.3408 25.997 10.4329C25.997 10.4329 26.386 10.7293 26.6147 10.4088C26.6147 10.4088 26.9583 10.3408 27.9896 10.3637C27.9896 10.3637 29.1096 10.6605 29.8892 10.0215L30.1405 10.0685C30.1405 10.0685 30.4607 10.5922 30.6918 10.4329C30.6918 10.4329 31.3781 10.3637 31.4932 10.5017C31.4932 10.5017 31.7228 10.8447 31.606 11.7374C31.606 11.7374 31.4699 12.1255 32.1336 12.1255C32.1336 12.1255 32.8887 11.9896 32.798 12.6954C32.798 12.6954 33.0046 13.4965 31.7449 13.3827C31.7449 13.3827 31.5839 13.6119 31.606 13.7715C31.606 13.7715 31.5839 16.3775 31.5613 16.6763C31.5613 16.6763 31.5391 17.0853 32.0884 17.0644C32.0884 17.0644 32.8214 17.0161 32.8436 17.6821C32.8436 17.6821 32.935 18.5503 31.8823 18.3895C31.8823 18.3895 31.5613 18.4369 31.5146 18.6416L31.4699 19.7845C31.4699 19.7845 31.4932 20.3568 30.8501 20.2204C30.7587 20.2204 27.28 20.2876 26.9812 20.1979C26.9812 20.1979 26.8213 20.175 26.7758 20.2647" fill="white"/>
<path fill-rule="evenodd" clip-rule="evenodd" d="M40.398 20.2655C40.398 20.2655 40.1459 21.0677 39.0252 20.2433L35.1776 20.1505C35.1776 20.1505 34.6738 20.3121 34.6054 19.7861C34.6054 19.7861 34.6976 18.7345 34.6509 18.6424C34.6509 18.6424 34.6738 18.3456 34.1684 18.3456C34.1684 18.3456 33.3912 18.4369 33.3678 17.7496C33.3678 17.7496 33.2321 17.0181 34.3073 17.0422C34.3073 17.0422 34.6509 17.2019 34.6738 16.7664C34.6738 16.7664 34.6287 13.7925 34.6509 13.5652C34.6509 13.5652 34.7431 13.2922 34.2151 13.2455C34.2151 13.2455 33.46 13.4052 33.3678 12.9033C33.3678 12.9033 33.3227 12.1488 33.8273 12.1018C33.8273 12.1018 34.4451 12.1488 34.5591 11.9876C34.5591 11.9876 34.6976 12.0781 34.6738 11.5319L34.6976 10.5922C34.6976 10.5922 34.7637 10.3416 35.1539 10.3661C35.1539 10.3661 35.8643 10.4112 35.9573 10.3416C35.9573 10.3416 36.1156 10.1369 36.1623 10.0436C36.1623 10.0436 36.5295 10.0215 36.5972 10.1136C36.5972 10.1136 37.1473 10.4795 39.231 10.3416C39.231 10.3416 39.5523 10.3416 39.6192 10.4337C39.6192 10.4337 40.0098 10.7301 40.2382 10.4111C40.2382 10.4111 40.5817 10.3416 41.6114 10.3661C41.6114 10.3661 42.7354 10.6621 43.5118 10.0215L43.7643 10.0677C43.7643 10.0677 44.0849 10.5922 44.3137 10.4337C44.3137 10.4337 45.0015 10.3661 45.1151 10.5024C45.1151 10.5024 45.343 10.8431 45.2294 11.7382C45.2294 11.7382 45.0937 12.1255 45.757 12.1255C45.757 12.1255 46.5137 11.9876 46.4207 12.6962C46.4207 12.6962 46.6264 13.4973 45.3683 13.3835C45.3683 13.3835 45.2073 13.6123 45.2294 13.7723C45.2294 13.7723 45.2073 16.3783 45.1839 16.6771C45.1839 16.6771 45.1618 17.0892 45.7103 17.0651C45.7103 17.0651 46.444 17.0181 46.4681 17.6821C46.4681 17.6821 46.5592 18.5511 45.5045 18.3902C45.5045 18.3902 45.1839 18.4369 45.1364 18.6424L45.0937 19.7861C45.0937 19.7861 45.1151 20.3576 44.4751 20.2196C44.3837 20.2196 40.903 20.29 40.6046 20.1987C40.6046 20.1987 40.4424 20.1758 40.398 20.2655" fill="#7C7A7A"/>
<path fill-rule="evenodd" clip-rule="evenodd" d="M39.9189 19.1577C39.9189 19.1577 39.4839 19.1577 39.5061 19.7307C39.5061 19.7307 39.5524 20.1635 40.0103 20.1635C40.0103 20.1635 40.4211 20.0959 40.3772 19.6386C40.3772 19.6386 40.1247 19.0672 39.9189 19.1577V19.1577ZM45.1159 13.0625C45.1156 13.0629 44.888 13.1992 44.9561 13.4743L44.8876 16.7908C44.8876 16.7908 44.8417 17.3619 45.3918 17.3401C45.3918 17.3401 45.9633 17.3164 46.0784 17.4998C46.0784 17.4998 46.4698 18.0713 45.6213 18.0254C45.6213 18.0254 45.0942 18.0013 44.9798 18.0942C44.9798 18.0942 44.8876 18.2076 44.8191 19.2837C44.8191 19.2837 44.8662 19.9244 44.3846 19.854C44.3846 19.854 41.2007 19.8991 40.9035 19.8319C40.9035 19.8319 40.5834 19.9244 40.5371 19.6714C40.5371 19.6714 40.537 19.4865 40.858 19.4865L44.0628 19.4643C44.0628 19.4643 44.3616 19.6248 44.3616 19.0767C44.3616 19.0767 44.4788 16.5841 44.4895 13.8395C44.493 13.0226 44.5302 12.1654 44.5013 11.371C44.5013 11.371 44.4301 11.0276 44.3379 10.9577C44.3379 10.9577 44.3379 10.5925 44.7277 10.73C44.7277 10.73 45.0712 10.7529 44.9798 11.2805L45.0036 12.0776C45.0036 12.0776 44.9347 12.4227 45.5513 12.3302C45.5513 12.3302 46.1691 12.4227 46.1936 12.6499C46.1936 12.6499 46.3764 13.1091 45.6451 13.0625H45.1159ZM35.3621 19.8315C34.9035 19.8101 34.9498 19.4651 34.9498 19.4651V18.5965C34.9727 18.1373 34.4927 18.0475 34.4927 18.0475C33.829 18.1831 33.6675 17.7721 33.6675 17.7721C33.6434 17.2919 34.4242 17.3409 34.4242 17.3409C35.0649 17.3409 34.8813 16.7667 34.8813 16.7667L34.9276 13.3126C34.8813 12.972 34.0565 12.972 34.0565 12.972C33.5302 13.0625 33.6675 12.5586 33.6675 12.5586C33.9196 12.3069 34.4697 12.3306 34.4697 12.3306C34.9498 12.3535 34.9498 11.8267 34.9498 11.8267L34.9727 10.8901C35.4991 10.4107 35.5921 10.7976 35.5921 10.7976C35.2937 11.256 35.3621 12.3784 35.3621 12.3784L35.3408 12.2847C35.3621 12.3989 35.317 18.8474 35.317 18.8474C35.3621 19.5576 35.8438 19.3968 35.8438 19.3968L38.8203 19.443C39.0945 19.443 39.1167 19.6252 39.1167 19.6252C39.1167 19.8536 38.935 19.8319 38.9346 19.8315H35.3621ZM36.0037 18.8372C36.0037 18.8372 35.9115 19.1577 36.2546 19.0909H38.6145L39.2544 19.2296C39.2544 19.2296 39.9185 19.0672 39.2544 18.7012C39.2544 18.7012 37.1482 18.7222 36.9646 18.6783L36.4362 18.5412C36.4362 18.5412 36.2087 18.4499 36.0037 18.8372V18.8372ZM40.239 18.93C40.239 18.93 40.4448 18.7012 40.583 18.7012C40.583 18.7012 42.8736 18.9063 43.261 18.6321C43.261 18.6321 43.6065 18.5641 43.6987 18.6321C43.6987 18.6321 44.0411 18.9063 44.0411 19.068C44.0411 19.068 44.0189 19.275 43.6065 19.1577C43.6065 19.1577 41.0171 19.183 40.8798 19.183C40.8798 19.183 40.1686 19.3418 40.239 18.93ZM35.6756 18.7818C35.6483 18.785 35.5644 18.7727 35.545 18.5056L35.5913 11.6457C35.5913 11.6457 35.6364 10.7972 36.0725 10.8426C36.0725 10.8426 36.1172 11.3007 36.1172 11.4165C36.1172 11.5307 36.0504 18.0254 36.0504 18.0254C36.0504 18.0254 36.1161 18.5178 35.6973 18.772L35.6839 18.7799L35.6756 18.7818ZM44.2849 12.0776L44.201 18.3459C44.1788 18.5744 44.1333 18.7135 44.1333 18.7135C43.8361 18.781 43.6524 18.1381 43.6524 18.1381L43.675 10.9118C44.0628 10.3649 44.2932 11.4603 44.2932 11.4603V11.4611L44.2849 12.0776ZM40.0332 11.0031C40.0332 11.0031 39.9648 14.4564 39.9877 14.5706L39.9426 17.4741L39.8496 18.4811C39.8496 18.4811 39.9877 18.6866 40.1025 18.5498C40.1025 18.5498 40.8351 18.3645 41.2929 18.4364C41.2929 18.4364 42.76 18.5724 43.0564 18.342C43.0564 18.342 43.286 18.4566 43.3533 18.0906C43.3533 18.0906 43.4435 11.6896 43.4015 11.5753C43.4015 11.5753 43.4898 10.6581 43.4435 10.5688C43.4435 10.5688 43.4237 10.3633 43.0335 10.5451C43.0335 10.5451 43.0782 10.7292 40.9043 10.6581C40.9043 10.6581 40.0799 10.6356 40.0332 11.0031ZM36.416 10.6356L36.3468 17.9784C36.3468 17.9784 36.3246 18.3191 36.8969 18.3882C36.8969 18.3882 37.5606 18.4562 37.7197 18.3882C37.7197 18.3882 38.1574 18.3645 39.2774 18.4111C39.2774 18.4111 39.5536 18.6882 39.5769 18.3424C39.5769 18.3424 39.7582 12.3989 39.6692 11.1612C39.6692 11.1612 39.6438 10.6356 39.256 10.6126C39.256 10.6126 37.5151 10.7529 37.3548 10.6126L36.6673 10.4316C36.6673 10.4316 36.3923 10.4538 36.416 10.6356Z" fill="white"/>
<path fill-rule="evenodd" clip-rule="evenodd" d="M38.4122 12.9162C39.3284 13.2137 39.191 13.8773 39.191 13.8773C39.2603 14.5392 38.5503 14.8155 38.5503 14.8155L38.5028 15.1814L39.1681 16.2315C39.2825 16.3232 39.2603 16.416 39.2603 16.416C39.1681 16.6678 38.8008 16.416 38.8008 16.416L37.9777 15.1344C37.9084 15.0423 37.7707 15.2036 37.7707 15.2036L37.7256 15.9122L37.9298 16.2544C38.0687 16.437 37.8391 16.5757 37.8391 16.5757L37.1062 16.5073C36.9705 16.437 37.1062 16.209 37.1062 16.209C37.2898 16.0963 37.3128 15.7972 37.3128 15.7972L37.2898 14.4713L37.3128 13.5109C37.3128 13.3955 37.1299 13.1916 37.1299 13.1916C36.9705 13.1687 37.0156 12.9628 37.0156 12.9628C37.0611 12.8482 37.4477 12.9162 37.4489 12.9162H38.4122ZM40.8615 13.0766C40.7935 12.894 41.251 12.8711 41.251 12.8711L41.4809 12.9162C41.6416 12.894 41.8019 12.9628 41.8019 12.9628C41.9617 13.2137 41.6867 13.3505 41.6867 13.3505L41.5953 13.6488C41.5715 13.901 41.5953 16.0734 41.5953 16.0734C41.6416 16.186 41.824 16.3911 41.824 16.3911C41.824 16.5978 41.5715 16.5528 41.5715 16.5528L40.9086 16.5757C40.702 16.5528 40.7701 16.3232 40.7701 16.3232C40.9993 16.2094 41.0685 15.7964 41.0685 15.7964V13.5338L40.8615 13.0766ZM37.7936 13.3955C37.8162 13.9002 37.8162 14.5863 37.8162 14.5863C38.2523 14.9297 38.5028 14.4479 38.5028 14.4479C39.0743 13.9002 38.5028 13.3955 38.4122 13.26C38.3192 13.1217 37.8613 13.2363 37.8613 13.2363L37.7936 13.3955ZM33.001 24.0877C33.001 24.0877 33.1617 24.0201 33.2068 23.9075C33.2068 23.9075 33.6885 23.8604 33.7561 23.7925L35.2683 23.9075C35.2683 23.9075 36.7564 24.0201 37.3975 23.5609C37.3975 23.5609 37.6282 23.5609 37.7885 23.6304C37.7885 23.6304 38.1075 23.7004 38.1989 23.8355L39.0699 23.8126C39.0699 23.8126 39.5737 23.9743 39.527 24.2948V24.7054C39.527 24.7054 39.4348 25.529 39.6636 25.576H40.3296C40.3296 25.576 40.8797 25.827 40.8105 26.1467C40.8105 26.1467 40.8334 26.6023 40.3534 26.6952C40.3534 26.6952 39.8702 26.8316 39.7119 26.8098C39.7119 26.8098 39.5508 27.0149 39.527 27.2663L39.4602 30.2627C39.4602 30.2627 39.4135 30.5824 39.8947 30.537C39.8947 30.537 40.6031 30.4682 40.8105 30.8586C40.8105 30.8586 40.9941 31.5206 40.6276 31.6348L40.3534 31.7704L39.7566 31.8656C39.7566 31.8656 39.5061 31.8866 39.4823 32.3205V33.1196C39.4823 33.1196 39.5061 33.6705 39.0699 33.6705L38.4284 33.7163C38.4284 33.7163 38.2685 33.8515 37.9484 33.7602C37.9484 33.7602 34.0549 33.8306 33.9172 33.7843L33.4589 33.8768C33.4589 33.8768 32.9555 34.334 32.5431 33.9894L32.2226 33.7381C32.2226 33.7381 31.993 33.7843 31.9032 33.7602C31.8114 33.7381 27.597 33.8072 27.597 33.8072C27.597 33.8072 26.7038 33.8997 26.6361 33.6009C26.6361 33.6009 26.5217 32.4355 26.5672 32.296C26.5672 32.296 26.5672 31.9545 26.3614 31.9324C26.3614 31.9324 25.4678 31.8866 25.4448 31.7937C25.4448 31.7937 24.9632 31.4522 25.1009 31.11C25.1009 31.11 25.262 30.6508 25.7421 30.6053C25.7421 30.6053 26.475 30.7211 26.475 30.5148C26.475 30.5148 26.5217 30.3777 26.5217 30.1497C26.5217 30.1497 26.5672 27.4267 26.5439 27.2441C26.5439 27.2441 26.6123 26.9011 26.3143 26.9011C26.3143 26.9011 25.9942 26.992 25.7888 26.8553C25.7888 26.8553 25.2391 26.8786 25.1247 26.4435C25.1247 26.4435 25.0325 26.1696 25.169 25.9388C25.169 25.9388 25.4219 25.4365 26.1548 25.5973C26.1548 25.5973 26.5672 25.7123 26.6123 25.4163L26.591 24.3161C26.591 24.3161 26.498 24.0201 27.071 23.8604C27.071 23.8604 27.8036 24.0655 28.0319 23.7004C28.0319 23.7004 28.2848 23.1957 28.4882 23.5387C28.4882 23.5387 28.9251 23.9513 30.116 23.9075C30.116 23.9075 32.1775 23.7458 32.2226 23.8355C32.2226 23.8355 32.7268 23.9075 32.8633 24.0655L33.001 24.0877Z" fill="#7C7A7A"/>
<path fill-rule="evenodd" clip-rule="evenodd" d="M32.8881 32.6405C32.8881 32.6405 33.2768 32.7081 33.2768 33.0748C33.2768 33.44 33.3001 33.6463 33.0698 33.6913C32.8414 33.7376 32.5901 33.67 32.5225 33.3728C32.452 33.0748 32.5664 32.7081 32.8881 32.6405V32.6405ZM27.5521 24.3855C27.5521 24.3855 27.2771 24.8894 27.3001 25.0048L27.2771 26.535C27.2771 26.535 27.2541 27.5183 27.2771 27.6333C27.3001 27.7467 27.2541 30.6289 27.2541 30.6289C27.2541 30.6289 27.2312 31.1763 27.2541 31.3604V32.5946C27.2541 32.5946 27.2082 33.1444 27.6198 33.0049C27.6198 33.0049 31.651 32.9144 31.9035 32.9839C31.9035 32.9839 32.2684 33.0519 32.133 33.2349C32.133 33.2349 32.133 33.3961 31.879 33.3495C31.879 33.3495 29.9785 33.5313 28.2617 33.4637C28.2617 33.4637 27.1168 33.5313 27.0468 33.3961C27.0468 33.3961 26.8647 33.3732 26.8647 32.7089C26.8647 32.7089 26.8647 32.0931 26.82 31.9785C26.82 31.9785 26.8647 31.6545 26.2925 31.5881C26.2925 31.5881 25.4911 31.7264 25.4681 31.2462C25.4681 31.2462 25.5821 30.9032 26.3613 30.9478C26.3613 30.9478 26.934 31.0395 26.82 30.5811L26.8877 27.199C26.8877 27.199 26.9581 26.6018 26.5675 26.5781C26.5675 26.5781 26.2026 26.5595 26.0859 26.6018C26.0859 26.6018 25.4222 26.6018 25.4681 26.2157C25.4681 26.2157 25.6972 25.8031 26.3613 25.8952C26.3613 25.8952 26.8647 25.9857 26.8877 25.4158C26.8877 25.4158 26.8647 24.2484 27.139 24.2037C27.139 24.2037 27.7128 24.2247 27.5521 24.3855V24.3855ZM38.6923 24.201C38.7592 24.1836 39.0991 24.1034 39.1601 24.2476C39.1601 24.2476 39.3449 24.7946 39.1838 25.1159C39.1838 25.1159 39.1375 25.7802 39.4842 25.7802C39.4842 25.7802 39.6192 25.9181 39.8942 25.8486C39.8942 25.8486 40.4894 25.9181 40.4894 26.0991C40.4894 26.0991 40.4894 26.5125 40.077 26.4437L39.5266 26.488C39.5266 26.488 39.1601 26.5587 39.2068 26.9915C39.2539 27.4262 39.1838 30.5364 39.1838 30.5364C39.1838 30.5364 39.1838 30.904 39.7577 30.8811C39.7577 30.8811 40.4669 30.8573 40.4669 31.0621C40.4669 31.0621 40.6493 31.5193 40.1463 31.543C40.1463 31.543 39.1838 31.5193 39.2539 31.7932C39.2539 31.7932 39.1838 32.435 39.1375 32.5476C39.1375 32.5476 39.2313 33.0748 39.115 33.1669C39.115 33.1669 39.0473 33.4629 38.4295 33.4178C38.4295 33.4178 34.4913 33.3953 33.8724 33.4408C33.8724 33.4408 33.5051 33.3953 33.5965 33.0748C33.5965 33.0748 33.8724 32.9361 34.056 32.9835C34.2392 33.029 36.9177 32.961 36.9177 32.961C36.9177 32.961 38.0856 33.0519 38.2696 32.8899L38.5423 32.7994C38.5423 32.7994 38.6575 32.663 38.6575 32.4812C38.6575 32.2963 38.6808 31.6786 38.6808 31.6786L38.7505 31.4517C38.7505 31.4517 38.7267 31.2229 38.7505 25.1159C38.7505 25.1159 38.8403 24.6381 38.5423 24.3389C38.5423 24.3389 38.5423 24.1579 38.6337 24.1792L38.6923 24.201L38.6808 24.2041L38.6923 24.201ZM36.8983 32.2287C36.9466 32.2283 37.4532 32.2188 37.6048 32.0208C37.6048 32.0208 37.765 31.9781 37.8573 32.1374L38.1992 32.5053C38.1992 32.5053 38.2237 32.7266 37.8493 32.7096L37.8335 32.7089C37.7722 32.7089 34.0995 32.7089 33.986 32.7326C33.986 32.7326 33.2764 32.8456 33.3444 32.4579C33.3444 32.4579 33.7564 32.1817 33.9167 32.2287C33.9167 32.2287 36.0015 32.3654 36.6435 32.2532C36.9442 32.199 37.0182 32.1903 37.0119 32.1963L36.8983 32.2287ZM28.238 31.954C28.238 31.954 28.2954 32.0149 28.401 32.0836L28.403 32.0852C28.5483 32.1789 28.7833 32.2868 29.0869 32.2745L32.1825 32.3196L32.1995 32.32C32.1995 32.32 32.5442 32.3437 32.5232 32.5255C32.5232 32.5255 32.475 32.8001 32.065 32.7096L28.3065 32.6642L27.9032 32.6875L27.8941 32.6879H27.8933C27.8933 32.6879 27.619 32.6413 28.0552 32.1145L28.2372 31.9532L28.238 31.954ZM28.014 31.6205C28.0112 31.7718 27.9665 32.0647 27.6891 32.2753C27.6891 32.2753 27.4805 32.5263 27.4805 32.139L27.5743 25.0945C27.5743 25.0945 27.5969 24.5673 27.9186 24.3389C27.9186 24.3389 28.0793 24.3389 28.0575 24.6136L28.0092 31.5201L28.014 31.6205ZM38.2696 32.2548C38.1315 32.1817 37.8557 31.6556 37.8557 31.6556L37.879 31.4984L37.9241 24.476C37.9241 24.1113 38.2237 24.3389 38.2237 24.3389L38.4988 24.8428C38.4295 25.2072 38.4988 25.4352 38.4988 25.4352L38.4533 32.0232C38.5158 32.5033 38.312 32.3006 38.2752 32.2611L38.2696 32.2548ZM32.773 28.5237C32.773 28.5237 32.7963 29.0706 32.7263 29.5955C32.6891 29.8859 32.8189 31.2217 32.7033 31.9066C32.7033 31.9066 32.6823 32.1358 32.1991 31.9311C32.1991 31.9311 29.2689 31.9987 29.1775 31.9066C29.1775 31.9066 28.3765 31.9311 28.3073 31.5185C28.3073 31.5185 28.4216 28.3858 28.3532 28.2692C28.3532 28.2692 28.3073 26.5548 28.3532 26.3955C28.3532 26.3955 28.4216 24.8175 28.3765 24.6349C28.3765 24.6349 28.3995 24.269 28.3302 24.0852C28.3302 24.0852 28.3302 23.8564 28.7204 23.9931C28.7204 23.9931 28.8558 24.2452 29.6125 24.1334C29.6125 24.1334 30.163 24.2239 30.6901 24.1547C30.6901 24.1547 31.8568 24.0634 32.1556 24.1547C32.1556 24.1547 32.6139 24.0634 32.7492 24.5681L32.7263 25.9849L32.8628 26.4422L33.0243 26.3283L33.0919 25.9849L33.1149 24.4752C33.1149 24.4752 33.2063 24.2002 33.5744 24.1547C33.5744 24.1547 34.1466 24.0852 34.2392 24.1334C34.3307 24.1773 35.5654 24.2452 35.9109 24.1773C36.2532 24.1089 36.3209 24.4057 37.3535 23.8809C37.3535 23.8809 37.6285 23.9042 37.6285 24.0852C37.6285 24.0852 37.5347 26.0319 37.6285 26.3955C37.6285 26.3955 37.6285 29.9622 37.5569 30.214L37.6036 31.3573C37.6036 31.3573 37.6491 31.8608 36.8493 31.9066C36.8493 31.9066 37.3535 31.9754 34.191 31.8841C34.191 31.8841 33.688 31.8608 33.1386 32.1117C33.1386 32.1117 33.0243 32.0892 33.0243 31.7924C33.0243 31.7924 33.1149 30.7186 33.0243 29.6646L32.9799 28.4988L32.773 28.5237Z" fill="white"/>
<path fill-rule="evenodd" clip-rule="evenodd" d="M30.712 26.9009C30.712 26.9009 30.7813 28.5924 30.712 28.8212L30.6902 29.1879C30.6902 29.1879 30.7813 29.4377 30.9186 29.5306C30.9186 29.5306 31.0338 29.8495 30.7579 29.8274C30.7579 29.8274 30.1864 29.7815 30.0491 29.8029C30.0491 29.8029 29.7274 29.8029 30.0491 29.3938C30.0491 29.3938 30.1635 29.2314 30.1397 28.8212C30.1397 28.8212 30.1397 26.9009 30.1864 26.7875C30.1864 26.7875 30.232 26.5345 30.0713 26.4654L29.7954 26.4891L29.4535 26.8092C29.4535 26.8092 29.3839 27.1534 29.2236 26.7875V26.6029L29.4309 26.0544L29.5683 26.0303C29.5683 26.0303 29.7733 26.1678 29.9561 26.2152H31.0338L31.4224 26.0303C31.4224 26.0303 31.5823 26.0544 31.5383 26.2599C31.5383 26.2599 31.6052 26.7875 31.308 26.8543C31.308 26.8543 31.1244 26.7875 31.0338 26.5345C31.0338 26.5345 30.7358 26.3757 30.712 26.9009V26.9009ZM35.7725 26.2836C35.7725 26.2836 34.9035 26.2144 34.8821 27.1518C34.8821 27.1518 34.7875 27.7937 35.7508 28.2058C35.7508 28.2058 36.4616 28.5473 36.4137 28.9812C36.4137 28.9812 36.3223 29.759 35.5664 29.3709C35.5664 29.3709 35.2011 29.1867 35.2252 28.9812C35.2252 28.9812 35.1089 28.7291 34.9719 28.7757C34.9719 28.7757 34.8109 28.8204 34.8821 29.5756C34.8821 29.5756 34.8821 29.8732 35.2252 29.5756L35.4061 29.6226C35.4061 29.6226 36.025 30.1257 36.5506 29.5068C36.5506 29.5068 37.1245 28.9812 36.7109 28.3414C36.7109 28.3414 36.4137 27.8857 35.8877 27.6565C35.8877 27.6565 35.3839 27.4257 35.2699 27.0376C35.2699 27.0376 35.4306 26.3504 36.0476 26.7163C36.0476 26.7163 36.2771 26.991 36.4137 27.0376C36.4137 27.0376 36.5973 27.0376 36.5506 26.6243L36.5075 26.2836C36.5075 26.2836 36.4616 26.0291 36.1394 26.2836C36.1394 26.2836 35.8414 26.3962 35.7725 26.2836V26.2836ZM32.9793 25.8018C33.1392 25.9184 33.1621 26.1465 33.1621 26.1465C33.62 27.3574 34.0102 29.1199 34.0102 29.1199C34.1238 29.3464 34.3308 29.5306 34.3308 29.5306C34.7198 29.6669 34.3308 29.7807 34.3308 29.7807C34.1701 29.8503 33.6446 29.7598 33.6446 29.7598C33.3683 29.7108 33.4819 29.6218 33.4819 29.6218C33.5979 29.5076 33.5057 29.0488 33.5057 29.0488C33.4819 28.8678 33.2777 28.5694 33.2777 28.5694C33.1863 28.5232 33.0256 28.7291 33.0256 28.7291C33.0256 28.7291 32.7743 28.8208 32.7498 28.7291C32.7268 28.6362 32.5669 28.5497 32.5669 28.5497C32.2919 28.5497 32.1783 29.2314 32.1783 29.2314C32.3382 29.8036 32.1783 29.7108 32.1783 29.7108C32.0418 29.8957 31.6052 29.7598 31.6052 29.7598C31.3994 29.7108 31.5383 29.5515 31.5383 29.5515C31.7889 29.5076 31.8573 29.2314 31.8573 29.2314C31.9725 29.0717 32.7039 26.0998 32.7039 26.0998C32.7743 25.9615 32.819 25.6876 32.9793 25.8018V25.8018ZM32.6148 27.3107C32.5907 27.4257 32.4296 28.0663 32.4296 28.0663L32.5669 28.2971C32.5669 28.2971 32.9342 28.3177 33.0707 28.3177C33.2069 28.3177 33.2314 28.2058 33.2314 28.0893C33.2314 27.9758 32.9793 27.2898 32.9793 27.2898L32.8637 27.1526L32.6148 27.3107ZM26.7758 20.2647C26.7758 20.2647 26.5233 21.0669 25.4014 20.2418L21.5542 20.1497C21.5542 20.1497 21.0504 20.3113 20.9812 19.7845C20.9812 19.7845 21.0734 18.7337 21.0259 18.6416C21.0259 18.6416 21.0504 18.3432 20.5458 18.3432C20.5458 18.3432 19.7686 18.4369 19.746 17.7504C19.746 17.7504 19.6079 17.0161 20.6839 17.0414C20.6839 17.0414 21.0259 17.2011 21.0504 16.7664C21.0504 16.7664 21.0045 13.7941 21.0259 13.5641C21.0259 13.5641 21.1197 13.2922 20.5925 13.2455C20.5925 13.2455 19.8358 13.4044 19.746 12.9013C19.746 12.9013 19.6993 12.1481 20.2023 12.101C20.2023 12.101 20.8209 12.1481 20.936 11.9896C20.936 11.9896 21.0734 12.0781 21.0504 11.5288L21.0734 10.5922C21.0734 10.5922 21.1426 10.3408 21.5297 10.3637C21.5297 10.3637 22.2416 10.4088 22.3338 10.3408C22.3338 10.3408 22.4937 10.1361 22.5377 10.0428C22.5377 10.0428 22.9061 10.0215 22.9746 10.1104C22.9746 10.1104 23.5231 10.4787 25.6091 10.3408C25.6091 10.3408 25.9281 10.3408 25.997 10.4329C25.997 10.4329 26.386 10.7293 26.6147 10.4088C26.6147 10.4088 26.9583 10.3408 27.9896 10.3637C27.9896 10.3637 29.1096 10.6605 29.8892 10.0215L30.1405 10.0685C30.1405 10.0685 30.4607 10.5922 30.6918 10.4329C30.6918 10.4329 31.3781 10.3637 31.4932 10.5017C31.4932 10.5017 31.7228 10.8447 31.606 11.7374C31.606 11.7374 31.4699 12.1255 32.1336 12.1255C32.1336 12.1255 32.8887 11.9896 32.798 12.6954C32.798 12.6954 33.0046 13.4965 31.7449 13.3827C31.7449 13.3827 31.5839 13.6119 31.606 13.7715C31.606 13.7715 31.5839 16.3775 31.5613 16.6763C31.5613 16.6763 31.5391 17.0853 32.0884 17.0644C32.0884 17.0644 32.8214 17.0161 32.8436 17.6821C32.8436 17.6821 32.935 18.5503 31.8823 18.3895C31.8823 18.3895 31.5613 18.4369 31.5146 18.6416L31.4699 19.7845C31.4699 19.7845 31.4932 20.3568 30.8501 20.2204C30.7587 20.2204 27.28 20.2876 26.9812 20.1979C26.9812 20.1979 26.8213 20.175 26.7758 20.2647" fill="#7C7A7A"/>
<path fill-rule="evenodd" clip-rule="evenodd" d="M22.4483 10.8441C22.4483 10.8441 22.4946 11.3006 22.4946 11.4148C22.4946 11.529 22.4245 18.0245 22.4245 18.0245C22.4245 18.0245 22.4946 18.5288 22.0576 18.7805C22.0576 18.7805 21.9437 18.8268 21.9199 18.5067L21.9654 11.6456C21.9654 11.6456 22.0113 10.7987 22.4483 10.8441V10.8441ZM30.0492 10.9117L30.0266 18.1387C30.0266 18.1387 30.2102 18.7809 30.509 18.7122C30.509 18.7122 30.5545 18.5743 30.5767 18.3442L30.6697 11.4602C30.6697 11.4602 30.4402 10.3624 30.0492 10.9117V10.9117Z" fill="#7C7A7A" stroke="#7C7A7A" stroke-width="0.0250997"/>
<path fill-rule="evenodd" clip-rule="evenodd" d="M26.2263 19.2165C26.2263 19.2165 25.7902 19.2165 25.8128 19.7848C25.8128 19.7848 25.8591 20.2219 26.3162 20.2219C26.3162 20.2219 26.7286 20.1508 26.6842 19.6959C26.6842 19.6959 26.4313 19.1229 26.2263 19.2165V19.2165ZM31.4931 13.0633C31.4927 13.0637 31.2635 13.2 31.332 13.4751L31.2635 16.7904C31.2635 16.7904 31.216 17.3619 31.7673 17.3409C31.7673 17.3409 32.34 17.3172 32.4528 17.4998C32.4528 17.4998 32.8438 18.0721 31.9957 18.0262C31.9957 18.0262 31.4685 18.0021 31.3542 18.0934C31.3542 18.0934 31.2635 18.21 31.1943 19.2833C31.1943 19.2833 31.2398 19.924 30.7589 19.8548C30.7589 19.8548 27.5759 19.8991 27.2794 19.8315C27.2794 19.8315 26.9577 19.924 26.9122 19.6722C26.9122 19.6722 26.9122 19.4904 27.2312 19.4904L30.4396 19.4667C30.4396 19.4667 30.736 19.6244 30.736 19.0774C30.736 19.0774 30.8535 16.5841 30.8638 13.8395C30.8682 13.0234 30.9038 12.1662 30.8729 11.3718C30.8729 11.3718 30.8044 11.0296 30.713 10.9592C30.713 10.9592 30.713 10.5933 31.104 10.732C31.104 10.732 31.4448 10.7537 31.3542 11.2789L31.3767 12.08C31.3767 12.08 31.3083 12.4227 31.9264 12.3314C31.9264 12.3314 32.5442 12.4227 32.5664 12.6515C32.5664 12.6515 32.7516 13.1099 32.0194 13.0633H31.4931ZM21.7357 19.8319C21.2782 19.8109 21.3265 19.4675 21.3265 19.4675V18.5961C21.3471 18.1412 20.867 18.0491 20.867 18.0491C20.2017 18.1871 20.0415 17.7753 20.0415 17.7753C20.0189 17.2951 20.7974 17.339 20.7974 17.339C21.4393 17.339 21.2556 16.7675 21.2556 16.7675L21.3012 13.3134C21.2556 12.9728 20.4301 12.9728 20.4301 12.9728C19.9045 13.0633 20.0415 12.561 20.0415 12.561C20.294 12.3077 20.8441 12.3314 20.8441 12.3314C21.3265 12.3543 21.3265 11.8283 21.3265 11.8283L21.3471 10.8901C21.8742 10.4107 21.966 10.7996 21.966 10.7996C21.6692 11.2584 21.7357 12.3776 21.7357 12.3776L21.7143 12.2847C21.7357 12.3997 21.6914 18.8482 21.6914 18.8482C21.7357 19.558 22.2197 19.3976 22.2197 19.3976L25.1954 19.445C25.4689 19.445 25.4922 19.6252 25.4922 19.6252C25.4922 19.8544 25.3098 19.8319 25.309 19.8319H21.7357ZM22.5601 19.145C22.2181 19.2169 22.3087 18.8945 22.3087 18.8945C22.5137 18.5064 22.7437 18.5977 22.7437 18.5977C22.8359 18.6198 23.2704 18.7332 23.2704 18.7332C23.4541 18.7806 25.5619 18.7565 25.5619 18.7565C26.2275 19.1237 25.5619 19.2833 25.5619 19.2833L24.9196 19.145H22.5601ZM26.5449 18.9858C26.5449 18.9858 26.7511 18.7565 26.8892 18.7565C26.8892 18.7565 29.1791 18.9636 29.5685 18.6894C29.5685 18.6894 29.914 18.6206 30.0038 18.6894C30.0038 18.6894 30.3474 18.9636 30.3474 19.1237C30.3474 19.1237 30.3252 19.3316 29.914 19.2165C29.914 19.2165 27.3238 19.2387 27.1864 19.2387C27.1864 19.2387 26.4761 19.3983 26.5449 18.9858V18.9858ZM22.4469 10.8458C22.4469 10.8458 22.4932 11.3023 22.4932 11.4165C22.4932 11.5307 22.4231 18.0254 22.4231 18.0254C22.4231 18.0254 22.4932 18.5301 22.057 18.7803C22.057 18.7803 21.9431 18.8269 21.9193 18.5068L21.9664 11.6465C21.9664 11.6465 22.0115 10.7996 22.4469 10.8458V10.8458ZM30.0486 10.9126L30.026 18.1396C30.026 18.1396 30.2096 18.7818 30.5084 18.7131C30.5084 18.7131 30.5539 18.5751 30.5761 18.3451L30.6691 11.4611C30.6691 11.4611 30.4396 10.3633 30.0486 10.9126V10.9126ZM26.4096 10.9743C26.4096 10.9743 26.3407 14.4267 26.3625 14.5425L26.3189 17.4472L26.2263 18.4507C26.2263 18.4507 26.3625 18.6593 26.4773 18.521C26.4773 18.521 27.211 18.3392 27.6689 18.4068C27.6689 18.4068 29.1352 18.5447 29.4316 18.3155C29.4316 18.3155 29.6607 18.4289 29.7296 18.063C29.7296 18.063 29.8202 11.6611 29.7751 11.5465C29.7751 11.5465 29.8673 10.6328 29.8202 10.5423C29.8202 10.5423 29.7973 10.3344 29.4102 10.5162C29.4102 10.5162 29.4545 10.7008 27.2802 10.6328C27.2802 10.6328 26.4551 10.6091 26.4096 10.9743V10.9743ZM22.7888 10.6379L22.7223 17.9792C22.7223 17.9792 22.699 18.3198 23.2712 18.389C23.2712 18.389 23.9365 18.4578 24.0956 18.389C24.0956 18.389 24.5293 18.3665 25.6525 18.4127C25.6525 18.4127 25.9275 18.6858 25.9497 18.3443C25.9497 18.3443 26.1333 12.3974 26.0419 11.1635C26.0419 11.1635 26.0198 10.6379 25.6287 10.615C25.6287 10.615 23.8898 10.7514 23.7291 10.615L23.0433 10.4316C23.0433 10.4316 22.7666 10.453 22.7888 10.6379Z" fill="white"/>
<path fill-rule="evenodd" clip-rule="evenodd" d="M27.0317 13.4555L27.0072 15.8796L26.9403 16.0622C26.9403 16.0622 26.7107 16.3582 26.8706 16.3819C26.8706 16.3819 26.666 16.5199 28.3353 16.5424C28.3353 16.5424 28.9784 16.6558 28.8169 15.833C28.8169 15.833 28.7485 15.5358 28.5182 15.9709C28.5182 15.9709 28.4497 16.3349 27.6273 16.2215C27.6273 16.2215 27.4437 16.0622 27.4437 15.8796V14.8727C27.4437 14.8727 27.4191 14.6201 27.8094 14.6462C27.8094 14.6462 28.2439 14.9193 28.3132 14.8035C28.3132 14.8035 28.473 14.4391 28.3132 14.2095C28.3132 14.2095 28.1066 14.1882 28.0844 14.2795C28.0844 14.2795 27.9467 14.5526 27.5573 14.3921C27.5573 14.3921 27.3744 14.027 27.4888 13.7294C27.4888 13.7294 27.4437 13.1575 27.8331 13.2041C27.8331 13.2041 28.2906 13.2946 28.3353 13.4334C28.3353 13.4334 28.4497 13.7088 28.5656 13.3883L28.4497 12.9978C28.4497 12.9978 28.3832 12.8374 28.2676 12.8832C28.2676 12.8832 27.4888 12.9978 27.3962 12.905L26.7776 12.9745C26.7776 12.9745 26.687 13.2041 26.9628 13.3168C26.9628 13.3168 27.0317 13.3638 27.0317 13.4555V13.4555ZM25.7023 13.0891L25.495 13.5254C25.495 13.5254 24.9932 15.7421 24.7189 16.1986C24.7189 16.1986 24.673 16.6574 24.2836 16.2907C24.2836 16.2907 23.3895 13.4788 23.344 13.3867L23.046 13.1808C23.046 13.1808 22.8656 12.9295 23.1842 12.9073L24.0315 12.9295C24.0315 12.9295 24.3057 13.1571 23.94 13.4116C23.94 13.4116 23.9856 13.7772 24.4664 15.1703C24.4664 15.1703 24.6029 15.6963 24.7636 15.3074L25.2223 13.6835L25.0846 13.2033C25.0846 13.2033 24.9465 12.9749 25.1538 12.9524C25.1538 12.9524 25.6347 12.9073 25.7023 13.0891V13.0891Z" fill="#7C7A7A"/>
<path fill-rule="evenodd" clip-rule="evenodd" d="M73.2081 31.4406C73.2081 31.1339 73.0078 30.9066 72.5986 30.8181V30.6197L73.7922 30.6502C73.9759 30.6502 74.7068 30.6197 74.934 30.6197V30.8181C74.5541 30.8924 74.3546 31.1161 74.3546 31.4406V35.3353C74.3546 36.5683 75.0329 37.2654 76.4517 37.2654C77.6738 37.2654 78.6252 36.7173 78.6252 35.4269V31.4255C78.6252 31.1363 78.4432 30.9066 77.9853 30.8181V30.6197C78.1519 30.6197 78.7756 30.6502 78.9889 30.6502L79.9933 30.6197V30.8181C79.5513 30.9236 79.355 31.1208 79.355 31.4255V35.2124C79.355 36.9117 78.3648 37.8879 76.2281 37.8879C74.239 37.8879 73.2081 36.9852 73.2081 35.3882V31.4406ZM81.7406 37.5828C82.2036 37.4966 82.3861 37.2626 82.3861 36.9757V31.5927C82.3861 31.1362 82.1427 30.9307 81.7279 30.8177V30.6189C81.9626 30.6367 82.3568 30.647 82.5578 30.647C82.7403 30.647 83.0244 30.6438 83.216 30.6189L87.8914 36.1087V31.4255C87.8914 31.1366 87.7082 30.9074 87.2515 30.8177V30.6189C87.4193 30.6189 88.0209 30.6502 88.2346 30.6502L89.235 30.6189V30.8177C88.789 30.9224 88.5737 31.122 88.5737 31.4255V37.8879H88.292C88.1147 37.8471 87.7798 37.6567 87.2693 37.0975L83.0858 32.2317V36.9757C83.0858 37.2638 83.2528 37.4927 83.7091 37.5828V37.7819C83.5417 37.7819 82.9401 37.7499 82.726 37.7499L81.7406 37.7819V37.5828ZM118.634 36.1308H118.832C118.937 36.5331 119.167 36.8999 119.49 37.1117C119.827 37.3484 120.354 37.4614 120.78 37.4614C121.72 37.4614 122.317 36.9963 122.317 36.26C122.317 35.4977 121.553 35.1017 120.638 34.6452C119.957 34.305 118.62 33.7434 118.62 32.4523C118.62 31.2501 119.538 30.502 121.007 30.502C121.977 30.502 122.431 30.7387 123.086 30.7082L123.073 32.1669H122.874C122.612 31.3074 121.83 31.0078 120.974 31.0078C120.016 31.0078 119.658 31.5548 119.658 32.1104C119.658 32.9067 120.438 33.3079 121.322 33.7019C122.317 34.1437 123.396 34.7025 123.396 35.9462C123.396 37.1235 122.473 37.9764 120.787 37.9764C119.784 37.9764 119.182 37.6903 118.655 37.6254L118.634 36.1308ZM138.727 34.8187L136.824 31.769C136.499 31.2335 136.25 30.9513 135.888 30.8173V30.6197C136.148 30.6197 136.853 30.6509 137.053 30.6509C137.234 30.6509 137.995 30.6197 138.269 30.6197V30.8173C138.026 30.8604 137.912 30.9821 137.912 31.1655C137.912 31.3271 138.022 31.5354 138.133 31.716C138.242 31.8954 139.536 34.0406 139.536 34.0406L140.889 31.7172C141.025 31.4844 141.122 31.2532 141.122 31.1011C141.122 30.9624 141.023 30.8478 140.793 30.8173V30.6197C141.022 30.6197 141.503 30.6509 141.656 30.6509C141.81 30.6509 142.362 30.6197 142.59 30.6197V30.8039C142.07 31.0169 141.745 31.4726 141.43 32.0006L139.699 34.8891L138.727 34.8187ZM139.817 34.5247V36.9611C139.817 37.2026 140.001 37.5061 140.418 37.5824V37.7819L139.208 37.7499C139.024 37.7499 138.297 37.7819 138.035 37.7819V37.5824C138.453 37.5061 138.653 37.2026 138.653 36.9611V34.6318" fill="#7C7A7A"/>
<path fill-rule="evenodd" clip-rule="evenodd" d="M103.354 30.6185H107.817C107.956 30.6185 108.197 30.6026 108.336 30.543H108.535L108.504 31.9914H108.306C108.136 31.5357 107.96 31.1705 107.096 31.1705H105.158V33.6947H106.651C106.869 33.6947 107.133 33.6765 107.247 33.6492C107.583 33.5761 107.731 33.3896 107.798 33.1039H107.998C107.984 33.322 107.984 33.82 107.984 33.9674C107.984 34.1156 107.998 34.6396 107.998 34.8771H107.798C107.703 34.5918 107.572 34.3752 107.247 34.2958C107.133 34.2654 106.864 34.2405 106.651 34.2405H105.158V37.2013H107.265C108.186 37.2013 108.454 36.8184 108.683 36.2765L108.88 36.3224L108.683 37.8103C107.998 37.7495 107.587 37.7494 106.81 37.7494H104.583L103.351 37.7807V37.5823C103.753 37.5056 103.988 37.3072 103.988 36.9223V31.4464C103.988 31.1069 103.805 30.8951 103.354 30.8192V30.6185ZM91.952 31.4855C91.952 31.118 91.7323 30.916 91.3026 30.8232V30.6268L92.5425 30.6568C92.7316 30.6568 93.5279 30.6268 93.7705 30.6268V30.8232C93.3427 30.916 93.1183 31.099 93.1183 31.4855V36.9235C93.1183 37.2906 93.3387 37.4906 93.7705 37.5815V37.7807L92.5425 37.7494C92.3501 37.7494 91.542 37.7807 91.3018 37.7807V37.5815C91.7414 37.4993 91.952 37.3072 91.952 36.9235V31.4855ZM125.816 31.4855C125.816 31.118 125.594 30.916 125.165 30.8232V30.6268L126.404 30.6568C126.595 30.6568 127.391 30.6268 127.633 30.6268V30.8232C127.205 30.916 126.982 31.099 126.982 31.4855V36.9235C126.982 37.2906 127.202 37.4906 127.633 37.5815V37.7807L126.404 37.7494C126.215 37.7494 125.404 37.7807 125.165 37.7807V37.5815C125.604 37.4993 125.816 37.3072 125.816 36.9235V31.4855ZM132.021 30.6489C129.574 30.6489 129.182 30.6034 128.682 30.5722L128.686 32.0479H128.886C129.068 31.3938 129.433 31.2417 129.905 31.2417H131.44V36.9235C131.44 37.3072 131.23 37.4993 130.79 37.5815V37.7807C131.031 37.7807 131.846 37.7494 132.035 37.7494L133.263 37.7807V37.5815C132.831 37.4906 132.612 37.2906 132.612 36.9235V31.2417H134.134C134.624 31.2417 134.975 31.4081 135.158 32.0479H135.355L135.358 30.5722C134.861 30.6034 134.469 30.6489 132.021 30.6489Z" fill="#7C7A7A"/>
<path fill-rule="evenodd" clip-rule="evenodd" d="M112.495 36.9231C112.495 37.2902 112.728 37.4894 113.16 37.5807V37.7803L111.915 37.7491C111.723 37.7491 110.959 37.7803 110.718 37.7803V37.5807C111.119 37.5044 111.355 37.3068 111.355 36.9231V31.4294C111.355 31.0915 111.17 30.8789 110.72 30.8022V30.6046L111.93 30.6347C112.28 30.6347 113.276 30.5762 113.668 30.5762C115.383 30.5762 116.338 31.2844 116.338 32.4984C116.338 33.4528 115.627 34.0986 114.533 34.3622C114.533 34.3622 114.782 34.5068 115.031 34.7961C115.334 35.1522 116.151 36.3232 116.49 36.7322C116.828 37.1428 117.261 37.6009 117.726 37.6218V37.7819C117.503 37.8305 117.146 37.8728 116.874 37.8728C116.291 37.8728 115.826 37.6673 115.375 37.1215C114.983 36.6465 114.321 35.6608 113.93 35.1629C113.681 34.8459 113.378 34.5981 112.824 34.5068C112.717 34.4887 112.616 34.4736 112.495 34.4594V36.9231ZM112.495 34.0033C112.723 34.0346 113.059 34.0492 113.391 34.0492C114.734 34.0492 115.157 33.2778 115.157 32.5949C115.157 31.6294 114.511 31.031 113.336 31.031C113.093 31.031 112.74 31.0611 112.495 31.1073V34.0033ZM95.4913 31.5081C95.335 31.1623 95.0948 30.9089 94.6855 30.8192V30.6173C94.94 30.6173 95.8218 30.6493 96.0153 30.6493C96.1938 30.6493 96.9643 30.6173 97.2259 30.6173V30.8133C96.9936 30.8579 96.7288 30.9864 96.7288 31.2235C96.7288 31.3934 96.8317 31.6246 97.0288 32.0598L98.8766 36.2584L100.626 32.0522C100.764 31.7128 100.864 31.45 100.864 31.2492C100.864 31.0271 100.658 30.873 100.368 30.8133V30.6173C100.6 30.6173 101.17 30.6493 101.347 30.6493C101.509 30.6493 102.178 30.6173 102.433 30.6173V30.8192C101.996 30.937 101.731 31.1769 101.486 31.7448L98.9118 37.8056H98.3293L95.4913 31.5081Z" fill="#7C7A7A"/>
</svg>
