<svg width="103" height="48" viewBox="0 0 103 48" fill="none" xmlns="http://www.w3.org/2000/svg">
<path fill-rule="evenodd" clip-rule="evenodd" d="M13.2676 34.1415V7.64062H32.0214V34.1415H13.2676ZM31.3475 33.4671V8.31407H13.9415V33.4671H31.3475V33.4671ZM34.0345 34.1415V7.64062H52.7883V34.1415H34.0345ZM53.3335 33.4671L52.9579 27.4479L52.1134 23.3499V8.31407H34.7084V27.2477L33.0996 30.2024L34.7084 31.1878V33.4666H53.3335V33.4671V33.4671ZM54.8008 34.1415V7.64062H73.5542V34.1415H54.8008ZM72.8812 33.4671V8.31407H55.4748V33.4671H72.8812V33.4671ZM75.5677 34.1415V7.64062H94.3211V34.1415H75.5677ZM93.6472 33.4671V8.31407H76.2417V33.4671H93.6472V33.4671Z" fill="#7C7A7A"/>
<path fill-rule="evenodd" clip-rule="evenodd" d="M78.8388 33.5024L79.6843 30.7911H87.2792L84.7395 39.8413C83.7249 40.2431 80.3553 40.6406 77.9608 40.6406C74.3546 40.6406 69.1181 38.2388 71.2701 31.1609C73.8449 22.6919 78.3136 21.8906 81.9198 21.8906C87.1898 21.8906 89.0668 25.2899 88.1217 28.0352L84.4387 28.0303C84.4985 27.9069 84.5184 27.7286 84.5611 27.5862C85.1981 25.4502 83.8843 24.5873 81.57 24.4775C78.1527 24.3167 76.3039 27.0182 75.1417 31.055C73.8881 35.4085 74.9425 38.0673 78.7402 38.0537C81.759 38.0435 81.5977 37.4221 81.5977 37.4221L82.8411 33.5024H78.8388V33.5024ZM12.9446 40.1936H8.92676L14.3075 22.2711H18.3258C18.3253 22.2711 13.0228 39.8257 12.9446 40.1936ZM16.082 30.1877H16.079L23.9305 22.2711H28.8667L19.9904 30.5623L24.5024 40.1936H20.1265L16.0795 30.1702L16.082 30.1877V30.1877ZM27.6024 40.1931L33.0084 22.2691H37.5752C41.7077 22.2191 46.1594 22.1564 45.1391 27.6795C44.6046 30.5705 42.078 33.1181 36.3547 33.1122L33.4053 33.1142L31.2888 40.1931H27.6024ZM34.1021 30.4816C35.4344 30.4816 36.4072 30.5025 37.3031 30.486C39.9964 30.4369 40.8219 29.5055 41.4293 27.68C42.4837 24.511 39.7865 24.8443 35.7449 24.8487L34.1021 30.4816V30.4816ZM64.3618 22.2682H70.2503L65.7859 40.1834H61.6301L66.1921 24.8395L56.2771 40.1834H52.7884L51.8613 24.8375L47.3173 40.1834H43.9501L49.4382 22.2682H55.265C55.265 22.2682 56.1541 31.4636 55.472 37.7665C55.4724 37.767 57.2051 32.1997 64.3618 22.2682Z" fill="#7C7A7A"/>
</svg>
