<svg width="193" height="49" viewBox="0 0 193 49" fill="none" xmlns="http://www.w3.org/2000/svg">
<path fill-rule="evenodd" clip-rule="evenodd" d="M13.8779 14.0658V35.0509H18.4365V21.0502C18.4365 20.4151 18.3804 18.9341 18.2119 16.5751C18.4651 18.0572 18.801 19.2814 19.0278 20.2638L22.4271 35.0498H27.0991L30.5843 20.0209C30.8269 18.9724 31.1745 17.8441 31.4277 16.574C31.2846 18.0312 31.2093 19.4943 31.202 20.9585V35.0498H36.0986V14.0658H28.2764L25.6071 26.5546C25.4312 27.3825 25.1578 28.6408 25.0158 30.3946C24.9321 28.8528 24.7446 27.6094 24.4818 26.675L20.9076 14.0658H13.8779V14.0658ZM51.7729 14.1372C50.2608 13.6108 48.8663 13.3477 47.5862 13.3477C42.2085 13.3477 39.0105 16.4174 39.0105 21.2984C39.0105 26.0048 42.324 29.1959 47.1793 29.1959C49.0104 29.1959 50.6094 28.9626 51.9181 28.4895L51.8015 24.5429C50.8669 25.1231 49.7887 25.427 48.6904 25.4198C45.9872 25.4198 44.3003 23.7533 44.3003 21.2686C44.3003 18.7252 45.8993 17.0886 48.4573 17.0886C49.4162 17.0886 50.4049 17.3518 51.4221 17.9069L51.7729 14.1372V14.1372ZM55.63 14.0658V35.0519H61.1931V25.3143L67.7481 35.0519H74.6654L66.2148 23.7118L73.8823 14.0658H67.658L61.1931 23.1375V14.0658H55.63ZM76.702 14.0658V35.0519H91.5265V30.9998H82.2652V26.2211H90.6851V22.2307H82.2652V17.9975H91.1958V14.0658H76.702ZM110.802 14.3087C109 13.7952 107.104 13.5533 105.09 13.5533C99.4356 13.5533 96.3976 15.9422 96.3976 20.1147C96.3976 23.2281 98.1725 24.8924 101.931 26.252C104.487 27.1896 106.111 27.4624 106.111 29.034C106.111 30.4245 104.787 31.3323 102.562 31.3323C100.999 31.3323 99.1336 30.9093 97.0885 29.9716L96.6074 34.6588C98.7723 35.2682 100.878 35.541 102.892 35.541C108.756 35.541 111.823 32.9966 111.823 28.4309C111.823 26.4651 111.163 25.0437 109.689 23.8951C108.336 22.8669 106.379 22.3224 104.005 21.536C102.711 21.113 102.08 20.4482 102.08 19.5702C102.08 18.331 103.343 17.5447 105.659 17.5447C107.133 17.5447 108.695 17.908 110.38 18.6325L110.802 14.3087V14.3087ZM129.683 14.3087C127.879 13.7952 125.985 13.5533 123.968 13.5533C118.316 13.5533 115.278 15.9422 115.278 20.1147C115.278 23.2281 117.052 24.8924 120.813 26.252C123.369 27.1896 124.993 27.4624 124.993 29.034C124.993 30.4245 123.669 31.3323 121.443 31.3323C119.878 31.3323 118.016 30.9093 115.969 29.9716L115.489 34.6588C117.654 35.2682 119.759 35.541 121.775 35.541C127.638 35.541 130.706 32.9966 130.706 28.4309C130.706 26.4651 130.043 25.0437 128.572 23.8951C127.218 22.8669 125.262 22.3224 122.887 21.536C121.595 21.113 120.964 20.4482 120.964 19.5702C120.964 18.331 122.226 17.5447 124.543 17.5447C126.015 17.5447 127.579 17.908 129.264 18.6325L129.683 14.3087V14.3087ZM144.419 13.5522C137.953 13.5522 134.044 17.6342 134.044 24.5589C134.044 31.4836 137.922 35.5399 144.419 35.5399C150.884 35.5399 154.763 31.4836 154.763 24.5589C154.763 17.6342 150.884 13.5522 144.419 13.5522ZM144.419 17.6342C147.185 17.6342 149.17 20.2042 149.17 24.4981C149.17 28.8219 147.214 31.3919 144.419 31.3919C141.623 31.3919 139.637 28.8219 139.637 24.4981C139.637 20.1743 141.652 17.6342 144.419 17.6342ZM158.041 14.0658V35.0509H163.064V23.9846C163.064 22.4428 162.882 20.3565 162.493 17.7556C162.882 19.3582 163.364 20.7795 163.965 22.0187L170.251 35.0509H177.167V14.0658H172.146V25.9504C172.146 27.4325 172.326 29.1853 172.657 31.181C171.995 29.0041 171.452 27.4922 171.033 26.6451L164.987 14.0658H158.041ZM40.3758 31.4824H51.7554V35.2341H40.3758V31.4824Z" fill="#7C7A7A"/>
</svg>
