<svg width="143" height="48" viewBox="0 0 143 48" fill="none" xmlns="http://www.w3.org/2000/svg">
<path fill-rule="evenodd" clip-rule="evenodd" d="M28.5556 39.6622H15.9854L22.2705 28.7385H34.8402L28.5556 39.6622ZM41.1253 39.6622H53.6944L47.4092 28.7385H34.8402L41.1253 39.6622V39.6622ZM41.1253 17.8143L34.8402 6.89062L28.5556 17.8143L34.8402 28.7385L41.1253 17.8143V17.8143Z" fill="#7C7A7A"/>
<path fill-rule="evenodd" clip-rule="evenodd" d="M59.3377 35.0109H64.3721V33.1792H59.3377V30.9251H65.0008V29.0928H57.2041V39.6617H65.1501V37.8294H59.3377V35.0109ZM59.1914 19.4763L61.4273 27.3318H63.4772L65.7138 19.4763V27.3318H67.7004V16.7641H64.6557L62.4523 24.1815L60.2488 16.7641H57.2041V27.3318H59.1914V19.4763V19.4763ZM107.668 16.7641H105.547V27.3318H107.668V16.7641ZM109.396 29.0928H107.274V39.6617H109.396V29.0928ZM128.649 16.7641H126.527V27.3318H128.649V16.7641ZM70.6674 16.7641H68.5465V27.3318H70.6674V16.7641ZM123.563 20.8856H119.347V16.7641H117.259V27.3318H119.347V22.7173H123.563V27.3318H125.649V16.7641H123.563V20.8856V20.8856ZM73.8055 27.3318H75.9704V18.5958H78.5442V16.7641H71.2323V18.5958H73.8055V27.3318ZM93.1523 39.6617H95.3172V30.9251H97.8922V29.0928H90.5785V30.9251H93.1523V39.6617ZM91.704 27.6261C94.4067 27.6261 95.9055 26.3915 95.9055 24.0322V16.7641H93.7852V24.2256C93.7852 25.1345 93.0204 25.8923 91.7046 25.8923C90.1112 25.8923 89.6415 24.9967 89.6415 24.2256V16.7641H87.5537V24.0322C87.5537 26.5722 89.1248 27.6261 91.704 27.6261V27.6261ZM75.6729 35.0109H80.7079V33.1792H75.6729V30.9251H81.3372V29.0928H73.5393V39.6617H81.4859V37.8294H75.6729V35.0109ZM98.8449 27.3318H101.884C103.866 27.3318 105.046 26.1419 105.046 24.4776C105.046 23.1336 104.076 21.9788 103.017 21.7135C103.941 21.4778 104.686 20.5296 104.686 19.3633C104.686 17.8054 103.538 16.7629 101.404 16.7629H96.6559V27.3312H98.8449V27.3318V27.3318ZM101.25 25.7352H98.7624V22.6695H101.225C102.112 22.6695 102.862 23.1808 102.862 24.2063C102.862 25.0717 102.182 25.7352 101.25 25.7352V25.7352ZM101.408 18.4435C101.987 18.4435 102.636 18.9832 102.636 19.6957C102.636 20.3278 102.182 21.0258 101.289 21.0258H98.763V18.4441H101.408V18.4435V18.4435ZM104.772 34.5897C105.677 34.3147 106.645 33.5025 106.645 32.0352C106.645 30.1564 105.377 29.0783 103.217 29.0783H98.4113V39.6454H100.545V35.4823H102.354C103.449 35.4823 104.047 36.0521 104.225 36.8045C104.422 37.6367 104.372 38.8737 104.583 39.6454H106.728C106.519 38.8356 106.396 37.737 106.349 36.868C106.274 35.4394 105.523 34.8671 104.772 34.5897V34.5897ZM100.545 33.7872V30.9106H103.112C103.979 30.9106 104.556 31.521 104.556 32.3543C104.556 32.9423 104.044 33.7872 103.175 33.7872H100.545V33.7872ZM67.9672 29.0928H65.8342V39.6617H72.9311V37.8294H67.9672V29.0928ZM82.1044 22.8653C83.8134 23.1644 84.7848 23.4817 84.7848 24.5048C84.7848 25.1974 84.1013 25.8549 82.6843 25.8549C81.2673 25.8549 80.5393 25.0463 80.5393 24.0854H78.4948C78.4948 25.9244 79.6817 27.6038 82.7746 27.6038C85.7224 27.6038 86.9996 26.0374 86.9996 24.254C86.9996 22.5873 85.9127 21.5316 83.9664 21.1478C82.0971 20.7792 80.8145 20.6988 80.8145 19.5113C80.8145 18.6967 81.5588 18.2133 82.7024 18.2133C83.9176 18.2133 84.6161 18.8121 84.6161 19.8268H86.6769C86.6769 18.1577 85.4183 16.4414 82.6181 16.4414C80.6868 16.4414 78.6827 17.56 78.6827 19.6473C78.6815 21.4035 79.9672 22.4912 82.1044 22.8653V22.8653ZM111.793 22.8653C113.502 23.1644 114.474 23.4817 114.474 24.5048C114.474 25.1974 113.79 25.8549 112.373 25.8549C110.955 25.8549 110.228 25.0463 110.228 24.0854H108.184C108.184 25.9244 109.371 27.6038 112.464 27.6038C115.411 27.6038 116.687 26.0374 116.687 24.254C116.687 22.5873 115.6 21.5316 113.655 21.1478C111.786 20.7792 110.503 20.6988 110.503 19.5113C110.503 18.6967 111.248 18.2133 112.391 18.2133C113.607 18.2133 114.305 18.8121 114.305 19.8268H116.366C116.366 18.1577 115.107 16.4414 112.307 16.4414C110.375 16.4414 108.372 17.56 108.372 19.6473C108.37 21.4035 109.656 22.4912 111.793 22.8653V22.8653Z" fill="#7C7A7A"/>
<path fill-rule="evenodd" clip-rule="evenodd" d="M86.2849 38.0297C84.5699 38.0297 83.5678 36.3443 83.5678 34.3343C83.5678 32.3255 84.5338 30.6377 86.2849 30.6377C87.5881 30.6377 88.2571 31.4487 88.5456 32.4446H90.7533C90.3919 30.3754 88.7811 28.8398 86.2247 28.8398C83.003 28.8398 81.374 31.3127 81.374 34.3651C81.374 37.4163 83.0686 39.8904 86.2247 39.8904C88.7497 39.8904 90.454 38.4171 90.7671 36.1593H88.5456C88.2565 37.2211 87.5634 38.0297 86.2849 38.0297V38.0297ZM114.824 38.0297C113.107 38.0297 112.105 36.3443 112.105 34.3343C112.105 32.3255 113.071 30.6377 114.824 30.6377C116.126 30.6377 116.795 31.4487 117.083 32.4446H119.292C118.929 30.3754 117.319 28.8398 114.763 28.8398C111.541 28.8398 109.912 31.3127 109.912 34.3651C109.912 37.4163 111.606 39.8904 114.762 39.8904C117.287 39.8904 118.993 38.4171 119.305 36.1593H117.083C116.795 37.2211 116.101 38.0297 114.824 38.0297V38.0297Z" fill="#7C7A7A"/>
</svg>
