<svg width="95" height="49" viewBox="0 0 95 49" fill="none" xmlns="http://www.w3.org/2000/svg">
<path fill-rule="evenodd" clip-rule="evenodd" d="M19.3685 11.767C14.3245 17.6747 9.48834 25.0008 9.43985 30.4768C9.42096 32.5372 10.0805 34.3359 11.6624 35.6982C13.9391 37.6604 16.4476 38.3522 18.9437 38.3563C22.5916 38.3614 26.2138 36.8936 29.05 35.7619C33.8265 33.8568 86.6257 10.9891 86.6257 10.9891C87.1352 10.7345 87.0397 10.4173 86.4022 10.5757C86.1449 10.6398 28.9219 26.1061 28.9219 26.1061C27.838 26.4118 26.718 26.5717 25.5916 26.5816C21.1939 26.6076 17.2806 24.173 17.3123 19.0427C17.3245 17.0353 17.9407 14.6144 19.3685 11.767V11.767Z" fill="#7C7A7A"/>
</svg>
