<svg width="105" height="49" viewBox="0 0 105 49" fill="none" xmlns="http://www.w3.org/2000/svg">
<path fill-rule="evenodd" clip-rule="evenodd" d="M15.6123 34.188H19.938V26.9604H31.7618C35.6238 26.9604 38.7545 23.8222 38.7545 19.9509C38.7545 16.0797 35.6238 12.9414 31.7618 12.9414H15.6123V34.188ZM31.7618 22.6244H19.938V17.2775H31.7618C33.2348 17.2775 34.4289 18.4744 34.4289 19.9509C34.4289 21.4274 33.2348 22.6244 31.7618 22.6244Z" fill="#7C7A7A"/>
<path d="M45.6756 12.9414H41.3499V34.188H45.6756V12.9414Z" fill="#7C7A7A"/>
<path d="M53.9184 12.9414H49.5927V34.188H63.1945V29.852H53.9184V12.9414Z" fill="#7C7A7A"/>
<path d="M64.9247 12.9414H87.7966V17.2775L71.9746 29.852H87.7966V34.188H64.9247V29.852L80.7467 17.2775H64.9247V12.9414Z" fill="#7C7A7A"/>
</svg>
