<svg width="103" height="49" viewBox="0 0 103 49" fill="none" xmlns="http://www.w3.org/2000/svg">
<path d="M34.3283 33.3757C33.7385 33.3617 33.2374 32.8734 33.2374 32.2694L33.2389 12.5605H26.7974V34.2862C26.7974 35.3508 27.6529 36.2198 28.7025 36.2198H39.9615C41.0188 36.2198 41.8638 35.3508 41.8638 34.2862V12.5605H35.4284L35.4222 32.2694C35.4222 32.8734 34.921 33.3617 34.3283 33.3757ZM46.1464 12.5605C44.9929 12.5605 44.0532 13.5065 44.0532 14.6821V36.2197H50.5007V16.4633C50.5053 15.8578 50.9911 15.3786 51.5901 15.3786C52.1921 15.3786 52.6749 15.847 52.6886 16.4464V36.2198H59.1103V16.4462C59.118 15.8469 59.6007 15.3785 60.2012 15.3785C60.7971 15.3785 61.2891 15.8577 61.2937 16.4632V36.2198H67.7413V14.6821C67.7413 13.5065 66.8001 12.5605 65.6466 12.5605H46.1464ZM18.177 16.5048C18.1816 15.8469 17.6499 15.3785 17.0861 15.3785H15.9922V27.3452H17.0861C17.6546 27.3452 18.1817 26.8892 18.177 26.2345V16.5048ZM22.4994 30.2741H15.9922V36.2198H9.55371V12.5605H22.5408C23.7034 12.5605 24.6109 13.5127 24.6109 14.6914V28.1434C24.6109 29.3236 23.6683 30.2741 22.4994 30.2741ZM89.836 30.9289C88.5419 30.9289 87.4556 32.0568 87.4556 33.4234C87.4556 34.7947 88.542 35.9132 89.8773 35.9132C91.202 35.9132 92.2745 34.7947 92.2745 33.4234C92.2745 32.0537 91.202 30.9289 89.8772 30.9289H89.836ZM92.7359 33.4157C92.7359 35.0226 91.4586 36.3292 89.8773 36.3292C88.2791 36.3292 86.9957 35.032 86.9957 33.4157C86.9957 31.8303 88.2791 30.5053 89.8299 30.5053C91.4586 30.5053 92.7359 31.7903 92.7359 33.4157Z" fill="#7C7A7A"/>
<path d="M89.5793 33.2308C90.027 33.2308 90.2623 33.0705 90.2623 32.7502C90.2623 32.4651 90.0347 32.3188 89.5992 32.3188H89.4708V33.2308H89.5793ZM91.228 35.1012H90.4594L89.4708 33.7747V35.1012H88.8429V31.7471H89.503C90.3999 31.7471 90.8765 32.0892 90.8765 32.7424C90.8765 33.1784 90.5954 33.5652 90.2027 33.6807L90.1568 33.6977L91.228 35.1012ZM78.5512 27.3499V16.4556C78.5358 15.8531 78.0546 15.3909 77.4541 15.3909C76.8597 15.3909 76.3678 15.8715 76.3633 16.4725V27.3499H78.5512ZM78.5512 36.2198V30.2803H76.3633V36.2198H69.9279V14.6821C69.9279 13.5065 70.8674 12.5605 72.021 12.5605H82.8933C84.05 12.5605 84.9896 13.5065 84.9896 14.6821V36.2197L78.5512 36.2198Z" fill="#7C7A7A"/>
</svg>
