<svg width="69" height="49" viewBox="0 0 69 49" fill="none" xmlns="http://www.w3.org/2000/svg">
<path fill-rule="evenodd" clip-rule="evenodd" d="M48.4614 12.1968C50.227 13.9861 51.6071 16.044 52.5864 18.3701C53.6104 20.7709 54.1148 23.2909 54.1148 25.9004C54.1148 27.1826 53.9812 28.465 53.7288 29.7922L47.8082 34.1012L46.8882 41.4524H37.0646L36.5305 41.8101C36.0411 42.1979 35.4771 42.3765 34.8389 42.3765C34.186 42.3765 33.637 42.1979 33.1324 41.8101L32.5537 41.4524H22.8343L21.8995 34.1012L15.9492 29.7922C15.6821 28.465 15.5635 27.1828 15.5635 25.9004C15.5635 23.2909 16.0679 20.7709 17.0769 18.3701C18.0563 16.044 19.4216 13.9861 21.2022 12.1968C22.9678 10.4224 25.0305 9.03558 27.3306 8.05144C29.7347 7.02271 32.2275 6.51562 34.8391 6.51562C37.4359 6.51562 39.9438 7.02271 42.3474 8.05144C44.6476 9.03558 46.6953 10.4224 48.4614 12.1968ZM47.229 16.4021C48.5201 17.5353 49.351 18.9371 49.7369 20.5773L39.6766 33.0725L50.034 22.5604C50.4938 23.6342 50.7462 24.7525 50.7462 25.9007C50.7462 26.5418 50.657 27.2274 50.4938 27.9584L44.6624 32.2528L43.935 38.0232H36.7975L35.7292 38.7985C35.477 38.9923 35.1653 39.0822 34.8388 39.0967C34.4976 39.082 34.2008 38.9923 33.9187 38.7985L32.9097 38.0232H25.8019L25.0301 32.2528L19.1836 27.9584C19.0056 27.2274 18.9314 26.5418 18.9314 25.9007C18.9314 24.7525 19.1686 23.6342 19.6436 22.5604L30.0606 33.0729L19.9404 20.5775C20.3262 18.9373 21.1573 17.5355 22.4482 16.4023L31.5296 32.0442L23.4871 14.8963C24.5257 13.4797 25.9056 12.5106 27.6121 11.9587L33.1024 31.4026L29.0959 11.1681C30.3424 10.4672 31.6929 10.1094 33.1173 10.1094L34.0077 10.169L34.8535 31.2234L35.6547 10.169L36.5598 10.1094C37.9845 10.1094 39.32 10.4672 40.5814 11.1681L36.5302 31.4026L42.0652 11.9585C43.7715 12.5104 45.122 13.4795 46.1903 14.8961L38.1923 32.044L47.229 16.4021Z" fill="#7C7A7A"/>
</svg>
