<svg width="133" height="49" viewBox="0 0 133 49" fill="none" xmlns="http://www.w3.org/2000/svg">
<path fill-rule="evenodd" clip-rule="evenodd" d="M126.531 31.812C126.684 31.8989 126.761 32.081 126.761 32.2542C126.761 32.6578 126.479 32.8064 126.113 32.8167L126.733 33.7629H126.435L125.849 32.8167H125.388V33.7629H125.137V31.7116H126.031C126.204 31.7116 126.377 31.7206 126.531 31.812ZM125.387 32.6191H125.772C125.798 32.6191 125.825 32.6195 125.854 32.6199C126.137 32.6241 126.507 32.6294 126.507 32.2497C126.507 31.9323 126.227 31.8937 125.973 31.8937H125.387V32.6191ZM118.813 18.3299L115.061 22.3367C114.582 22.8844 114.069 22.8278 113.648 22.3908L110.111 18.5352C110.067 18.4788 110.018 18.4223 109.967 18.365C109.808 18.1839 109.641 17.9945 109.641 17.7706C109.641 17.4179 110.039 17.2415 110.98 17.2415H111.904V14.7119H98.9228V17.2415C101.784 17.2415 101.974 17.4742 102.794 18.477C102.896 18.6017 103.008 18.7384 103.136 18.888L110.128 26.6228V30.535C110.128 31.5359 109.621 31.8879 108.175 31.8879H105.934V34.3287H120.288V31.8879H118.047C116.6 31.8879 116.095 31.5359 116.095 30.535V26.6228L122.031 20.212C124.201 17.4764 124.49 17.2415 126.045 17.2415H127.392V14.7119H117.144V17.2415H118.09C118.886 17.2415 119.139 17.3593 119.139 17.6534C119.139 17.8298 119.031 18.0358 118.813 18.3299ZM31.0941 14.7113H27.9627C27.9711 16.3314 27.348 16.2799 26.6838 15.848C24.2855 14.4924 21.7868 14.0934 18.8002 14.0934C11.7129 14.0934 7.23047 16.6229 7.23047 20.6522C7.23047 24.5341 10.7738 25.6219 15.6405 26.3576L19.953 27.0637C25.0321 27.8573 26.6085 28.2107 26.6085 29.6808C26.6085 31.1516 25.0148 32.1647 20.3798 32.2104C17.3057 32.2407 13.9535 31.299 12.5452 30.0046C12.3846 29.859 12.2212 29.7273 12.0575 29.5953C11.3938 29.0602 10.7243 28.5205 10.2106 27.0341H7.30642V34.328H10.517C10.6534 33.3027 10.9624 32.4846 11.6904 32.9049C14.0127 34.1382 17.9487 34.9453 20.5497 34.9453C28.0631 34.9453 32.2469 32.5631 32.2469 28.2989C32.2469 23.5655 25.7001 22.7259 20.187 22.0189C16.1777 21.5047 12.7151 21.0607 12.7151 19.24C12.7151 17.6824 15.5974 16.6229 19.0126 16.6229C21.6587 16.6229 24.8049 17.7345 26.2577 19.0695C26.3828 19.1845 26.5098 19.2949 26.6361 19.4047C27.3222 20.0012 27.9858 20.578 28.2022 21.7696H31.0941V14.7113ZM89.136 18.6839L89.0742 26.5288L76.6259 14.8612H66.3557V17.302H68.324C69.8539 17.302 70.3895 17.6547 70.3895 18.6839V30.6836C70.3895 31.6833 69.8539 32.0656 68.324 32.0656H66.3557V34.4774H78.2344V32.0656H76.2442C74.7142 32.0656 74.1787 31.6839 74.1787 30.6836V20.7134L88.6764 34.442L93.1531 34.4774V18.6839C93.1531 17.6554 93.6886 17.302 95.2199 17.302H96.7106V14.8612H85.2728V17.302H87.0705C88.6005 17.302 89.136 17.6547 89.136 18.6839ZM35.9402 24.4447C35.9402 17.9753 41.6462 13.9453 50.7617 13.9453C59.5194 13.9453 65.4642 18.0634 65.4635 24.1216C65.4635 30.8568 59.9545 34.7973 50.4837 34.7973C41.5671 34.7973 35.9402 30.7982 35.9402 24.4447ZM42.6085 24.2979C42.6085 29.3275 45.5088 32.2394 50.5545 32.2394C55.7256 32.2394 58.6684 29.4453 58.6684 24.5045C58.6684 19.446 55.7681 16.4749 50.8068 16.4749C45.635 16.4749 42.6085 19.3868 42.6085 24.2979ZM125.106 31.0334C125.333 30.9432 125.575 30.8991 125.819 30.9037C126.06 30.9037 126.298 30.9511 126.52 31.0431C126.742 31.1352 126.944 31.2701 127.114 31.4401C127.284 31.6102 127.419 31.812 127.511 32.0342C127.603 32.2564 127.65 32.4945 127.65 32.7349C127.651 32.976 127.604 33.2149 127.513 33.4379C127.421 33.6609 127.286 33.8637 127.116 34.0346C126.946 34.2055 126.744 34.3411 126.522 34.4338C126.299 34.5264 126.06 34.5742 125.819 34.5745C125.575 34.5791 125.333 34.535 125.106 34.4448C124.88 34.3546 124.673 34.2201 124.499 34.0492C124.325 33.8784 124.187 33.6745 124.092 33.4495C123.998 33.2246 123.949 32.9831 123.949 32.7391C123.949 32.4951 123.998 32.2536 124.092 32.0287C124.187 31.8037 124.325 31.5998 124.499 31.429C124.673 31.2581 124.88 31.1236 125.106 31.0334ZM125.2 34.2309C125.396 34.3122 125.607 34.354 125.819 34.3537C126.031 34.3535 126.241 34.3114 126.437 34.2298C126.633 34.1482 126.81 34.0288 126.96 33.8784C127.109 33.728 127.228 33.5496 127.308 33.3534C127.389 33.1571 127.429 32.947 127.428 32.7349C127.428 32.5236 127.387 32.3142 127.306 32.1189C127.225 31.9236 127.107 31.7462 126.957 31.5967C126.808 31.4472 126.63 31.3286 126.435 31.2477C126.24 31.1668 126.031 31.1251 125.819 31.1251C125.607 31.1246 125.398 31.1659 125.202 31.2465C125.006 31.3272 124.828 31.4457 124.678 31.5952C124.528 31.7447 124.409 31.9224 124.328 32.1179C124.247 32.3135 124.205 32.5232 124.205 32.7349C124.204 32.9474 124.245 33.1579 124.326 33.3544C124.407 33.5509 124.526 33.7295 124.676 33.8799C124.826 34.0303 125.004 34.1496 125.2 34.2309Z" fill="#7C7A7A"/>
</svg>
