<svg width="136" height="49" viewBox="0 0 136 49" fill="none" xmlns="http://www.w3.org/2000/svg">
<path d="M74.576 22.9932C69.8892 22.9932 67.1959 25.0128 67.1959 28.5251C67.1959 32.0011 69.8892 34.0128 74.576 34.0128C79.2677 34.0128 81.9476 32.0011 81.9476 28.5251C81.9476 25.0128 79.2675 22.9934 74.576 22.9934V22.9932ZM74.576 31.4633C72.0133 31.4633 70.715 30.482 70.715 28.5251C70.715 26.5452 72.0133 25.5533 74.576 25.5533C77.1378 25.5533 78.4457 26.5451 78.4457 28.5251C78.4457 30.482 77.1378 31.4633 74.576 31.4633ZM82.9076 23.264V25.6146H87.3516V32.9103C87.3516 33.6075 88.4116 33.8609 89.3075 33.8609C90.2072 33.8609 91.2693 33.6189 91.2693 32.9103V25.6146H95.7053V23.264H82.9076ZM119.349 31.3174C118.263 31.3174 117.516 31.1329 117.107 30.7988C116.578 30.3475 116.52 29.6821 116.504 29.1723V24.0237C116.504 23.3382 115.498 23.1124 114.633 23.1124C113.764 23.1124 112.749 23.3382 112.749 24.0111V28.9994C112.749 30.9054 113.358 32.2401 114.577 32.968C116.081 33.8407 118.811 33.8081 121.437 33.7734H124.711L124.72 33.3012V31.3174H119.349ZM58.655 30.5367C58.655 32.3967 60.2181 33.6632 62.8721 33.8792V22.6707H68.8274V20.0781H53.3076V22.6707H58.655V30.5367ZM111.232 33.7765L111.138 33.353C110.265 29.0437 105.368 24.1198 104.351 23.3918C104.024 23.1681 103.674 23.1105 103.221 23.1C102.758 23.1105 102.397 23.1681 102.072 23.3918C101.061 24.1196 96.1577 29.0437 95.2973 33.3532L95.2003 33.7765H98.6685L98.731 33.473C98.872 32.8604 99.0968 32.1997 99.3993 31.518H107.023C107.323 32.1997 107.555 32.8604 107.684 33.473L107.758 33.7765H111.232ZM100.625 29.3058C101.376 28.1662 102.246 27.1104 103.221 26.1563C104.193 27.1164 105.067 28.1966 105.801 29.3058H100.625Z" fill="#7C7A7A"/>
<path d="M43.4218 26.5021C43.3975 26.4269 43.3706 26.3526 43.3411 26.2793C40.7764 29.207 34.4803 31.1015 28.8171 30.679C25.4794 30.4313 19.3005 28.7058 16.1836 26.7969C19.4752 29.9503 23.3314 32.3518 27.6954 33.646C32.8806 35.1852 38.4142 35.0815 41.5319 33.457C43.8193 31.9138 44.3358 29.1628 43.4218 26.5021" fill="#7C7A7A"/>
<path d="M36.2888 8.09519C46.5006 14.1224 40.4234 33.0921 32.2972 39.1856C24.7348 44.8546 16.694 42.242 14.9502 37.0164C16.4749 39.2796 19.4977 40.1035 22.1834 39.2029C29.6472 36.2108 33.4899 22.6921 33.9872 17.9948C34.3203 13.9542 33.7914 11.2417 32.3895 9.52972C30.7821 7.83098 28.319 7.00817 24.7155 8.13934C27.1956 6.10361 32.5017 5.86458 36.2888 8.09519" fill="#7C7A7A"/>
<path d="M42.0035 33.189C42.0453 33.1658 42.086 33.1404 42.1254 33.1132C42.1283 33.1083 42.1397 33.1037 42.1464 33.0988C42.3539 32.9616 42.5633 32.8069 42.7581 32.6303C42.8437 32.5487 42.9358 32.4642 43.0232 32.3681C46.9965 28.338 47.8395 17.1296 38.0551 11.8208C34.5706 9.93092 26.4664 7.28554 18.3882 11.3655C15.7178 12.7117 12.962 15.5166 11.4756 19.3256C12.5731 17.5185 14.4678 16.2915 18.2019 15.7624C21.9293 15.2967 27.0647 15.8757 32.0885 17.6482C35.329 18.8399 37.9522 20.3176 39.9986 21.9892C41.6904 23.4391 42.7773 24.8142 43.3409 26.2833C43.3707 26.3582 43.3966 26.4301 43.4216 26.5041C44.3356 29.1648 43.8191 31.9159 41.5338 33.4589C41.5321 33.4627 41.5357 33.456 41.5338 33.4589C41.6439 33.4022 41.7522 33.342 41.8584 33.2784C41.8736 33.2695 41.8883 33.2598 41.9026 33.2496C41.9324 33.2332 41.9669 33.2151 42.0035 33.1892" fill="#7C7A7A"/>
<path d="M12.7392 25.7734C12.9284 26.071 13.3499 26.5771 13.6274 26.8987C15.5923 22.2859 26.3406 19.288 29.5104 19.3226C22.3895 17.0306 15.4079 18.1252 12.5994 20.5594C11.5796 21.6943 11.2637 23.3977 12.7394 25.7734" fill="#7C7A7A"/>
<path d="M33.6994 36.2388C27.9804 35.919 19.6421 33.7115 13.7357 27.0207C13.702 26.9785 13.6664 26.9378 13.6291 26.8988C13.3507 26.5771 12.9292 26.073 12.7392 25.7735C11.2633 23.3978 11.5811 21.6944 12.5998 20.5586C12.4163 20.7266 12.1878 20.9349 11.9307 21.2681C10.4182 23.2231 10.2368 26.3966 11.2681 29.7584C13.5206 37.0605 23.3599 41.4526 31.3517 40.2447C36.4531 39.4755 39.6505 36.6046 40.9806 35.4303C38.0913 36.2522 35.9549 36.3635 33.6993 36.2388" fill="#7C7A7A"/>
</svg>
