<svg width="179" height="48" viewBox="0 0 179 48" fill="none" xmlns="http://www.w3.org/2000/svg">
<path d="M27.1934 36.2666C25.0169 34.9055 23.4142 30.2079 23.4142 24.6272C23.4142 24.4223 23.4151 24.2201 23.4203 24.0188L23.4229 24.0214C17.3704 23.0717 12.9968 20.4688 12.8851 17.3915L12.867 17.4269C11.3854 19.265 10.54 21.39 10.54 23.6541C10.54 30.3168 17.8637 35.7758 27.1536 36.2588L27.1934 36.2666ZM7.74219 24.1406C7.74219 16.6855 17.0329 10.6406 28.494 10.6406C39.9551 10.6406 49.2459 16.6855 49.2459 24.1406C49.2459 31.5958 39.9551 37.6406 28.494 37.6406C17.0329 37.6406 7.74219 31.5958 7.74219 24.1406ZM28.494 12.5885C30.7068 12.5885 32.5881 15.9397 33.2856 20.6166L33.2882 20.6096C37.5926 19.9408 40.6068 18.3965 40.6068 16.6008C40.6068 14.1898 35.1834 12.2385 28.494 12.2385C21.8046 12.2385 16.3813 14.1906 16.3813 16.6008C16.3813 18.3965 19.3945 19.9399 23.6998 20.6096L23.7024 20.6166C24.3999 15.9406 26.2821 12.5885 28.494 12.5885V12.5885ZM29.8336 36.2588C39.1235 35.7758 46.4481 30.3168 46.4481 23.6541C46.4481 21.39 45.6017 19.265 44.1211 17.4269L44.1029 17.3915C43.9913 20.4688 39.6185 23.0717 33.5652 24.0214L33.5678 24.0188C33.5721 24.2201 33.5738 24.4223 33.5738 24.6272C33.5738 30.2079 31.9694 34.9055 29.7947 36.2666L29.8336 36.2588ZM28.494 20.964C29.4858 20.964 30.4489 20.9216 31.3706 20.8404L31.3697 20.8412C30.911 17.8434 29.7964 15.728 28.494 15.728C27.1916 15.728 26.0779 17.8434 25.6184 20.8412L25.6175 20.8404C26.5391 20.9216 27.5023 20.964 28.494 20.964V20.964ZM28.494 32.065C30.1599 32.065 31.5185 28.6032 31.5912 24.2616L31.5999 24.2642C29.5337 24.4543 27.4544 24.4543 25.3882 24.2642L25.3977 24.2616C25.4695 28.604 26.8282 32.065 28.494 32.065ZM113.632 24.1406C113.632 18.4423 118.258 13.8233 123.964 13.8233C129.672 13.8233 134.297 18.4432 134.297 24.1406C134.297 29.8398 129.671 34.4579 123.964 34.4579C118.258 34.4579 113.632 29.8389 113.632 24.1406ZM123.964 30.6746C127.151 30.6746 129.734 27.7485 129.734 24.1398C129.734 20.5319 127.151 17.6049 123.964 17.6049C120.778 17.6049 118.196 20.531 118.196 24.1398C118.196 27.7485 120.779 30.6746 123.964 30.6746ZM146.021 18.1217V33.9895H141.669V18.1217H141.683H135.595V14.5337H152.095V18.1208H146.021V18.1217ZM157.361 29.6125L157.356 29.6168L155.686 33.9904H150.602L158.64 14.5346H164.058L172.096 33.9904H167.011L165.341 29.6168L165.337 29.6125H161.35H157.361ZM161.35 26.3287H164.089L164.087 26.3296L161.368 19.2088H161.33L158.609 26.3296L158.608 26.3287H161.35ZM65.7721 18.1217V33.9895H61.4183V18.1217H61.433H55.3442V14.5337H71.8444V18.1208H65.7721V18.1217ZM72.959 24.1406C72.959 18.4423 77.5854 13.8233 83.2926 13.8233C88.9989 13.8233 93.6252 18.4432 93.6252 24.1406C93.6252 29.8398 88.9989 34.4579 83.2926 34.4579C77.5854 34.4579 72.959 29.8389 72.959 24.1406ZM83.2926 30.6746C86.478 30.6746 89.0621 27.7485 89.0621 24.1398C89.0621 20.5319 86.4789 17.6049 83.2926 17.6049C80.1062 17.6049 77.5231 20.531 77.5231 24.1398C77.5231 27.7485 80.1062 30.6746 83.2926 30.6746ZM103.628 33.9895H105.836V26.6018L113.43 14.5337H108.347L103.628 22.7113L98.9101 14.5337H93.8251L101.421 26.6018V33.9887H103.628V33.9895Z" fill="#7C7A7A"/>
</svg>
