<svg width="104" height="48" viewBox="0 0 104 48" fill="none" xmlns="http://www.w3.org/2000/svg">
<path d="M40.7618 24.0397C40.7618 33.6067 32.9724 41.3247 23.3178 41.3247C13.6635 41.3247 5.79395 33.6067 5.79395 24.0397C5.79395 14.4728 13.6635 6.67554 23.3178 6.67554C32.9724 6.67554 40.7618 14.4728 40.7618 24.0397Z" fill="#7C7A7A"/>
<path d="M19.748 14.6328C18.2067 14.6328 16.9092 15.9196 16.9092 17.5275C16.9092 19.1354 18.2067 20.4221 19.748 20.4221C21.3706 20.4221 22.6686 19.1354 22.6686 17.5275C22.6686 15.9196 21.3706 14.6328 19.748 14.6328ZM24.6974 21.1463V30.311C24.6974 32.2405 25.1848 33.688 26.2395 34.5722C27.2942 35.4565 28.5916 35.9388 30.2952 35.9388C32.1613 35.9388 33.5421 35.2946 34.5963 33.9279V35.6176H38.4885V21.1463H34.4307V29.1041C34.4307 30.2296 34.1903 31.1153 33.6208 31.5978C33.0535 32.1605 32.3227 32.4017 31.4304 32.4017C30.4567 32.4017 29.8085 32.2395 29.3217 31.7574C28.9162 31.3553 28.6733 30.6313 28.6733 29.6667V21.1463H24.6974Z" fill="white"/>
<path d="M43.0308 15.3569V35.6175H46.8451V33.6066C47.4119 34.3303 47.9817 34.8923 48.7922 35.2944C49.5232 35.6962 50.4172 35.9387 51.4713 35.9387C53.4976 35.9387 55.0388 35.2945 56.2572 33.9278C57.3935 32.6414 58.0427 30.7938 58.0427 28.3819C58.0427 25.8897 57.3935 24.0406 56.2572 22.7542C55.0388 21.4681 53.4976 20.8231 51.4713 20.8231C50.4966 20.8231 49.6023 20.9838 48.8739 21.3856C48.1429 21.7072 47.5751 22.2707 47.0905 22.9138V15.3569H43.0308ZM60.4765 15.3569V35.6175H64.5322V15.3569H60.4765ZM74.4291 20.8231C72.0771 20.8231 70.2931 21.4681 68.9131 22.7542C67.5331 23.9602 66.8045 25.8897 66.8045 28.3819C66.8045 30.8741 67.5331 32.7232 68.9131 34.0096C70.2931 35.296 72.0771 35.9387 74.4291 35.9387C76.7812 35.9387 78.5671 35.296 79.9471 34.0096C81.3244 32.7232 82.0558 30.8741 82.0558 28.3819C82.0558 25.8897 81.3244 23.9602 79.9471 22.7542C78.5671 21.4681 76.7812 20.8231 74.4291 20.8231ZM82.1376 21.1463L87.3284 28.3001L81.974 35.6175H86.3549L89.6804 31.0332L93.008 35.6175H97.7939L92.3596 28.3001L97.6323 21.1463H93.2514L90.0076 25.567L86.8416 21.1463H82.1376ZM50.416 24.2803C51.5496 24.2803 52.3625 24.6823 53.0115 25.3257C53.6604 25.9687 53.985 27.0152 53.985 28.3819C53.985 29.6683 53.6604 30.7128 53.0115 31.4362C52.3625 32.0795 51.5496 32.4017 50.416 32.4017C49.2797 32.4017 48.4676 32.0795 47.8186 31.4362C47.1697 30.7128 46.8451 29.6683 46.8451 28.3819C46.8451 27.0152 47.1697 25.9687 47.8186 25.3257C48.4676 24.6823 49.2797 24.2803 50.416 24.2803ZM74.4291 24.2803C75.5655 24.2803 76.4577 24.6823 77.0245 25.3257C77.6735 25.9687 78.0001 27.0152 78.0001 28.3819C78.0001 29.6683 77.6735 30.7128 77.0245 31.4362C76.4577 32.0795 75.5655 32.4017 74.4291 32.4017C73.2928 32.4017 72.4005 32.0795 71.8337 31.4362C71.1848 30.7128 70.8582 29.6683 70.8582 28.3819C70.8582 27.0152 71.1848 25.9687 71.8337 25.3257C72.4005 24.6823 73.2928 24.2803 74.4291 24.2803Z" fill="#7C7A7A"/>
</svg>
