<svg width="179" height="48" viewBox="0 0 179 48" fill="none" xmlns="http://www.w3.org/2000/svg">
<path d="M147.076 18.2597C147.92 18.2597 148.616 17.8211 148.71 17.2544L149.544 7.83581C149.544 6.90487 148.452 6.14062 147.078 6.14062C145.707 6.14062 144.616 6.90487 144.616 7.83598L145.449 17.2544C145.541 17.8209 146.236 18.2597 147.079 18.2597H147.076V18.2597ZM141.978 21.2015C142.402 20.4719 142.37 19.6519 141.923 19.2876L134.171 13.857C133.365 13.3909 132.156 13.952 131.47 15.1398C130.782 16.3262 130.904 17.6512 131.708 18.1175L140.292 22.1088C140.829 22.3074 141.56 21.9251 141.981 21.196L141.978 21.2015V21.2015ZM152.178 21.1965C152.601 21.9256 153.329 22.3081 153.866 22.1093L162.45 18.118C163.259 17.6519 163.374 16.3267 162.692 15.1403C162.003 13.9536 160.792 13.3914 159.988 13.8575L152.235 19.2881C151.792 19.6519 151.759 20.4726 152.181 21.202L152.178 21.1965V21.1965ZM147.076 30.025C147.92 30.025 148.616 30.4598 148.71 31.027L149.544 40.4443C149.544 41.3781 148.452 42.1406 147.078 42.1406C145.707 42.1406 144.616 41.3781 144.616 40.4443L145.449 31.027C145.541 30.4598 146.236 30.025 147.079 30.025H147.076V30.025ZM152.178 27.0824C152.601 26.3513 153.329 25.9722 153.866 26.1732L162.45 30.1617C163.259 30.6284 163.374 31.9547 162.692 33.1421C162.003 34.3249 160.792 34.8887 159.988 34.4232L152.235 28.9977C151.792 28.6311 151.759 27.8099 152.181 27.0809H152.177L152.178 27.0824ZM141.978 27.0814C142.402 27.8099 142.37 28.6311 141.923 28.9984L134.171 34.4237C133.365 34.8892 132.156 34.3254 131.47 33.1426C130.782 31.9552 130.904 30.6289 131.708 30.1622L140.292 26.1737C140.829 25.9727 141.56 26.3518 141.981 27.0831H141.978" fill="#7C7A7A"/>
<path d="M98.1462 28.8037C98.1462 29.0927 98.1205 29.3908 98.0412 29.6526C97.7124 30.74 96.5849 31.6595 95.1745 31.6595C93.9984 31.6595 93.0643 30.9924 93.0643 29.5834C93.0643 27.4269 95.4412 26.8314 98.1469 26.8463L98.1462 28.8035V28.8037ZM102.39 25.0456C102.39 21.4897 100.869 18.3608 95.7274 18.3608C93.0883 18.3608 90.9938 19.101 89.8505 19.7608L90.6879 22.6195C91.7327 21.9607 93.398 21.4154 94.9739 21.4154C97.5816 21.4082 98.0087 22.8902 98.0087 23.8386V24.0631C92.3242 24.0547 88.7308 26.0202 88.7308 30.0243C88.7308 32.471 90.561 34.7625 93.7424 34.7625C95.6973 34.7625 97.3346 33.9833 98.3145 32.7339H98.4112C98.4112 32.7339 99.0596 35.4464 102.639 34.4086C102.452 33.2806 102.391 32.0764 102.391 30.6284L102.39 25.0456H102.39ZM13.8193 13.5182C13.8193 13.5182 17.534 28.7181 18.1272 31.1849C18.8192 34.0643 20.0663 35.1243 23.6601 34.4086L25.9795 24.9853C26.5676 22.6435 26.9612 20.9738 27.3402 18.5941H27.4061C27.6722 20.999 28.0496 22.6507 28.5336 24.993C28.5336 24.993 29.4773 29.2713 29.9614 31.5177C30.446 33.7634 31.7949 35.1796 35.3156 34.4086L40.8425 13.5176H36.3815L34.4937 22.5502C33.9862 25.1784 33.5262 27.2343 33.1711 29.6381H33.108C32.7854 27.2555 32.3746 25.2834 31.8592 22.7221L29.8954 13.5176H25.2466L23.1449 22.4901C22.55 25.2173 21.9922 27.4187 21.6388 29.7425H21.5745C21.2117 27.5543 20.7288 24.7865 20.2061 22.1478C20.2061 22.1478 18.9583 15.7298 18.5195 13.5176L13.8193 13.5182V13.5182ZM49.2808 28.8037C49.2808 29.0927 49.2551 29.3908 49.1747 29.6526C48.8465 30.74 47.7184 31.6595 46.3079 31.6595C45.1317 31.6595 44.1989 30.9924 44.1989 29.5834C44.1989 27.4269 46.5751 26.8314 49.2813 26.8463L49.2808 28.8035V28.8037ZM53.5243 25.0456C53.5243 21.4897 52.0027 18.3608 46.8625 18.3608C44.2228 18.3608 42.1266 19.101 40.984 19.7608L41.8203 22.6195C42.865 21.9607 44.5302 21.4154 46.1066 21.4154C48.7163 21.4082 49.1434 22.8902 49.1434 23.8386V24.0631C43.4565 24.0547 39.8648 26.0202 39.8648 30.0243C39.8648 32.471 41.6939 34.7625 44.873 34.7625C46.8306 34.7625 48.4669 33.9833 49.4479 32.7339H49.5435C49.5435 32.7339 50.1937 35.4464 53.7723 34.4086C53.5852 33.2806 53.5243 32.0764 53.5243 30.6284V25.0456V25.0456ZM60.6063 29.9741V13.5182H56.3574V34.4093H60.6063V29.9741ZM116.191 13.5182V28.9292C116.191 31.0549 116.592 32.5425 117.448 33.453C118.197 34.249 119.429 34.7642 120.907 34.7642C122.164 34.7642 123.399 34.5247 123.982 34.3088L123.927 30.9941C123.493 31.0999 122.995 31.1856 122.314 31.1856C120.866 31.1856 120.382 30.2594 120.382 28.352V22.4554H124.082V18.4578H120.382V13.5182H116.191V13.5182ZM105.223 18.7152V34.4093H109.606V26.3736C109.606 25.9393 109.633 25.5608 109.702 25.2147C110.026 23.5306 111.315 22.4554 113.166 22.4554C113.674 22.4554 114.037 22.5106 114.431 22.5664V18.4578C114.1 18.3921 113.876 18.3613 113.465 18.3613C111.83 18.3613 109.969 19.4153 109.188 21.6761H109.069V18.7152H105.223ZM63.5815 18.7152V34.4093H67.8518V25.2063C67.8518 24.7744 67.9026 24.3177 68.0524 23.9218C68.4063 22.9952 69.2699 21.91 70.6479 21.91C72.3719 21.91 73.1769 23.3647 73.1769 25.4642V34.4081H77.4439V25.093C77.4439 24.681 77.5002 24.1842 77.6222 23.8209C77.9726 22.7663 78.9028 21.9088 80.1841 21.9088C81.931 21.9088 82.7695 23.338 82.7695 25.8092V34.4076H87.0393V25.1637C87.0393 20.2894 84.5606 18.3598 81.7622 18.3598C80.524 18.3598 79.5456 18.6695 78.6608 19.2109C77.9179 19.668 77.2515 20.3156 76.6701 21.1669H76.607C75.9322 19.4756 74.3446 18.3607 72.2756 18.3607C69.6177 18.3607 68.4231 19.7061 67.6985 20.8471H67.6349V18.7147H63.5815" fill="#7C7A7A"/>
<path d="M164.604 33.8229H164.669C164.754 33.8229 164.809 33.7876 164.809 33.7352C164.809 33.6756 164.757 33.6431 164.678 33.6431C164.651 33.6431 164.623 33.6487 164.604 33.6487V33.8244V33.8228L164.604 33.8229ZM164.594 34.246H164.367V33.5075C164.419 33.4974 164.539 33.4794 164.693 33.4794C164.86 33.4794 164.935 33.503 164.99 33.5399C165.036 33.5722 165.069 33.6273 165.069 33.7018C165.069 33.7776 165 33.8417 164.897 33.8698V33.8792C164.981 33.9016 165.026 33.9624 165.05 34.0691C165.073 34.1756 165.087 34.2192 165.102 34.2466H164.845C164.822 34.2192 164.809 34.1538 164.794 34.0886C164.779 34.0138 164.744 33.9763 164.668 33.9763H164.594L164.594 34.246V34.246ZM164.688 33.2669C164.362 33.2669 164.116 33.532 164.116 33.8701C164.116 34.1995 164.363 34.4682 164.697 34.4682C165.033 34.4737 165.279 34.1997 165.279 33.8648C165.279 33.5314 165.033 33.2669 164.693 33.2669H164.688ZM164.703 33.0664C165.157 33.0664 165.519 33.4237 165.519 33.8646C165.519 34.3107 165.157 34.6685 164.697 34.6685C164.236 34.6685 163.869 34.3102 163.869 33.8648C163.869 33.4237 164.236 33.0666 164.697 33.0666H164.702" fill="#7C7A7A"/>
</svg>
